G04 #@! TF.GenerationSoftware,KiCad,Pcbnew,(6.0.4-0)*
G04 #@! TF.CreationDate,2023-01-29T19:06:18-06:00*
G04 #@! TF.ProjectId,main,6d61696e-2e6b-4696-9361-645f70636258,0.2*
G04 #@! TF.SameCoordinates,Original*
G04 #@! TF.FileFunction,Soldermask,Top*
G04 #@! TF.FilePolarity,Negative*
%FSLAX46Y46*%
G04 Gerber Fmt 4.6, Leading zero omitted, Abs format (unit mm)*
G04 Created by KiCad (PCBNEW (6.0.4-0)) date 2023-01-29 19:06:18*
%MOMM*%
%LPD*%
G01*
G04 APERTURE LIST*
G04 Aperture macros list*
%AMRoundRect*
0 Rectangle with rounded corners*
0 $1 Rounding radius*
0 $2 $3 $4 $5 $6 $7 $8 $9 X,Y pos of 4 corners*
0 Add a 4 corners polygon primitive as box body*
4,1,4,$2,$3,$4,$5,$6,$7,$8,$9,$2,$3,0*
0 Add four circle primitives for the rounded corners*
1,1,$1+$1,$2,$3*
1,1,$1+$1,$4,$5*
1,1,$1+$1,$6,$7*
1,1,$1+$1,$8,$9*
0 Add four rect primitives between the rounded corners*
20,1,$1+$1,$2,$3,$4,$5,0*
20,1,$1+$1,$4,$5,$6,$7,0*
20,1,$1+$1,$6,$7,$8,$9,0*
20,1,$1+$1,$8,$9,$2,$3,0*%
%AMRotRect*
0 Rectangle, with rotation*
0 The origin of the aperture is its center*
0 $1 length*
0 $2 width*
0 $3 Rotation angle, in degrees counterclockwise*
0 Add horizontal line*
21,1,$1,$2,0,0,$3*%
G04 Aperture macros list end*
%ADD10C,0.010000*%
%ADD11C,1.200000*%
%ADD12RoundRect,0.135000X-0.185000X0.135000X-0.185000X-0.135000X0.185000X-0.135000X0.185000X0.135000X0*%
%ADD13RoundRect,0.135000X0.135000X0.185000X-0.135000X0.185000X-0.135000X-0.185000X0.135000X-0.185000X0*%
%ADD14RoundRect,0.007800X-0.422200X-0.122200X0.422200X-0.122200X0.422200X0.122200X-0.422200X0.122200X0*%
%ADD15RoundRect,0.007800X0.122200X-0.422200X0.122200X0.422200X-0.122200X0.422200X-0.122200X-0.422200X0*%
%ADD16R,1.680000X1.680000*%
%ADD17C,0.900000*%
%ADD18R,1.500000X0.700000*%
%ADD19R,0.800000X1.000000*%
%ADD20R,0.600000X1.100000*%
%ADD21R,0.300000X1.100000*%
%ADD22RoundRect,0.218750X0.218750X0.256250X-0.218750X0.256250X-0.218750X-0.256250X0.218750X-0.256250X0*%
%ADD23RoundRect,0.140000X-0.170000X0.140000X-0.170000X-0.140000X0.170000X-0.140000X0.170000X0.140000X0*%
%ADD24R,0.800000X0.550000*%
%ADD25RoundRect,0.135000X-0.135000X-0.185000X0.135000X-0.185000X0.135000X0.185000X-0.135000X0.185000X0*%
%ADD26RoundRect,0.140000X0.140000X0.170000X-0.140000X0.170000X-0.140000X-0.170000X0.140000X-0.170000X0*%
%ADD27RoundRect,0.218750X-0.218750X-0.256250X0.218750X-0.256250X0.218750X0.256250X-0.218750X0.256250X0*%
%ADD28C,3.200000*%
%ADD29RoundRect,0.250000X-0.400000X0.250000X-0.400000X-0.250000X0.400000X-0.250000X0.400000X0.250000X0*%
%ADD30RoundRect,0.250000X-0.250000X0.400000X-0.250000X-0.400000X0.250000X-0.400000X0.250000X0.400000X0*%
%ADD31R,0.850000X0.600000*%
%ADD32R,0.800000X0.700000*%
%ADD33RoundRect,0.140000X0.170000X-0.140000X0.170000X0.140000X-0.170000X0.140000X-0.170000X-0.140000X0*%
%ADD34RoundRect,0.007800X-0.122200X0.422200X-0.122200X-0.422200X0.122200X-0.422200X0.122200X0.422200X0*%
%ADD35RoundRect,0.250000X0.400000X-0.250000X0.400000X0.250000X-0.400000X0.250000X-0.400000X-0.250000X0*%
%ADD36RoundRect,0.250000X0.250000X-0.400000X0.250000X0.400000X-0.250000X0.400000X-0.250000X-0.400000X0*%
%ADD37RoundRect,0.135000X0.185000X-0.135000X0.185000X0.135000X-0.185000X0.135000X-0.185000X-0.135000X0*%
%ADD38R,0.550000X0.800000*%
%ADD39C,6.400000*%
%ADD40C,0.800000*%
%ADD41RotRect,1.000000X1.500000X200.000000*%
%ADD42RoundRect,0.112500X0.278669X0.221147X-0.355624X-0.009716X-0.278669X-0.221147X0.355624X0.009716X0*%
%ADD43RoundRect,0.112500X-0.221147X0.278669X0.009716X-0.355624X0.221147X-0.278669X-0.009716X0.355624X0*%
%ADD44RoundRect,0.112500X0.355624X-0.009716X-0.278669X0.221147X-0.355624X0.009716X0.278669X-0.221147X0*%
%ADD45RoundRect,0.112500X0.009716X0.355624X-0.221147X-0.278669X-0.009716X-0.355624X0.221147X0.278669X0*%
%ADD46RotRect,1.000000X1.500000X160.000000*%
%ADD47C,1.701800*%
%ADD48C,3.429000*%
%ADD49C,2.032000*%
G04 APERTURE END LIST*
G36*
X189605500Y-141065500D02*
G01*
X189667500Y-141075500D01*
X189727500Y-141091500D01*
X189786500Y-141114500D01*
X189842500Y-141142500D01*
X189895500Y-141177500D01*
X189943500Y-141216500D01*
X189988500Y-141261500D01*
X190027500Y-141309500D01*
X190062500Y-141362500D01*
X190090500Y-141418500D01*
X190113500Y-141477500D01*
X190129500Y-141537500D01*
X190139500Y-141599500D01*
X190142500Y-141662500D01*
X190142500Y-142462500D01*
X190139500Y-142525500D01*
X190129500Y-142587500D01*
X190113500Y-142647500D01*
X190090500Y-142706500D01*
X190062500Y-142762500D01*
X190027500Y-142815500D01*
X189988500Y-142863500D01*
X189943500Y-142908500D01*
X189895500Y-142947500D01*
X189842500Y-142982500D01*
X189786500Y-143010500D01*
X189727500Y-143033500D01*
X189667500Y-143049500D01*
X189605500Y-143059500D01*
X189542500Y-143062500D01*
X189479500Y-143059500D01*
X189417500Y-143049500D01*
X189357500Y-143033500D01*
X189298500Y-143010500D01*
X189242500Y-142982500D01*
X189189500Y-142947500D01*
X189141500Y-142908500D01*
X189096500Y-142863500D01*
X189057500Y-142815500D01*
X189022500Y-142762500D01*
X188994500Y-142706500D01*
X188971500Y-142647500D01*
X188955500Y-142587500D01*
X188945500Y-142525500D01*
X188942500Y-142462500D01*
X188942500Y-141662500D01*
X188945500Y-141599500D01*
X188955500Y-141537500D01*
X188971500Y-141477500D01*
X188994500Y-141418500D01*
X189022500Y-141362500D01*
X189057500Y-141309500D01*
X189096500Y-141261500D01*
X189141500Y-141216500D01*
X189189500Y-141177500D01*
X189242500Y-141142500D01*
X189298500Y-141114500D01*
X189357500Y-141091500D01*
X189417500Y-141075500D01*
X189479500Y-141065500D01*
X189542500Y-141062500D01*
X189605500Y-141065500D01*
G37*
D10*
X189605500Y-141065500D02*
X189667500Y-141075500D01*
X189727500Y-141091500D01*
X189786500Y-141114500D01*
X189842500Y-141142500D01*
X189895500Y-141177500D01*
X189943500Y-141216500D01*
X189988500Y-141261500D01*
X190027500Y-141309500D01*
X190062500Y-141362500D01*
X190090500Y-141418500D01*
X190113500Y-141477500D01*
X190129500Y-141537500D01*
X190139500Y-141599500D01*
X190142500Y-141662500D01*
X190142500Y-142462500D01*
X190139500Y-142525500D01*
X190129500Y-142587500D01*
X190113500Y-142647500D01*
X190090500Y-142706500D01*
X190062500Y-142762500D01*
X190027500Y-142815500D01*
X189988500Y-142863500D01*
X189943500Y-142908500D01*
X189895500Y-142947500D01*
X189842500Y-142982500D01*
X189786500Y-143010500D01*
X189727500Y-143033500D01*
X189667500Y-143049500D01*
X189605500Y-143059500D01*
X189542500Y-143062500D01*
X189479500Y-143059500D01*
X189417500Y-143049500D01*
X189357500Y-143033500D01*
X189298500Y-143010500D01*
X189242500Y-142982500D01*
X189189500Y-142947500D01*
X189141500Y-142908500D01*
X189096500Y-142863500D01*
X189057500Y-142815500D01*
X189022500Y-142762500D01*
X188994500Y-142706500D01*
X188971500Y-142647500D01*
X188955500Y-142587500D01*
X188945500Y-142525500D01*
X188942500Y-142462500D01*
X188942500Y-141662500D01*
X188945500Y-141599500D01*
X188955500Y-141537500D01*
X188971500Y-141477500D01*
X188994500Y-141418500D01*
X189022500Y-141362500D01*
X189057500Y-141309500D01*
X189096500Y-141261500D01*
X189141500Y-141216500D01*
X189189500Y-141177500D01*
X189242500Y-141142500D01*
X189298500Y-141114500D01*
X189357500Y-141091500D01*
X189417500Y-141075500D01*
X189479500Y-141065500D01*
X189542500Y-141062500D01*
X189605500Y-141065500D01*
G36*
X200845500Y-144865500D02*
G01*
X200907500Y-144875500D01*
X200967500Y-144891500D01*
X201026500Y-144914500D01*
X201082500Y-144942500D01*
X201135500Y-144977500D01*
X201183500Y-145016500D01*
X201228500Y-145061500D01*
X201267500Y-145109500D01*
X201302500Y-145162500D01*
X201330500Y-145218500D01*
X201353500Y-145277500D01*
X201369500Y-145337500D01*
X201379500Y-145399500D01*
X201382500Y-145462500D01*
X201382500Y-146662500D01*
X201379500Y-146725500D01*
X201369500Y-146787500D01*
X201353500Y-146847500D01*
X201330500Y-146906500D01*
X201302500Y-146962500D01*
X201267500Y-147015500D01*
X201228500Y-147063500D01*
X201183500Y-147108500D01*
X201135500Y-147147500D01*
X201082500Y-147182500D01*
X201026500Y-147210500D01*
X200967500Y-147233500D01*
X200907500Y-147249500D01*
X200845500Y-147259500D01*
X200782500Y-147262500D01*
X200719500Y-147259500D01*
X200657500Y-147249500D01*
X200597500Y-147233500D01*
X200538500Y-147210500D01*
X200482500Y-147182500D01*
X200429500Y-147147500D01*
X200381500Y-147108500D01*
X200336500Y-147063500D01*
X200297500Y-147015500D01*
X200262500Y-146962500D01*
X200234500Y-146906500D01*
X200211500Y-146847500D01*
X200195500Y-146787500D01*
X200185500Y-146725500D01*
X200182500Y-146662500D01*
X200182500Y-145462500D01*
X200185500Y-145399500D01*
X200195500Y-145337500D01*
X200211500Y-145277500D01*
X200234500Y-145218500D01*
X200262500Y-145162500D01*
X200297500Y-145109500D01*
X200336500Y-145061500D01*
X200381500Y-145016500D01*
X200429500Y-144977500D01*
X200482500Y-144942500D01*
X200538500Y-144914500D01*
X200597500Y-144891500D01*
X200657500Y-144875500D01*
X200719500Y-144865500D01*
X200782500Y-144862500D01*
X200845500Y-144865500D01*
G37*
X200845500Y-144865500D02*
X200907500Y-144875500D01*
X200967500Y-144891500D01*
X201026500Y-144914500D01*
X201082500Y-144942500D01*
X201135500Y-144977500D01*
X201183500Y-145016500D01*
X201228500Y-145061500D01*
X201267500Y-145109500D01*
X201302500Y-145162500D01*
X201330500Y-145218500D01*
X201353500Y-145277500D01*
X201369500Y-145337500D01*
X201379500Y-145399500D01*
X201382500Y-145462500D01*
X201382500Y-146662500D01*
X201379500Y-146725500D01*
X201369500Y-146787500D01*
X201353500Y-146847500D01*
X201330500Y-146906500D01*
X201302500Y-146962500D01*
X201267500Y-147015500D01*
X201228500Y-147063500D01*
X201183500Y-147108500D01*
X201135500Y-147147500D01*
X201082500Y-147182500D01*
X201026500Y-147210500D01*
X200967500Y-147233500D01*
X200907500Y-147249500D01*
X200845500Y-147259500D01*
X200782500Y-147262500D01*
X200719500Y-147259500D01*
X200657500Y-147249500D01*
X200597500Y-147233500D01*
X200538500Y-147210500D01*
X200482500Y-147182500D01*
X200429500Y-147147500D01*
X200381500Y-147108500D01*
X200336500Y-147063500D01*
X200297500Y-147015500D01*
X200262500Y-146962500D01*
X200234500Y-146906500D01*
X200211500Y-146847500D01*
X200195500Y-146787500D01*
X200185500Y-146725500D01*
X200182500Y-146662500D01*
X200182500Y-145462500D01*
X200185500Y-145399500D01*
X200195500Y-145337500D01*
X200211500Y-145277500D01*
X200234500Y-145218500D01*
X200262500Y-145162500D01*
X200297500Y-145109500D01*
X200336500Y-145061500D01*
X200381500Y-145016500D01*
X200429500Y-144977500D01*
X200482500Y-144942500D01*
X200538500Y-144914500D01*
X200597500Y-144891500D01*
X200657500Y-144875500D01*
X200719500Y-144865500D01*
X200782500Y-144862500D01*
X200845500Y-144865500D01*
G36*
X189605500Y-144865500D02*
G01*
X189667500Y-144875500D01*
X189727500Y-144891500D01*
X189786500Y-144914500D01*
X189842500Y-144942500D01*
X189895500Y-144977500D01*
X189943500Y-145016500D01*
X189988500Y-145061500D01*
X190027500Y-145109500D01*
X190062500Y-145162500D01*
X190090500Y-145218500D01*
X190113500Y-145277500D01*
X190129500Y-145337500D01*
X190139500Y-145399500D01*
X190142500Y-145462500D01*
X190142500Y-146662500D01*
X190139500Y-146725500D01*
X190129500Y-146787500D01*
X190113500Y-146847500D01*
X190090500Y-146906500D01*
X190062500Y-146962500D01*
X190027500Y-147015500D01*
X189988500Y-147063500D01*
X189943500Y-147108500D01*
X189895500Y-147147500D01*
X189842500Y-147182500D01*
X189786500Y-147210500D01*
X189727500Y-147233500D01*
X189667500Y-147249500D01*
X189605500Y-147259500D01*
X189542500Y-147262500D01*
X189479500Y-147259500D01*
X189417500Y-147249500D01*
X189357500Y-147233500D01*
X189298500Y-147210500D01*
X189242500Y-147182500D01*
X189189500Y-147147500D01*
X189141500Y-147108500D01*
X189096500Y-147063500D01*
X189057500Y-147015500D01*
X189022500Y-146962500D01*
X188994500Y-146906500D01*
X188971500Y-146847500D01*
X188955500Y-146787500D01*
X188945500Y-146725500D01*
X188942500Y-146662500D01*
X188942500Y-145462500D01*
X188945500Y-145399500D01*
X188955500Y-145337500D01*
X188971500Y-145277500D01*
X188994500Y-145218500D01*
X189022500Y-145162500D01*
X189057500Y-145109500D01*
X189096500Y-145061500D01*
X189141500Y-145016500D01*
X189189500Y-144977500D01*
X189242500Y-144942500D01*
X189298500Y-144914500D01*
X189357500Y-144891500D01*
X189417500Y-144875500D01*
X189479500Y-144865500D01*
X189542500Y-144862500D01*
X189605500Y-144865500D01*
G37*
X189605500Y-144865500D02*
X189667500Y-144875500D01*
X189727500Y-144891500D01*
X189786500Y-144914500D01*
X189842500Y-144942500D01*
X189895500Y-144977500D01*
X189943500Y-145016500D01*
X189988500Y-145061500D01*
X190027500Y-145109500D01*
X190062500Y-145162500D01*
X190090500Y-145218500D01*
X190113500Y-145277500D01*
X190129500Y-145337500D01*
X190139500Y-145399500D01*
X190142500Y-145462500D01*
X190142500Y-146662500D01*
X190139500Y-146725500D01*
X190129500Y-146787500D01*
X190113500Y-146847500D01*
X190090500Y-146906500D01*
X190062500Y-146962500D01*
X190027500Y-147015500D01*
X189988500Y-147063500D01*
X189943500Y-147108500D01*
X189895500Y-147147500D01*
X189842500Y-147182500D01*
X189786500Y-147210500D01*
X189727500Y-147233500D01*
X189667500Y-147249500D01*
X189605500Y-147259500D01*
X189542500Y-147262500D01*
X189479500Y-147259500D01*
X189417500Y-147249500D01*
X189357500Y-147233500D01*
X189298500Y-147210500D01*
X189242500Y-147182500D01*
X189189500Y-147147500D01*
X189141500Y-147108500D01*
X189096500Y-147063500D01*
X189057500Y-147015500D01*
X189022500Y-146962500D01*
X188994500Y-146906500D01*
X188971500Y-146847500D01*
X188955500Y-146787500D01*
X188945500Y-146725500D01*
X188942500Y-146662500D01*
X188942500Y-145462500D01*
X188945500Y-145399500D01*
X188955500Y-145337500D01*
X188971500Y-145277500D01*
X188994500Y-145218500D01*
X189022500Y-145162500D01*
X189057500Y-145109500D01*
X189096500Y-145061500D01*
X189141500Y-145016500D01*
X189189500Y-144977500D01*
X189242500Y-144942500D01*
X189298500Y-144914500D01*
X189357500Y-144891500D01*
X189417500Y-144875500D01*
X189479500Y-144865500D01*
X189542500Y-144862500D01*
X189605500Y-144865500D01*
G36*
X200845500Y-141065500D02*
G01*
X200907500Y-141075500D01*
X200967500Y-141091500D01*
X201026500Y-141114500D01*
X201082500Y-141142500D01*
X201135500Y-141177500D01*
X201183500Y-141216500D01*
X201228500Y-141261500D01*
X201267500Y-141309500D01*
X201302500Y-141362500D01*
X201330500Y-141418500D01*
X201353500Y-141477500D01*
X201369500Y-141537500D01*
X201379500Y-141599500D01*
X201382500Y-141662500D01*
X201382500Y-142462500D01*
X201379500Y-142525500D01*
X201369500Y-142587500D01*
X201353500Y-142647500D01*
X201330500Y-142706500D01*
X201302500Y-142762500D01*
X201267500Y-142815500D01*
X201228500Y-142863500D01*
X201183500Y-142908500D01*
X201135500Y-142947500D01*
X201082500Y-142982500D01*
X201026500Y-143010500D01*
X200967500Y-143033500D01*
X200907500Y-143049500D01*
X200845500Y-143059500D01*
X200782500Y-143062500D01*
X200719500Y-143059500D01*
X200657500Y-143049500D01*
X200597500Y-143033500D01*
X200538500Y-143010500D01*
X200482500Y-142982500D01*
X200429500Y-142947500D01*
X200381500Y-142908500D01*
X200336500Y-142863500D01*
X200297500Y-142815500D01*
X200262500Y-142762500D01*
X200234500Y-142706500D01*
X200211500Y-142647500D01*
X200195500Y-142587500D01*
X200185500Y-142525500D01*
X200182500Y-142462500D01*
X200182500Y-141662500D01*
X200185500Y-141599500D01*
X200195500Y-141537500D01*
X200211500Y-141477500D01*
X200234500Y-141418500D01*
X200262500Y-141362500D01*
X200297500Y-141309500D01*
X200336500Y-141261500D01*
X200381500Y-141216500D01*
X200429500Y-141177500D01*
X200482500Y-141142500D01*
X200538500Y-141114500D01*
X200597500Y-141091500D01*
X200657500Y-141075500D01*
X200719500Y-141065500D01*
X200782500Y-141062500D01*
X200845500Y-141065500D01*
G37*
X200845500Y-141065500D02*
X200907500Y-141075500D01*
X200967500Y-141091500D01*
X201026500Y-141114500D01*
X201082500Y-141142500D01*
X201135500Y-141177500D01*
X201183500Y-141216500D01*
X201228500Y-141261500D01*
X201267500Y-141309500D01*
X201302500Y-141362500D01*
X201330500Y-141418500D01*
X201353500Y-141477500D01*
X201369500Y-141537500D01*
X201379500Y-141599500D01*
X201382500Y-141662500D01*
X201382500Y-142462500D01*
X201379500Y-142525500D01*
X201369500Y-142587500D01*
X201353500Y-142647500D01*
X201330500Y-142706500D01*
X201302500Y-142762500D01*
X201267500Y-142815500D01*
X201228500Y-142863500D01*
X201183500Y-142908500D01*
X201135500Y-142947500D01*
X201082500Y-142982500D01*
X201026500Y-143010500D01*
X200967500Y-143033500D01*
X200907500Y-143049500D01*
X200845500Y-143059500D01*
X200782500Y-143062500D01*
X200719500Y-143059500D01*
X200657500Y-143049500D01*
X200597500Y-143033500D01*
X200538500Y-143010500D01*
X200482500Y-142982500D01*
X200429500Y-142947500D01*
X200381500Y-142908500D01*
X200336500Y-142863500D01*
X200297500Y-142815500D01*
X200262500Y-142762500D01*
X200234500Y-142706500D01*
X200211500Y-142647500D01*
X200195500Y-142587500D01*
X200185500Y-142525500D01*
X200182500Y-142462500D01*
X200182500Y-141662500D01*
X200185500Y-141599500D01*
X200195500Y-141537500D01*
X200211500Y-141477500D01*
X200234500Y-141418500D01*
X200262500Y-141362500D01*
X200297500Y-141309500D01*
X200336500Y-141261500D01*
X200381500Y-141216500D01*
X200429500Y-141177500D01*
X200482500Y-141142500D01*
X200538500Y-141114500D01*
X200597500Y-141091500D01*
X200657500Y-141075500D01*
X200719500Y-141065500D01*
X200782500Y-141062500D01*
X200845500Y-141065500D01*
G36*
X149845500Y-144865500D02*
G01*
X149907500Y-144875500D01*
X149967500Y-144891500D01*
X150026500Y-144914500D01*
X150082500Y-144942500D01*
X150135500Y-144977500D01*
X150183500Y-145016500D01*
X150228500Y-145061500D01*
X150267500Y-145109500D01*
X150302500Y-145162500D01*
X150330500Y-145218500D01*
X150353500Y-145277500D01*
X150369500Y-145337500D01*
X150379500Y-145399500D01*
X150382500Y-145462500D01*
X150382500Y-146662500D01*
X150379500Y-146725500D01*
X150369500Y-146787500D01*
X150353500Y-146847500D01*
X150330500Y-146906500D01*
X150302500Y-146962500D01*
X150267500Y-147015500D01*
X150228500Y-147063500D01*
X150183500Y-147108500D01*
X150135500Y-147147500D01*
X150082500Y-147182500D01*
X150026500Y-147210500D01*
X149967500Y-147233500D01*
X149907500Y-147249500D01*
X149845500Y-147259500D01*
X149782500Y-147262500D01*
X149719500Y-147259500D01*
X149657500Y-147249500D01*
X149597500Y-147233500D01*
X149538500Y-147210500D01*
X149482500Y-147182500D01*
X149429500Y-147147500D01*
X149381500Y-147108500D01*
X149336500Y-147063500D01*
X149297500Y-147015500D01*
X149262500Y-146962500D01*
X149234500Y-146906500D01*
X149211500Y-146847500D01*
X149195500Y-146787500D01*
X149185500Y-146725500D01*
X149182500Y-146662500D01*
X149182500Y-145462500D01*
X149185500Y-145399500D01*
X149195500Y-145337500D01*
X149211500Y-145277500D01*
X149234500Y-145218500D01*
X149262500Y-145162500D01*
X149297500Y-145109500D01*
X149336500Y-145061500D01*
X149381500Y-145016500D01*
X149429500Y-144977500D01*
X149482500Y-144942500D01*
X149538500Y-144914500D01*
X149597500Y-144891500D01*
X149657500Y-144875500D01*
X149719500Y-144865500D01*
X149782500Y-144862500D01*
X149845500Y-144865500D01*
G37*
X149845500Y-144865500D02*
X149907500Y-144875500D01*
X149967500Y-144891500D01*
X150026500Y-144914500D01*
X150082500Y-144942500D01*
X150135500Y-144977500D01*
X150183500Y-145016500D01*
X150228500Y-145061500D01*
X150267500Y-145109500D01*
X150302500Y-145162500D01*
X150330500Y-145218500D01*
X150353500Y-145277500D01*
X150369500Y-145337500D01*
X150379500Y-145399500D01*
X150382500Y-145462500D01*
X150382500Y-146662500D01*
X150379500Y-146725500D01*
X150369500Y-146787500D01*
X150353500Y-146847500D01*
X150330500Y-146906500D01*
X150302500Y-146962500D01*
X150267500Y-147015500D01*
X150228500Y-147063500D01*
X150183500Y-147108500D01*
X150135500Y-147147500D01*
X150082500Y-147182500D01*
X150026500Y-147210500D01*
X149967500Y-147233500D01*
X149907500Y-147249500D01*
X149845500Y-147259500D01*
X149782500Y-147262500D01*
X149719500Y-147259500D01*
X149657500Y-147249500D01*
X149597500Y-147233500D01*
X149538500Y-147210500D01*
X149482500Y-147182500D01*
X149429500Y-147147500D01*
X149381500Y-147108500D01*
X149336500Y-147063500D01*
X149297500Y-147015500D01*
X149262500Y-146962500D01*
X149234500Y-146906500D01*
X149211500Y-146847500D01*
X149195500Y-146787500D01*
X149185500Y-146725500D01*
X149182500Y-146662500D01*
X149182500Y-145462500D01*
X149185500Y-145399500D01*
X149195500Y-145337500D01*
X149211500Y-145277500D01*
X149234500Y-145218500D01*
X149262500Y-145162500D01*
X149297500Y-145109500D01*
X149336500Y-145061500D01*
X149381500Y-145016500D01*
X149429500Y-144977500D01*
X149482500Y-144942500D01*
X149538500Y-144914500D01*
X149597500Y-144891500D01*
X149657500Y-144875500D01*
X149719500Y-144865500D01*
X149782500Y-144862500D01*
X149845500Y-144865500D01*
G36*
X138605500Y-144865500D02*
G01*
X138667500Y-144875500D01*
X138727500Y-144891500D01*
X138786500Y-144914500D01*
X138842500Y-144942500D01*
X138895500Y-144977500D01*
X138943500Y-145016500D01*
X138988500Y-145061500D01*
X139027500Y-145109500D01*
X139062500Y-145162500D01*
X139090500Y-145218500D01*
X139113500Y-145277500D01*
X139129500Y-145337500D01*
X139139500Y-145399500D01*
X139142500Y-145462500D01*
X139142500Y-146662500D01*
X139139500Y-146725500D01*
X139129500Y-146787500D01*
X139113500Y-146847500D01*
X139090500Y-146906500D01*
X139062500Y-146962500D01*
X139027500Y-147015500D01*
X138988500Y-147063500D01*
X138943500Y-147108500D01*
X138895500Y-147147500D01*
X138842500Y-147182500D01*
X138786500Y-147210500D01*
X138727500Y-147233500D01*
X138667500Y-147249500D01*
X138605500Y-147259500D01*
X138542500Y-147262500D01*
X138479500Y-147259500D01*
X138417500Y-147249500D01*
X138357500Y-147233500D01*
X138298500Y-147210500D01*
X138242500Y-147182500D01*
X138189500Y-147147500D01*
X138141500Y-147108500D01*
X138096500Y-147063500D01*
X138057500Y-147015500D01*
X138022500Y-146962500D01*
X137994500Y-146906500D01*
X137971500Y-146847500D01*
X137955500Y-146787500D01*
X137945500Y-146725500D01*
X137942500Y-146662500D01*
X137942500Y-145462500D01*
X137945500Y-145399500D01*
X137955500Y-145337500D01*
X137971500Y-145277500D01*
X137994500Y-145218500D01*
X138022500Y-145162500D01*
X138057500Y-145109500D01*
X138096500Y-145061500D01*
X138141500Y-145016500D01*
X138189500Y-144977500D01*
X138242500Y-144942500D01*
X138298500Y-144914500D01*
X138357500Y-144891500D01*
X138417500Y-144875500D01*
X138479500Y-144865500D01*
X138542500Y-144862500D01*
X138605500Y-144865500D01*
G37*
X138605500Y-144865500D02*
X138667500Y-144875500D01*
X138727500Y-144891500D01*
X138786500Y-144914500D01*
X138842500Y-144942500D01*
X138895500Y-144977500D01*
X138943500Y-145016500D01*
X138988500Y-145061500D01*
X139027500Y-145109500D01*
X139062500Y-145162500D01*
X139090500Y-145218500D01*
X139113500Y-145277500D01*
X139129500Y-145337500D01*
X139139500Y-145399500D01*
X139142500Y-145462500D01*
X139142500Y-146662500D01*
X139139500Y-146725500D01*
X139129500Y-146787500D01*
X139113500Y-146847500D01*
X139090500Y-146906500D01*
X139062500Y-146962500D01*
X139027500Y-147015500D01*
X138988500Y-147063500D01*
X138943500Y-147108500D01*
X138895500Y-147147500D01*
X138842500Y-147182500D01*
X138786500Y-147210500D01*
X138727500Y-147233500D01*
X138667500Y-147249500D01*
X138605500Y-147259500D01*
X138542500Y-147262500D01*
X138479500Y-147259500D01*
X138417500Y-147249500D01*
X138357500Y-147233500D01*
X138298500Y-147210500D01*
X138242500Y-147182500D01*
X138189500Y-147147500D01*
X138141500Y-147108500D01*
X138096500Y-147063500D01*
X138057500Y-147015500D01*
X138022500Y-146962500D01*
X137994500Y-146906500D01*
X137971500Y-146847500D01*
X137955500Y-146787500D01*
X137945500Y-146725500D01*
X137942500Y-146662500D01*
X137942500Y-145462500D01*
X137945500Y-145399500D01*
X137955500Y-145337500D01*
X137971500Y-145277500D01*
X137994500Y-145218500D01*
X138022500Y-145162500D01*
X138057500Y-145109500D01*
X138096500Y-145061500D01*
X138141500Y-145016500D01*
X138189500Y-144977500D01*
X138242500Y-144942500D01*
X138298500Y-144914500D01*
X138357500Y-144891500D01*
X138417500Y-144875500D01*
X138479500Y-144865500D01*
X138542500Y-144862500D01*
X138605500Y-144865500D01*
G36*
X138605500Y-141065500D02*
G01*
X138667500Y-141075500D01*
X138727500Y-141091500D01*
X138786500Y-141114500D01*
X138842500Y-141142500D01*
X138895500Y-141177500D01*
X138943500Y-141216500D01*
X138988500Y-141261500D01*
X139027500Y-141309500D01*
X139062500Y-141362500D01*
X139090500Y-141418500D01*
X139113500Y-141477500D01*
X139129500Y-141537500D01*
X139139500Y-141599500D01*
X139142500Y-141662500D01*
X139142500Y-142462500D01*
X139139500Y-142525500D01*
X139129500Y-142587500D01*
X139113500Y-142647500D01*
X139090500Y-142706500D01*
X139062500Y-142762500D01*
X139027500Y-142815500D01*
X138988500Y-142863500D01*
X138943500Y-142908500D01*
X138895500Y-142947500D01*
X138842500Y-142982500D01*
X138786500Y-143010500D01*
X138727500Y-143033500D01*
X138667500Y-143049500D01*
X138605500Y-143059500D01*
X138542500Y-143062500D01*
X138479500Y-143059500D01*
X138417500Y-143049500D01*
X138357500Y-143033500D01*
X138298500Y-143010500D01*
X138242500Y-142982500D01*
X138189500Y-142947500D01*
X138141500Y-142908500D01*
X138096500Y-142863500D01*
X138057500Y-142815500D01*
X138022500Y-142762500D01*
X137994500Y-142706500D01*
X137971500Y-142647500D01*
X137955500Y-142587500D01*
X137945500Y-142525500D01*
X137942500Y-142462500D01*
X137942500Y-141662500D01*
X137945500Y-141599500D01*
X137955500Y-141537500D01*
X137971500Y-141477500D01*
X137994500Y-141418500D01*
X138022500Y-141362500D01*
X138057500Y-141309500D01*
X138096500Y-141261500D01*
X138141500Y-141216500D01*
X138189500Y-141177500D01*
X138242500Y-141142500D01*
X138298500Y-141114500D01*
X138357500Y-141091500D01*
X138417500Y-141075500D01*
X138479500Y-141065500D01*
X138542500Y-141062500D01*
X138605500Y-141065500D01*
G37*
X138605500Y-141065500D02*
X138667500Y-141075500D01*
X138727500Y-141091500D01*
X138786500Y-141114500D01*
X138842500Y-141142500D01*
X138895500Y-141177500D01*
X138943500Y-141216500D01*
X138988500Y-141261500D01*
X139027500Y-141309500D01*
X139062500Y-141362500D01*
X139090500Y-141418500D01*
X139113500Y-141477500D01*
X139129500Y-141537500D01*
X139139500Y-141599500D01*
X139142500Y-141662500D01*
X139142500Y-142462500D01*
X139139500Y-142525500D01*
X139129500Y-142587500D01*
X139113500Y-142647500D01*
X139090500Y-142706500D01*
X139062500Y-142762500D01*
X139027500Y-142815500D01*
X138988500Y-142863500D01*
X138943500Y-142908500D01*
X138895500Y-142947500D01*
X138842500Y-142982500D01*
X138786500Y-143010500D01*
X138727500Y-143033500D01*
X138667500Y-143049500D01*
X138605500Y-143059500D01*
X138542500Y-143062500D01*
X138479500Y-143059500D01*
X138417500Y-143049500D01*
X138357500Y-143033500D01*
X138298500Y-143010500D01*
X138242500Y-142982500D01*
X138189500Y-142947500D01*
X138141500Y-142908500D01*
X138096500Y-142863500D01*
X138057500Y-142815500D01*
X138022500Y-142762500D01*
X137994500Y-142706500D01*
X137971500Y-142647500D01*
X137955500Y-142587500D01*
X137945500Y-142525500D01*
X137942500Y-142462500D01*
X137942500Y-141662500D01*
X137945500Y-141599500D01*
X137955500Y-141537500D01*
X137971500Y-141477500D01*
X137994500Y-141418500D01*
X138022500Y-141362500D01*
X138057500Y-141309500D01*
X138096500Y-141261500D01*
X138141500Y-141216500D01*
X138189500Y-141177500D01*
X138242500Y-141142500D01*
X138298500Y-141114500D01*
X138357500Y-141091500D01*
X138417500Y-141075500D01*
X138479500Y-141065500D01*
X138542500Y-141062500D01*
X138605500Y-141065500D01*
G36*
X149845500Y-141065500D02*
G01*
X149907500Y-141075500D01*
X149967500Y-141091500D01*
X150026500Y-141114500D01*
X150082500Y-141142500D01*
X150135500Y-141177500D01*
X150183500Y-141216500D01*
X150228500Y-141261500D01*
X150267500Y-141309500D01*
X150302500Y-141362500D01*
X150330500Y-141418500D01*
X150353500Y-141477500D01*
X150369500Y-141537500D01*
X150379500Y-141599500D01*
X150382500Y-141662500D01*
X150382500Y-142462500D01*
X150379500Y-142525500D01*
X150369500Y-142587500D01*
X150353500Y-142647500D01*
X150330500Y-142706500D01*
X150302500Y-142762500D01*
X150267500Y-142815500D01*
X150228500Y-142863500D01*
X150183500Y-142908500D01*
X150135500Y-142947500D01*
X150082500Y-142982500D01*
X150026500Y-143010500D01*
X149967500Y-143033500D01*
X149907500Y-143049500D01*
X149845500Y-143059500D01*
X149782500Y-143062500D01*
X149719500Y-143059500D01*
X149657500Y-143049500D01*
X149597500Y-143033500D01*
X149538500Y-143010500D01*
X149482500Y-142982500D01*
X149429500Y-142947500D01*
X149381500Y-142908500D01*
X149336500Y-142863500D01*
X149297500Y-142815500D01*
X149262500Y-142762500D01*
X149234500Y-142706500D01*
X149211500Y-142647500D01*
X149195500Y-142587500D01*
X149185500Y-142525500D01*
X149182500Y-142462500D01*
X149182500Y-141662500D01*
X149185500Y-141599500D01*
X149195500Y-141537500D01*
X149211500Y-141477500D01*
X149234500Y-141418500D01*
X149262500Y-141362500D01*
X149297500Y-141309500D01*
X149336500Y-141261500D01*
X149381500Y-141216500D01*
X149429500Y-141177500D01*
X149482500Y-141142500D01*
X149538500Y-141114500D01*
X149597500Y-141091500D01*
X149657500Y-141075500D01*
X149719500Y-141065500D01*
X149782500Y-141062500D01*
X149845500Y-141065500D01*
G37*
X149845500Y-141065500D02*
X149907500Y-141075500D01*
X149967500Y-141091500D01*
X150026500Y-141114500D01*
X150082500Y-141142500D01*
X150135500Y-141177500D01*
X150183500Y-141216500D01*
X150228500Y-141261500D01*
X150267500Y-141309500D01*
X150302500Y-141362500D01*
X150330500Y-141418500D01*
X150353500Y-141477500D01*
X150369500Y-141537500D01*
X150379500Y-141599500D01*
X150382500Y-141662500D01*
X150382500Y-142462500D01*
X150379500Y-142525500D01*
X150369500Y-142587500D01*
X150353500Y-142647500D01*
X150330500Y-142706500D01*
X150302500Y-142762500D01*
X150267500Y-142815500D01*
X150228500Y-142863500D01*
X150183500Y-142908500D01*
X150135500Y-142947500D01*
X150082500Y-142982500D01*
X150026500Y-143010500D01*
X149967500Y-143033500D01*
X149907500Y-143049500D01*
X149845500Y-143059500D01*
X149782500Y-143062500D01*
X149719500Y-143059500D01*
X149657500Y-143049500D01*
X149597500Y-143033500D01*
X149538500Y-143010500D01*
X149482500Y-142982500D01*
X149429500Y-142947500D01*
X149381500Y-142908500D01*
X149336500Y-142863500D01*
X149297500Y-142815500D01*
X149262500Y-142762500D01*
X149234500Y-142706500D01*
X149211500Y-142647500D01*
X149195500Y-142587500D01*
X149185500Y-142525500D01*
X149182500Y-142462500D01*
X149182500Y-141662500D01*
X149185500Y-141599500D01*
X149195500Y-141537500D01*
X149211500Y-141477500D01*
X149234500Y-141418500D01*
X149262500Y-141362500D01*
X149297500Y-141309500D01*
X149336500Y-141261500D01*
X149381500Y-141216500D01*
X149429500Y-141177500D01*
X149482500Y-141142500D01*
X149538500Y-141114500D01*
X149597500Y-141091500D01*
X149657500Y-141075500D01*
X149719500Y-141065500D01*
X149782500Y-141062500D01*
X149845500Y-141065500D01*
D11*
X226400000Y-133700000D03*
X116700000Y-134850000D03*
D12*
X193775000Y-136590000D03*
X193775000Y-137610000D03*
D13*
X197135000Y-136600000D03*
X196115000Y-136600000D03*
X142325000Y-136350000D03*
X143345000Y-136350000D03*
D12*
X145525000Y-135990000D03*
X145525000Y-137010000D03*
D14*
X188213402Y-94712500D03*
X188213402Y-95212500D03*
X188213402Y-95712500D03*
X188213402Y-96212500D03*
D15*
X188898402Y-96897500D03*
X189398402Y-96897500D03*
X189898402Y-96897500D03*
X190398402Y-96897500D03*
D14*
X191083402Y-96212500D03*
X191083402Y-95712500D03*
X191083402Y-95212500D03*
X191083402Y-94712500D03*
D15*
X190398402Y-94027500D03*
X189898402Y-94027500D03*
X189398402Y-94027500D03*
X188898402Y-94027500D03*
D16*
X189648402Y-95462500D03*
D11*
X232712500Y-131387500D03*
X227612500Y-131387500D03*
D17*
X178514500Y-84162500D03*
X178514500Y-87162500D03*
D18*
X180264500Y-83412500D03*
X180264500Y-86412500D03*
X180264500Y-87912500D03*
D19*
X179564500Y-82012500D03*
X177464500Y-82012500D03*
X177464500Y-89312500D03*
X179564500Y-89312500D03*
D20*
X191962500Y-140912500D03*
X192762500Y-140912500D03*
D21*
X193912500Y-140912500D03*
X194912500Y-140912500D03*
X195412500Y-140912500D03*
X196412500Y-140912500D03*
D20*
X198362500Y-140912500D03*
X197562500Y-140912500D03*
D21*
X196912500Y-140912500D03*
X195912500Y-140912500D03*
X194412500Y-140912500D03*
X193412500Y-140912500D03*
D22*
X107400000Y-124262500D03*
X105825000Y-124262500D03*
D23*
X186710902Y-96432500D03*
X186710902Y-97392500D03*
D24*
X137545187Y-135807266D03*
X137545187Y-136757266D03*
X137545187Y-137707266D03*
X139945187Y-137707266D03*
X139945187Y-136757266D03*
X139945187Y-135807266D03*
D25*
X228012500Y-124692500D03*
X229032500Y-124692500D03*
D26*
X154438750Y-99425000D03*
X153478750Y-99425000D03*
D20*
X140962500Y-140912500D03*
X141762500Y-140912500D03*
D21*
X142912500Y-140912500D03*
X143912500Y-140912500D03*
X144412500Y-140912500D03*
X145412500Y-140912500D03*
D20*
X147362500Y-140912500D03*
X146562500Y-140912500D03*
D21*
X145912500Y-140912500D03*
X144912500Y-140912500D03*
X143412500Y-140912500D03*
X142412500Y-140912500D03*
D27*
X231925000Y-124092500D03*
X233500000Y-124092500D03*
D28*
X139612500Y-59162500D03*
D29*
X179512500Y-119517500D03*
X179512500Y-123617500D03*
D30*
X177512500Y-124867500D03*
X177512500Y-118267500D03*
D31*
X171425000Y-104262500D03*
X171425000Y-103062500D03*
D32*
X175200000Y-105412500D03*
X175200000Y-101912500D03*
D33*
X151845187Y-103117266D03*
X151845187Y-102157266D03*
D11*
X123345187Y-146407266D03*
D17*
X160812500Y-84162500D03*
X160812500Y-87162500D03*
D18*
X159062500Y-87912500D03*
X159062500Y-84912500D03*
X159062500Y-83412500D03*
D19*
X159762500Y-89312500D03*
X161862500Y-89312500D03*
X161862500Y-82012500D03*
X159762500Y-82012500D03*
D25*
X231912500Y-125292500D03*
X232932500Y-125292500D03*
D13*
X107412500Y-123062500D03*
X106392500Y-123062500D03*
D34*
X151512500Y-97227500D03*
X151012500Y-97227500D03*
X150512500Y-97227500D03*
X150012500Y-97227500D03*
D14*
X149327500Y-97912500D03*
X149327500Y-98412500D03*
X149327500Y-98912500D03*
X149327500Y-99412500D03*
D34*
X150012500Y-100097500D03*
X150512500Y-100097500D03*
X151012500Y-100097500D03*
X151512500Y-100097500D03*
D14*
X152197500Y-99412500D03*
X152197500Y-98912500D03*
X152197500Y-98412500D03*
X152197500Y-97912500D03*
D16*
X150762500Y-98662500D03*
D35*
X159787500Y-123617500D03*
X159787500Y-119517500D03*
D36*
X161787500Y-118267500D03*
X161787500Y-124867500D03*
D13*
X111312500Y-123662500D03*
X110292500Y-123662500D03*
D22*
X111300000Y-124862500D03*
X109725000Y-124862500D03*
D37*
X153412500Y-97835000D03*
X153412500Y-96815000D03*
D38*
X201912500Y-135162500D03*
X200962500Y-135162500D03*
X200012500Y-135162500D03*
X200012500Y-137562500D03*
X200962500Y-137562500D03*
X201912500Y-137562500D03*
D28*
X111712500Y-59162500D03*
D13*
X188820902Y-92812500D03*
X187800902Y-92812500D03*
D39*
X111362500Y-116762500D03*
D40*
X113059556Y-115065444D03*
X111362500Y-119162500D03*
X109665444Y-118459556D03*
X109665444Y-115065444D03*
X113762500Y-116762500D03*
X111362500Y-114362500D03*
X113059556Y-118459556D03*
X108962500Y-116762500D03*
D31*
X167900000Y-103062500D03*
X167900000Y-104262500D03*
D32*
X164125000Y-101912500D03*
X164125000Y-105412500D03*
D41*
X230669168Y-145616754D03*
X229694411Y-142938630D03*
X232325550Y-141980974D03*
X233300308Y-144659098D03*
D42*
X238585041Y-146460234D03*
X238362728Y-145849434D03*
X238140415Y-145238634D03*
X237918102Y-144627834D03*
X237695789Y-144017034D03*
X237473476Y-143406233D03*
X237251163Y-142795433D03*
X237028849Y-142184633D03*
X236806536Y-141573833D03*
X236584223Y-140963032D03*
X236361910Y-140352232D03*
X236139597Y-139741432D03*
X235917284Y-139130632D03*
X235694971Y-138519832D03*
X235472658Y-137909031D03*
X235250345Y-137298231D03*
X235028032Y-136687431D03*
D43*
X234241730Y-135696608D03*
X233630930Y-135918921D03*
X233020129Y-136141235D03*
X232409330Y-136363547D03*
X231798530Y-136585860D03*
X231187729Y-136808173D03*
X230576929Y-137030487D03*
X229966129Y-137252800D03*
X229355329Y-137475113D03*
X228744529Y-137697426D03*
X228133728Y-137919739D03*
X227522928Y-138142052D03*
X226912128Y-138364365D03*
X226301328Y-138586678D03*
X225690528Y-138808991D03*
X225079727Y-139031304D03*
X224468927Y-139253617D03*
D42*
X224503474Y-140518057D03*
X224725787Y-141128857D03*
X224948100Y-141739657D03*
X225170414Y-142350457D03*
X225392727Y-142961257D03*
X225615040Y-143572058D03*
X225837353Y-144182858D03*
X226059666Y-144793658D03*
X226281979Y-145404458D03*
X226504292Y-146015259D03*
X226726605Y-146626059D03*
X226948918Y-147236859D03*
X227171232Y-147847660D03*
X227393544Y-148458459D03*
X227615858Y-149069260D03*
X227838171Y-149680060D03*
X228060484Y-150290860D03*
D11*
X231012500Y-131387500D03*
D40*
X150965444Y-109715444D03*
X150262500Y-111412500D03*
D39*
X152662500Y-111412500D03*
D40*
X150965444Y-113109556D03*
X152662500Y-113812500D03*
X155062500Y-111412500D03*
X154359556Y-109715444D03*
X154359556Y-113109556D03*
X152662500Y-109012500D03*
D44*
X100739959Y-146460234D03*
X100962272Y-145849434D03*
X101184585Y-145238634D03*
X101406898Y-144627834D03*
X101629211Y-144017034D03*
X101851524Y-143406233D03*
X102073837Y-142795433D03*
X102296151Y-142184633D03*
X102518464Y-141573833D03*
X102740777Y-140963032D03*
X102963090Y-140352232D03*
X103185403Y-139741432D03*
X103407716Y-139130632D03*
X103630029Y-138519832D03*
X103852342Y-137909031D03*
X104074655Y-137298231D03*
X104296968Y-136687431D03*
D45*
X105083270Y-135696608D03*
X105694070Y-135918921D03*
X106304870Y-136141234D03*
X106915670Y-136363547D03*
X107526470Y-136585860D03*
X108137271Y-136808173D03*
X108748071Y-137030487D03*
X109358871Y-137252800D03*
X109969671Y-137475113D03*
X110580471Y-137697426D03*
X111191272Y-137919739D03*
X111802072Y-138142052D03*
X112412872Y-138364365D03*
X113023672Y-138586678D03*
X113634471Y-138808991D03*
X114245273Y-139031304D03*
X114856073Y-139253617D03*
D44*
X114821526Y-140518057D03*
X114599213Y-141128857D03*
X114376900Y-141739657D03*
X114154586Y-142350457D03*
X113932273Y-142961257D03*
X113709960Y-143572058D03*
X113487647Y-144182858D03*
X113265334Y-144793658D03*
X113043021Y-145404458D03*
X112820708Y-146015259D03*
X112598395Y-146626059D03*
X112376082Y-147236859D03*
X112153769Y-147847659D03*
X111931456Y-148458459D03*
X111709142Y-149069260D03*
X111486829Y-149680060D03*
X111264516Y-150290860D03*
D46*
X108373924Y-145514148D03*
X109348681Y-142836024D03*
X106717542Y-141878368D03*
X105742784Y-144556492D03*
D40*
X144515444Y-74965444D03*
X147909556Y-78359556D03*
X146212500Y-74262500D03*
X143812500Y-76662500D03*
X144515444Y-78359556D03*
D39*
X146212500Y-76662500D03*
D40*
X147909556Y-74965444D03*
X148612500Y-76662500D03*
X146212500Y-79062500D03*
D37*
X154412500Y-97835000D03*
X154412500Y-96815000D03*
D11*
X125045187Y-146407266D03*
D27*
X228025000Y-123492500D03*
X229600000Y-123492500D03*
D11*
X229312500Y-131387500D03*
X126745187Y-146407266D03*
D26*
X149792500Y-95725000D03*
X148832500Y-95725000D03*
D40*
X97912500Y-142562500D03*
X95512500Y-140162500D03*
X95512500Y-144962500D03*
X93815444Y-144259556D03*
X97209556Y-144259556D03*
D39*
X95512500Y-142562500D03*
D40*
X93112500Y-142562500D03*
X93815444Y-140865444D03*
X97209556Y-140865444D03*
D26*
X194103168Y-94379813D03*
X193143168Y-94379813D03*
D11*
X128445187Y-146407266D03*
D40*
X119595187Y-75507266D03*
X117195187Y-73107266D03*
X117195187Y-77907266D03*
D39*
X117195187Y-75507266D03*
D40*
X115498131Y-73810210D03*
X118892243Y-77204322D03*
X115498131Y-77204322D03*
X118892243Y-73810210D03*
X114795187Y-75507266D03*
D13*
X188820902Y-91812500D03*
X187800902Y-91812500D03*
D23*
X190410902Y-91786250D03*
X190410902Y-92746250D03*
D47*
X161162500Y-109162500D03*
X161162500Y-98162500D03*
D48*
X161162500Y-103662500D03*
D47*
X201662500Y-116162500D03*
D48*
X201662500Y-121662500D03*
D47*
X201662500Y-127162500D03*
D49*
X205462500Y-116662500D03*
X207562500Y-121662500D03*
X207562500Y-121662500D03*
D28*
X199712500Y-59162500D03*
D47*
X154662500Y-116162500D03*
X154662500Y-127162500D03*
D48*
X154662500Y-121662500D03*
D47*
X101966005Y-128229908D03*
D48*
X100542500Y-133542500D03*
D47*
X99118995Y-138855092D03*
D49*
X95577887Y-137388617D03*
X94843538Y-132015468D03*
X94843538Y-132015468D03*
D47*
X230662500Y-73162500D03*
X230662500Y-62162500D03*
D48*
X230662500Y-67662500D03*
X184662500Y-121662500D03*
D47*
X184662500Y-116162500D03*
X184662500Y-127162500D03*
D49*
X188462500Y-116662500D03*
X190562500Y-121662500D03*
X190562500Y-121662500D03*
D47*
X196662500Y-55162500D03*
X196662500Y-44162500D03*
D48*
X196662500Y-49662500D03*
D47*
X195162500Y-109162500D03*
X195162500Y-98162500D03*
D48*
X195162500Y-103662500D03*
D49*
X198962500Y-98662500D03*
X201062500Y-103662500D03*
X201062500Y-103662500D03*
D48*
X142662500Y-67662500D03*
D47*
X142662500Y-73162500D03*
X142662500Y-62162500D03*
D49*
X138862500Y-72662500D03*
X136762500Y-67662500D03*
X136762500Y-67662500D03*
D48*
X184662500Y-121662500D03*
D47*
X184662500Y-127162500D03*
X184662500Y-116162500D03*
X108662500Y-62162500D03*
X108662500Y-73162500D03*
D48*
X108662500Y-67662500D03*
D47*
X220662500Y-134162500D03*
D48*
X220662500Y-139662500D03*
D47*
X220662500Y-145162500D03*
X236162500Y-119162500D03*
D48*
X236162500Y-113662500D03*
D47*
X236162500Y-108162500D03*
X218662500Y-127162500D03*
D48*
X218662500Y-121662500D03*
D47*
X218662500Y-116162500D03*
D49*
X222462500Y-116662500D03*
X224562500Y-121662500D03*
X224562500Y-121662500D03*
D40*
X189062500Y-111412500D03*
X186662500Y-109012500D03*
X184965444Y-109715444D03*
X186662500Y-113812500D03*
D39*
X186662500Y-111412500D03*
D40*
X188359556Y-109715444D03*
X184965444Y-113109556D03*
X184262500Y-111412500D03*
X188359556Y-113109556D03*
D47*
X203662500Y-145162500D03*
X203662500Y-134162500D03*
D48*
X203662500Y-139662500D03*
D49*
X207462500Y-134662500D03*
X209562500Y-139662500D03*
X209562500Y-139662500D03*
D48*
X230662500Y-67662500D03*
D47*
X230662500Y-62162500D03*
X230662500Y-73162500D03*
D49*
X234462500Y-62662500D03*
X236562500Y-67662500D03*
X236562500Y-67662500D03*
D47*
X201662500Y-80162500D03*
X201662500Y-91162500D03*
D48*
X201662500Y-85662500D03*
D49*
X205462500Y-80662500D03*
X207562500Y-85662500D03*
X207562500Y-85662500D03*
D48*
X152662500Y-139662500D03*
D47*
X152662500Y-134162500D03*
X152662500Y-145162500D03*
D48*
X108662500Y-67662500D03*
D47*
X108662500Y-62162500D03*
X108662500Y-73162500D03*
D49*
X104862500Y-72662500D03*
X102762500Y-67662500D03*
X102762500Y-67662500D03*
D47*
X92553589Y-151611284D03*
X102079869Y-157111284D03*
D48*
X97316729Y-154361284D03*
D47*
X154662500Y-127162500D03*
D48*
X154662500Y-121662500D03*
D47*
X154662500Y-116162500D03*
D49*
X150862500Y-126662500D03*
X148762500Y-121662500D03*
X148762500Y-121662500D03*
D47*
X142662500Y-62162500D03*
X142662500Y-73162500D03*
D48*
X142662500Y-67662500D03*
D47*
X237245131Y-157111284D03*
X246771411Y-151611284D03*
D48*
X242008271Y-154361284D03*
D47*
X201662500Y-91162500D03*
X201662500Y-80162500D03*
D48*
X201662500Y-85662500D03*
D47*
X203662500Y-134162500D03*
X203662500Y-145162500D03*
D48*
X203662500Y-139662500D03*
D47*
X161162500Y-98162500D03*
D48*
X161162500Y-103662500D03*
D47*
X161162500Y-109162500D03*
D49*
X157362500Y-108662500D03*
X155262500Y-103662500D03*
X155262500Y-103662500D03*
D47*
X230662500Y-44162500D03*
D48*
X230662500Y-49662500D03*
D47*
X230662500Y-55162500D03*
D49*
X234462500Y-44662500D03*
X236562500Y-49662500D03*
X236562500Y-49662500D03*
D48*
X236162500Y-113662500D03*
D47*
X236162500Y-119162500D03*
X236162500Y-108162500D03*
D49*
X239962500Y-108662500D03*
X242062500Y-113662500D03*
X242062500Y-113662500D03*
D47*
X135662500Y-134162500D03*
X135662500Y-145162500D03*
D48*
X135662500Y-139662500D03*
D49*
X131862500Y-144662500D03*
X129762500Y-139662500D03*
X129762500Y-139662500D03*
D48*
X125662500Y-49662500D03*
D47*
X125662500Y-44162500D03*
X125662500Y-55162500D03*
D49*
X121862500Y-54662500D03*
X119762500Y-49662500D03*
X119762500Y-49662500D03*
D47*
X103162500Y-119162500D03*
X103162500Y-108162500D03*
D48*
X103162500Y-113662500D03*
D47*
X118662500Y-145162500D03*
D48*
X118662500Y-139662500D03*
D47*
X118662500Y-134162500D03*
D49*
X122462500Y-134662500D03*
X124562500Y-139662500D03*
X124562500Y-139662500D03*
D47*
X125662500Y-73162500D03*
X125662500Y-62162500D03*
D48*
X125662500Y-67662500D03*
D49*
X121862500Y-72662500D03*
X119762500Y-67662500D03*
X119762500Y-67662500D03*
D48*
X212162500Y-103662500D03*
D47*
X212162500Y-109162500D03*
X212162500Y-98162500D03*
D48*
X213662500Y-49662500D03*
D47*
X213662500Y-55162500D03*
X213662500Y-44162500D03*
D49*
X217462500Y-44662500D03*
X219562500Y-49662500D03*
X219562500Y-49662500D03*
D48*
X100542500Y-133542500D03*
D47*
X101966005Y-128229908D03*
X99118995Y-138855092D03*
D40*
X230362500Y-116762500D03*
X229659556Y-115065444D03*
X227962500Y-119162500D03*
X229659556Y-118459556D03*
D39*
X227962500Y-116762500D03*
D40*
X226265444Y-118459556D03*
X225562500Y-116762500D03*
X227962500Y-114362500D03*
X226265444Y-115065444D03*
D47*
X108662500Y-55162500D03*
D48*
X108662500Y-49662500D03*
D47*
X108662500Y-44162500D03*
D49*
X104862500Y-54662500D03*
X102762500Y-49662500D03*
X102762500Y-49662500D03*
D47*
X230662500Y-44162500D03*
X230662500Y-55162500D03*
D48*
X230662500Y-49662500D03*
D47*
X178162500Y-98162500D03*
X178162500Y-109162500D03*
D48*
X178162500Y-103662500D03*
D47*
X120662500Y-116162500D03*
D48*
X120662500Y-121662500D03*
D47*
X120662500Y-127162500D03*
X137662500Y-80162500D03*
D48*
X137662500Y-85662500D03*
D47*
X137662500Y-91162500D03*
D49*
X133862500Y-90662500D03*
X131762500Y-85662500D03*
X131762500Y-85662500D03*
D48*
X118662500Y-139662500D03*
D47*
X118662500Y-145162500D03*
X118662500Y-134162500D03*
X142662500Y-55162500D03*
X142662500Y-44162500D03*
D48*
X142662500Y-49662500D03*
D49*
X138862500Y-54662500D03*
X136762500Y-49662500D03*
X136762500Y-49662500D03*
D28*
X227612500Y-59162500D03*
D47*
X152662500Y-134162500D03*
X152662500Y-145162500D03*
D48*
X152662500Y-139662500D03*
D49*
X156462500Y-134662500D03*
X158562500Y-139662500D03*
X158562500Y-139662500D03*
D48*
X144162500Y-103662500D03*
D47*
X144162500Y-109162500D03*
X144162500Y-98162500D03*
D49*
X140362500Y-108662500D03*
X138262500Y-103662500D03*
X138262500Y-103662500D03*
D47*
X137662500Y-116162500D03*
X137662500Y-127162500D03*
D48*
X137662500Y-121662500D03*
D47*
X212162500Y-98162500D03*
D48*
X212162500Y-103662500D03*
D47*
X212162500Y-109162500D03*
D49*
X215962500Y-98662500D03*
X218062500Y-103662500D03*
X218062500Y-103662500D03*
D48*
X218662500Y-121662500D03*
D47*
X218662500Y-116162500D03*
X218662500Y-127162500D03*
X195162500Y-109162500D03*
X195162500Y-98162500D03*
D48*
X195162500Y-103662500D03*
X220662500Y-139662500D03*
D47*
X220662500Y-145162500D03*
X220662500Y-134162500D03*
D49*
X216862500Y-144662500D03*
X214762500Y-139662500D03*
X214762500Y-139662500D03*
D47*
X135662500Y-145162500D03*
D48*
X135662500Y-139662500D03*
D47*
X135662500Y-134162500D03*
D48*
X154662500Y-85662500D03*
D47*
X154662500Y-91162500D03*
X154662500Y-80162500D03*
X142662500Y-44162500D03*
X142662500Y-55162500D03*
D48*
X142662500Y-49662500D03*
D47*
X184662500Y-91162500D03*
X184662500Y-80162500D03*
D48*
X184662500Y-85662500D03*
D49*
X188462500Y-80662500D03*
X190562500Y-85662500D03*
X190562500Y-85662500D03*
D47*
X102079869Y-157111284D03*
D48*
X97316729Y-154361284D03*
D47*
X92553589Y-151611284D03*
D49*
X99746856Y-160152181D03*
X94366729Y-159470834D03*
X94366729Y-159470834D03*
D39*
X193112500Y-76662500D03*
D40*
X193112500Y-74262500D03*
X190712500Y-76662500D03*
X193112500Y-79062500D03*
X194809556Y-74965444D03*
X191415444Y-74965444D03*
X191415444Y-78359556D03*
X194809556Y-78359556D03*
X195512500Y-76662500D03*
D47*
X240206005Y-138855092D03*
D48*
X238782500Y-133542500D03*
D47*
X237358995Y-128229908D03*
X144162500Y-109162500D03*
X144162500Y-98162500D03*
D48*
X144162500Y-103662500D03*
X137662500Y-85662500D03*
D47*
X137662500Y-80162500D03*
X137662500Y-91162500D03*
X213662500Y-62162500D03*
D48*
X213662500Y-67662500D03*
D47*
X213662500Y-73162500D03*
D49*
X217462500Y-62662500D03*
X219562500Y-67662500D03*
X219562500Y-67662500D03*
D48*
X154662500Y-85662500D03*
D47*
X154662500Y-80162500D03*
X154662500Y-91162500D03*
D49*
X150862500Y-90662500D03*
X148762500Y-85662500D03*
X148762500Y-85662500D03*
D47*
X196662500Y-44162500D03*
X196662500Y-55162500D03*
D48*
X196662500Y-49662500D03*
D49*
X200462500Y-44662500D03*
X202562500Y-49662500D03*
X202562500Y-49662500D03*
D47*
X196662500Y-73162500D03*
D48*
X196662500Y-67662500D03*
D47*
X196662500Y-62162500D03*
D48*
X186662500Y-139662500D03*
D47*
X186662500Y-145162500D03*
X186662500Y-134162500D03*
X127162500Y-109162500D03*
X127162500Y-98162500D03*
D48*
X127162500Y-103662500D03*
D49*
X123362500Y-108662500D03*
X121262500Y-103662500D03*
X121262500Y-103662500D03*
D47*
X213662500Y-73162500D03*
X213662500Y-62162500D03*
D48*
X213662500Y-67662500D03*
X103162500Y-113662500D03*
D47*
X103162500Y-108162500D03*
X103162500Y-119162500D03*
D49*
X99362500Y-118662500D03*
X97262500Y-113662500D03*
X97262500Y-113662500D03*
D47*
X120662500Y-91162500D03*
X120662500Y-80162500D03*
D48*
X120662500Y-85662500D03*
D49*
X116862500Y-90662500D03*
X114762500Y-85662500D03*
X114762500Y-85662500D03*
D48*
X218662500Y-85662500D03*
D47*
X218662500Y-91162500D03*
X218662500Y-80162500D03*
D49*
X222462500Y-80662500D03*
X224562500Y-85662500D03*
X224562500Y-85662500D03*
D48*
X120662500Y-121662500D03*
D47*
X120662500Y-127162500D03*
X120662500Y-116162500D03*
D49*
X116862500Y-126662500D03*
X114762500Y-121662500D03*
X114762500Y-121662500D03*
D47*
X120662500Y-80162500D03*
D48*
X120662500Y-85662500D03*
D47*
X120662500Y-91162500D03*
D48*
X186662500Y-139662500D03*
D47*
X186662500Y-134162500D03*
X186662500Y-145162500D03*
D49*
X182862500Y-144662500D03*
X180762500Y-139662500D03*
X180762500Y-139662500D03*
D48*
X201662500Y-121662500D03*
D47*
X201662500Y-127162500D03*
X201662500Y-116162500D03*
X108662500Y-55162500D03*
D48*
X108662500Y-49662500D03*
D47*
X108662500Y-44162500D03*
X125662500Y-55162500D03*
D48*
X125662500Y-49662500D03*
D47*
X125662500Y-44162500D03*
D40*
X223826869Y-77204322D03*
X222129813Y-73107266D03*
X220432757Y-77204322D03*
X222129813Y-77907266D03*
X224529813Y-75507266D03*
D39*
X222129813Y-75507266D03*
D40*
X219729813Y-75507266D03*
X220432757Y-73810210D03*
X223826869Y-73810210D03*
X242115444Y-144259556D03*
X245509556Y-144259556D03*
X241412500Y-142562500D03*
X243812500Y-140162500D03*
X246212500Y-142562500D03*
X242115444Y-140865444D03*
D39*
X243812500Y-142562500D03*
D40*
X245509556Y-140865444D03*
X243812500Y-144962500D03*
D48*
X218662500Y-85662500D03*
D47*
X218662500Y-80162500D03*
X218662500Y-91162500D03*
D48*
X127162500Y-103662500D03*
D47*
X127162500Y-98162500D03*
X127162500Y-109162500D03*
D48*
X238782500Y-133542500D03*
D47*
X237358995Y-128229908D03*
X240206005Y-138855092D03*
D49*
X241158923Y-127729358D03*
X244481462Y-132015468D03*
X244481462Y-132015468D03*
D47*
X178162500Y-109162500D03*
X178162500Y-98162500D03*
D48*
X178162500Y-103662500D03*
D49*
X181962500Y-98662500D03*
X184062500Y-103662500D03*
X184062500Y-103662500D03*
D48*
X213662500Y-49662500D03*
D47*
X213662500Y-44162500D03*
X213662500Y-55162500D03*
X125662500Y-62162500D03*
D48*
X125662500Y-67662500D03*
D47*
X125662500Y-73162500D03*
X196662500Y-73162500D03*
X196662500Y-62162500D03*
D48*
X196662500Y-67662500D03*
D49*
X200462500Y-62662500D03*
X202562500Y-67662500D03*
X202562500Y-67662500D03*
D48*
X242008271Y-154361284D03*
D47*
X246771411Y-151611284D03*
X237245131Y-157111284D03*
D49*
X248238398Y-155152181D03*
X244958271Y-159470834D03*
X244958271Y-159470834D03*
D48*
X184662500Y-85662500D03*
D47*
X184662500Y-91162500D03*
X184662500Y-80162500D03*
D48*
X137662500Y-121662500D03*
D47*
X137662500Y-127162500D03*
X137662500Y-116162500D03*
D49*
X133862500Y-126662500D03*
X131762500Y-121662500D03*
X131762500Y-121662500D03*
M02*
