G04 #@! TF.GenerationSoftware,KiCad,Pcbnew,(6.0.4-0)*
G04 #@! TF.CreationDate,2023-01-29T19:06:18-06:00*
G04 #@! TF.ProjectId,main,6d61696e-2e6b-4696-9361-645f70636258,0.2*
G04 #@! TF.SameCoordinates,Original*
G04 #@! TF.FileFunction,Soldermask,Bot*
G04 #@! TF.FilePolarity,Negative*
%FSLAX46Y46*%
G04 Gerber Fmt 4.6, Leading zero omitted, Abs format (unit mm)*
G04 Created by KiCad (PCBNEW (6.0.4-0)) date 2023-01-29 19:06:18*
%MOMM*%
%LPD*%
G01*
G04 APERTURE LIST*
%ADD10C,0.010000*%
%ADD11C,1.200000*%
%ADD12C,0.900000*%
%ADD13C,3.200000*%
%ADD14C,6.400000*%
%ADD15C,0.800000*%
%ADD16C,1.701800*%
%ADD17C,3.429000*%
%ADD18C,2.032000*%
G04 APERTURE END LIST*
G36*
X200845500Y-144865500D02*
G01*
X200907500Y-144875500D01*
X200967500Y-144891500D01*
X201026500Y-144914500D01*
X201082500Y-144942500D01*
X201135500Y-144977500D01*
X201183500Y-145016500D01*
X201228500Y-145061500D01*
X201267500Y-145109500D01*
X201302500Y-145162500D01*
X201330500Y-145218500D01*
X201353500Y-145277500D01*
X201369500Y-145337500D01*
X201379500Y-145399500D01*
X201382500Y-145462500D01*
X201382500Y-146662500D01*
X201379500Y-146725500D01*
X201369500Y-146787500D01*
X201353500Y-146847500D01*
X201330500Y-146906500D01*
X201302500Y-146962500D01*
X201267500Y-147015500D01*
X201228500Y-147063500D01*
X201183500Y-147108500D01*
X201135500Y-147147500D01*
X201082500Y-147182500D01*
X201026500Y-147210500D01*
X200967500Y-147233500D01*
X200907500Y-147249500D01*
X200845500Y-147259500D01*
X200782500Y-147262500D01*
X200719500Y-147259500D01*
X200657500Y-147249500D01*
X200597500Y-147233500D01*
X200538500Y-147210500D01*
X200482500Y-147182500D01*
X200429500Y-147147500D01*
X200381500Y-147108500D01*
X200336500Y-147063500D01*
X200297500Y-147015500D01*
X200262500Y-146962500D01*
X200234500Y-146906500D01*
X200211500Y-146847500D01*
X200195500Y-146787500D01*
X200185500Y-146725500D01*
X200182500Y-146662500D01*
X200182500Y-145462500D01*
X200185500Y-145399500D01*
X200195500Y-145337500D01*
X200211500Y-145277500D01*
X200234500Y-145218500D01*
X200262500Y-145162500D01*
X200297500Y-145109500D01*
X200336500Y-145061500D01*
X200381500Y-145016500D01*
X200429500Y-144977500D01*
X200482500Y-144942500D01*
X200538500Y-144914500D01*
X200597500Y-144891500D01*
X200657500Y-144875500D01*
X200719500Y-144865500D01*
X200782500Y-144862500D01*
X200845500Y-144865500D01*
G37*
D10*
X200845500Y-144865500D02*
X200907500Y-144875500D01*
X200967500Y-144891500D01*
X201026500Y-144914500D01*
X201082500Y-144942500D01*
X201135500Y-144977500D01*
X201183500Y-145016500D01*
X201228500Y-145061500D01*
X201267500Y-145109500D01*
X201302500Y-145162500D01*
X201330500Y-145218500D01*
X201353500Y-145277500D01*
X201369500Y-145337500D01*
X201379500Y-145399500D01*
X201382500Y-145462500D01*
X201382500Y-146662500D01*
X201379500Y-146725500D01*
X201369500Y-146787500D01*
X201353500Y-146847500D01*
X201330500Y-146906500D01*
X201302500Y-146962500D01*
X201267500Y-147015500D01*
X201228500Y-147063500D01*
X201183500Y-147108500D01*
X201135500Y-147147500D01*
X201082500Y-147182500D01*
X201026500Y-147210500D01*
X200967500Y-147233500D01*
X200907500Y-147249500D01*
X200845500Y-147259500D01*
X200782500Y-147262500D01*
X200719500Y-147259500D01*
X200657500Y-147249500D01*
X200597500Y-147233500D01*
X200538500Y-147210500D01*
X200482500Y-147182500D01*
X200429500Y-147147500D01*
X200381500Y-147108500D01*
X200336500Y-147063500D01*
X200297500Y-147015500D01*
X200262500Y-146962500D01*
X200234500Y-146906500D01*
X200211500Y-146847500D01*
X200195500Y-146787500D01*
X200185500Y-146725500D01*
X200182500Y-146662500D01*
X200182500Y-145462500D01*
X200185500Y-145399500D01*
X200195500Y-145337500D01*
X200211500Y-145277500D01*
X200234500Y-145218500D01*
X200262500Y-145162500D01*
X200297500Y-145109500D01*
X200336500Y-145061500D01*
X200381500Y-145016500D01*
X200429500Y-144977500D01*
X200482500Y-144942500D01*
X200538500Y-144914500D01*
X200597500Y-144891500D01*
X200657500Y-144875500D01*
X200719500Y-144865500D01*
X200782500Y-144862500D01*
X200845500Y-144865500D01*
G36*
X200845500Y-141065500D02*
G01*
X200907500Y-141075500D01*
X200967500Y-141091500D01*
X201026500Y-141114500D01*
X201082500Y-141142500D01*
X201135500Y-141177500D01*
X201183500Y-141216500D01*
X201228500Y-141261500D01*
X201267500Y-141309500D01*
X201302500Y-141362500D01*
X201330500Y-141418500D01*
X201353500Y-141477500D01*
X201369500Y-141537500D01*
X201379500Y-141599500D01*
X201382500Y-141662500D01*
X201382500Y-142462500D01*
X201379500Y-142525500D01*
X201369500Y-142587500D01*
X201353500Y-142647500D01*
X201330500Y-142706500D01*
X201302500Y-142762500D01*
X201267500Y-142815500D01*
X201228500Y-142863500D01*
X201183500Y-142908500D01*
X201135500Y-142947500D01*
X201082500Y-142982500D01*
X201026500Y-143010500D01*
X200967500Y-143033500D01*
X200907500Y-143049500D01*
X200845500Y-143059500D01*
X200782500Y-143062500D01*
X200719500Y-143059500D01*
X200657500Y-143049500D01*
X200597500Y-143033500D01*
X200538500Y-143010500D01*
X200482500Y-142982500D01*
X200429500Y-142947500D01*
X200381500Y-142908500D01*
X200336500Y-142863500D01*
X200297500Y-142815500D01*
X200262500Y-142762500D01*
X200234500Y-142706500D01*
X200211500Y-142647500D01*
X200195500Y-142587500D01*
X200185500Y-142525500D01*
X200182500Y-142462500D01*
X200182500Y-141662500D01*
X200185500Y-141599500D01*
X200195500Y-141537500D01*
X200211500Y-141477500D01*
X200234500Y-141418500D01*
X200262500Y-141362500D01*
X200297500Y-141309500D01*
X200336500Y-141261500D01*
X200381500Y-141216500D01*
X200429500Y-141177500D01*
X200482500Y-141142500D01*
X200538500Y-141114500D01*
X200597500Y-141091500D01*
X200657500Y-141075500D01*
X200719500Y-141065500D01*
X200782500Y-141062500D01*
X200845500Y-141065500D01*
G37*
X200845500Y-141065500D02*
X200907500Y-141075500D01*
X200967500Y-141091500D01*
X201026500Y-141114500D01*
X201082500Y-141142500D01*
X201135500Y-141177500D01*
X201183500Y-141216500D01*
X201228500Y-141261500D01*
X201267500Y-141309500D01*
X201302500Y-141362500D01*
X201330500Y-141418500D01*
X201353500Y-141477500D01*
X201369500Y-141537500D01*
X201379500Y-141599500D01*
X201382500Y-141662500D01*
X201382500Y-142462500D01*
X201379500Y-142525500D01*
X201369500Y-142587500D01*
X201353500Y-142647500D01*
X201330500Y-142706500D01*
X201302500Y-142762500D01*
X201267500Y-142815500D01*
X201228500Y-142863500D01*
X201183500Y-142908500D01*
X201135500Y-142947500D01*
X201082500Y-142982500D01*
X201026500Y-143010500D01*
X200967500Y-143033500D01*
X200907500Y-143049500D01*
X200845500Y-143059500D01*
X200782500Y-143062500D01*
X200719500Y-143059500D01*
X200657500Y-143049500D01*
X200597500Y-143033500D01*
X200538500Y-143010500D01*
X200482500Y-142982500D01*
X200429500Y-142947500D01*
X200381500Y-142908500D01*
X200336500Y-142863500D01*
X200297500Y-142815500D01*
X200262500Y-142762500D01*
X200234500Y-142706500D01*
X200211500Y-142647500D01*
X200195500Y-142587500D01*
X200185500Y-142525500D01*
X200182500Y-142462500D01*
X200182500Y-141662500D01*
X200185500Y-141599500D01*
X200195500Y-141537500D01*
X200211500Y-141477500D01*
X200234500Y-141418500D01*
X200262500Y-141362500D01*
X200297500Y-141309500D01*
X200336500Y-141261500D01*
X200381500Y-141216500D01*
X200429500Y-141177500D01*
X200482500Y-141142500D01*
X200538500Y-141114500D01*
X200597500Y-141091500D01*
X200657500Y-141075500D01*
X200719500Y-141065500D01*
X200782500Y-141062500D01*
X200845500Y-141065500D01*
G36*
X189605500Y-141065500D02*
G01*
X189667500Y-141075500D01*
X189727500Y-141091500D01*
X189786500Y-141114500D01*
X189842500Y-141142500D01*
X189895500Y-141177500D01*
X189943500Y-141216500D01*
X189988500Y-141261500D01*
X190027500Y-141309500D01*
X190062500Y-141362500D01*
X190090500Y-141418500D01*
X190113500Y-141477500D01*
X190129500Y-141537500D01*
X190139500Y-141599500D01*
X190142500Y-141662500D01*
X190142500Y-142462500D01*
X190139500Y-142525500D01*
X190129500Y-142587500D01*
X190113500Y-142647500D01*
X190090500Y-142706500D01*
X190062500Y-142762500D01*
X190027500Y-142815500D01*
X189988500Y-142863500D01*
X189943500Y-142908500D01*
X189895500Y-142947500D01*
X189842500Y-142982500D01*
X189786500Y-143010500D01*
X189727500Y-143033500D01*
X189667500Y-143049500D01*
X189605500Y-143059500D01*
X189542500Y-143062500D01*
X189479500Y-143059500D01*
X189417500Y-143049500D01*
X189357500Y-143033500D01*
X189298500Y-143010500D01*
X189242500Y-142982500D01*
X189189500Y-142947500D01*
X189141500Y-142908500D01*
X189096500Y-142863500D01*
X189057500Y-142815500D01*
X189022500Y-142762500D01*
X188994500Y-142706500D01*
X188971500Y-142647500D01*
X188955500Y-142587500D01*
X188945500Y-142525500D01*
X188942500Y-142462500D01*
X188942500Y-141662500D01*
X188945500Y-141599500D01*
X188955500Y-141537500D01*
X188971500Y-141477500D01*
X188994500Y-141418500D01*
X189022500Y-141362500D01*
X189057500Y-141309500D01*
X189096500Y-141261500D01*
X189141500Y-141216500D01*
X189189500Y-141177500D01*
X189242500Y-141142500D01*
X189298500Y-141114500D01*
X189357500Y-141091500D01*
X189417500Y-141075500D01*
X189479500Y-141065500D01*
X189542500Y-141062500D01*
X189605500Y-141065500D01*
G37*
X189605500Y-141065500D02*
X189667500Y-141075500D01*
X189727500Y-141091500D01*
X189786500Y-141114500D01*
X189842500Y-141142500D01*
X189895500Y-141177500D01*
X189943500Y-141216500D01*
X189988500Y-141261500D01*
X190027500Y-141309500D01*
X190062500Y-141362500D01*
X190090500Y-141418500D01*
X190113500Y-141477500D01*
X190129500Y-141537500D01*
X190139500Y-141599500D01*
X190142500Y-141662500D01*
X190142500Y-142462500D01*
X190139500Y-142525500D01*
X190129500Y-142587500D01*
X190113500Y-142647500D01*
X190090500Y-142706500D01*
X190062500Y-142762500D01*
X190027500Y-142815500D01*
X189988500Y-142863500D01*
X189943500Y-142908500D01*
X189895500Y-142947500D01*
X189842500Y-142982500D01*
X189786500Y-143010500D01*
X189727500Y-143033500D01*
X189667500Y-143049500D01*
X189605500Y-143059500D01*
X189542500Y-143062500D01*
X189479500Y-143059500D01*
X189417500Y-143049500D01*
X189357500Y-143033500D01*
X189298500Y-143010500D01*
X189242500Y-142982500D01*
X189189500Y-142947500D01*
X189141500Y-142908500D01*
X189096500Y-142863500D01*
X189057500Y-142815500D01*
X189022500Y-142762500D01*
X188994500Y-142706500D01*
X188971500Y-142647500D01*
X188955500Y-142587500D01*
X188945500Y-142525500D01*
X188942500Y-142462500D01*
X188942500Y-141662500D01*
X188945500Y-141599500D01*
X188955500Y-141537500D01*
X188971500Y-141477500D01*
X188994500Y-141418500D01*
X189022500Y-141362500D01*
X189057500Y-141309500D01*
X189096500Y-141261500D01*
X189141500Y-141216500D01*
X189189500Y-141177500D01*
X189242500Y-141142500D01*
X189298500Y-141114500D01*
X189357500Y-141091500D01*
X189417500Y-141075500D01*
X189479500Y-141065500D01*
X189542500Y-141062500D01*
X189605500Y-141065500D01*
G36*
X189605500Y-144865500D02*
G01*
X189667500Y-144875500D01*
X189727500Y-144891500D01*
X189786500Y-144914500D01*
X189842500Y-144942500D01*
X189895500Y-144977500D01*
X189943500Y-145016500D01*
X189988500Y-145061500D01*
X190027500Y-145109500D01*
X190062500Y-145162500D01*
X190090500Y-145218500D01*
X190113500Y-145277500D01*
X190129500Y-145337500D01*
X190139500Y-145399500D01*
X190142500Y-145462500D01*
X190142500Y-146662500D01*
X190139500Y-146725500D01*
X190129500Y-146787500D01*
X190113500Y-146847500D01*
X190090500Y-146906500D01*
X190062500Y-146962500D01*
X190027500Y-147015500D01*
X189988500Y-147063500D01*
X189943500Y-147108500D01*
X189895500Y-147147500D01*
X189842500Y-147182500D01*
X189786500Y-147210500D01*
X189727500Y-147233500D01*
X189667500Y-147249500D01*
X189605500Y-147259500D01*
X189542500Y-147262500D01*
X189479500Y-147259500D01*
X189417500Y-147249500D01*
X189357500Y-147233500D01*
X189298500Y-147210500D01*
X189242500Y-147182500D01*
X189189500Y-147147500D01*
X189141500Y-147108500D01*
X189096500Y-147063500D01*
X189057500Y-147015500D01*
X189022500Y-146962500D01*
X188994500Y-146906500D01*
X188971500Y-146847500D01*
X188955500Y-146787500D01*
X188945500Y-146725500D01*
X188942500Y-146662500D01*
X188942500Y-145462500D01*
X188945500Y-145399500D01*
X188955500Y-145337500D01*
X188971500Y-145277500D01*
X188994500Y-145218500D01*
X189022500Y-145162500D01*
X189057500Y-145109500D01*
X189096500Y-145061500D01*
X189141500Y-145016500D01*
X189189500Y-144977500D01*
X189242500Y-144942500D01*
X189298500Y-144914500D01*
X189357500Y-144891500D01*
X189417500Y-144875500D01*
X189479500Y-144865500D01*
X189542500Y-144862500D01*
X189605500Y-144865500D01*
G37*
X189605500Y-144865500D02*
X189667500Y-144875500D01*
X189727500Y-144891500D01*
X189786500Y-144914500D01*
X189842500Y-144942500D01*
X189895500Y-144977500D01*
X189943500Y-145016500D01*
X189988500Y-145061500D01*
X190027500Y-145109500D01*
X190062500Y-145162500D01*
X190090500Y-145218500D01*
X190113500Y-145277500D01*
X190129500Y-145337500D01*
X190139500Y-145399500D01*
X190142500Y-145462500D01*
X190142500Y-146662500D01*
X190139500Y-146725500D01*
X190129500Y-146787500D01*
X190113500Y-146847500D01*
X190090500Y-146906500D01*
X190062500Y-146962500D01*
X190027500Y-147015500D01*
X189988500Y-147063500D01*
X189943500Y-147108500D01*
X189895500Y-147147500D01*
X189842500Y-147182500D01*
X189786500Y-147210500D01*
X189727500Y-147233500D01*
X189667500Y-147249500D01*
X189605500Y-147259500D01*
X189542500Y-147262500D01*
X189479500Y-147259500D01*
X189417500Y-147249500D01*
X189357500Y-147233500D01*
X189298500Y-147210500D01*
X189242500Y-147182500D01*
X189189500Y-147147500D01*
X189141500Y-147108500D01*
X189096500Y-147063500D01*
X189057500Y-147015500D01*
X189022500Y-146962500D01*
X188994500Y-146906500D01*
X188971500Y-146847500D01*
X188955500Y-146787500D01*
X188945500Y-146725500D01*
X188942500Y-146662500D01*
X188942500Y-145462500D01*
X188945500Y-145399500D01*
X188955500Y-145337500D01*
X188971500Y-145277500D01*
X188994500Y-145218500D01*
X189022500Y-145162500D01*
X189057500Y-145109500D01*
X189096500Y-145061500D01*
X189141500Y-145016500D01*
X189189500Y-144977500D01*
X189242500Y-144942500D01*
X189298500Y-144914500D01*
X189357500Y-144891500D01*
X189417500Y-144875500D01*
X189479500Y-144865500D01*
X189542500Y-144862500D01*
X189605500Y-144865500D01*
G36*
X149845500Y-141065500D02*
G01*
X149907500Y-141075500D01*
X149967500Y-141091500D01*
X150026500Y-141114500D01*
X150082500Y-141142500D01*
X150135500Y-141177500D01*
X150183500Y-141216500D01*
X150228500Y-141261500D01*
X150267500Y-141309500D01*
X150302500Y-141362500D01*
X150330500Y-141418500D01*
X150353500Y-141477500D01*
X150369500Y-141537500D01*
X150379500Y-141599500D01*
X150382500Y-141662500D01*
X150382500Y-142462500D01*
X150379500Y-142525500D01*
X150369500Y-142587500D01*
X150353500Y-142647500D01*
X150330500Y-142706500D01*
X150302500Y-142762500D01*
X150267500Y-142815500D01*
X150228500Y-142863500D01*
X150183500Y-142908500D01*
X150135500Y-142947500D01*
X150082500Y-142982500D01*
X150026500Y-143010500D01*
X149967500Y-143033500D01*
X149907500Y-143049500D01*
X149845500Y-143059500D01*
X149782500Y-143062500D01*
X149719500Y-143059500D01*
X149657500Y-143049500D01*
X149597500Y-143033500D01*
X149538500Y-143010500D01*
X149482500Y-142982500D01*
X149429500Y-142947500D01*
X149381500Y-142908500D01*
X149336500Y-142863500D01*
X149297500Y-142815500D01*
X149262500Y-142762500D01*
X149234500Y-142706500D01*
X149211500Y-142647500D01*
X149195500Y-142587500D01*
X149185500Y-142525500D01*
X149182500Y-142462500D01*
X149182500Y-141662500D01*
X149185500Y-141599500D01*
X149195500Y-141537500D01*
X149211500Y-141477500D01*
X149234500Y-141418500D01*
X149262500Y-141362500D01*
X149297500Y-141309500D01*
X149336500Y-141261500D01*
X149381500Y-141216500D01*
X149429500Y-141177500D01*
X149482500Y-141142500D01*
X149538500Y-141114500D01*
X149597500Y-141091500D01*
X149657500Y-141075500D01*
X149719500Y-141065500D01*
X149782500Y-141062500D01*
X149845500Y-141065500D01*
G37*
X149845500Y-141065500D02*
X149907500Y-141075500D01*
X149967500Y-141091500D01*
X150026500Y-141114500D01*
X150082500Y-141142500D01*
X150135500Y-141177500D01*
X150183500Y-141216500D01*
X150228500Y-141261500D01*
X150267500Y-141309500D01*
X150302500Y-141362500D01*
X150330500Y-141418500D01*
X150353500Y-141477500D01*
X150369500Y-141537500D01*
X150379500Y-141599500D01*
X150382500Y-141662500D01*
X150382500Y-142462500D01*
X150379500Y-142525500D01*
X150369500Y-142587500D01*
X150353500Y-142647500D01*
X150330500Y-142706500D01*
X150302500Y-142762500D01*
X150267500Y-142815500D01*
X150228500Y-142863500D01*
X150183500Y-142908500D01*
X150135500Y-142947500D01*
X150082500Y-142982500D01*
X150026500Y-143010500D01*
X149967500Y-143033500D01*
X149907500Y-143049500D01*
X149845500Y-143059500D01*
X149782500Y-143062500D01*
X149719500Y-143059500D01*
X149657500Y-143049500D01*
X149597500Y-143033500D01*
X149538500Y-143010500D01*
X149482500Y-142982500D01*
X149429500Y-142947500D01*
X149381500Y-142908500D01*
X149336500Y-142863500D01*
X149297500Y-142815500D01*
X149262500Y-142762500D01*
X149234500Y-142706500D01*
X149211500Y-142647500D01*
X149195500Y-142587500D01*
X149185500Y-142525500D01*
X149182500Y-142462500D01*
X149182500Y-141662500D01*
X149185500Y-141599500D01*
X149195500Y-141537500D01*
X149211500Y-141477500D01*
X149234500Y-141418500D01*
X149262500Y-141362500D01*
X149297500Y-141309500D01*
X149336500Y-141261500D01*
X149381500Y-141216500D01*
X149429500Y-141177500D01*
X149482500Y-141142500D01*
X149538500Y-141114500D01*
X149597500Y-141091500D01*
X149657500Y-141075500D01*
X149719500Y-141065500D01*
X149782500Y-141062500D01*
X149845500Y-141065500D01*
G36*
X138605500Y-144865500D02*
G01*
X138667500Y-144875500D01*
X138727500Y-144891500D01*
X138786500Y-144914500D01*
X138842500Y-144942500D01*
X138895500Y-144977500D01*
X138943500Y-145016500D01*
X138988500Y-145061500D01*
X139027500Y-145109500D01*
X139062500Y-145162500D01*
X139090500Y-145218500D01*
X139113500Y-145277500D01*
X139129500Y-145337500D01*
X139139500Y-145399500D01*
X139142500Y-145462500D01*
X139142500Y-146662500D01*
X139139500Y-146725500D01*
X139129500Y-146787500D01*
X139113500Y-146847500D01*
X139090500Y-146906500D01*
X139062500Y-146962500D01*
X139027500Y-147015500D01*
X138988500Y-147063500D01*
X138943500Y-147108500D01*
X138895500Y-147147500D01*
X138842500Y-147182500D01*
X138786500Y-147210500D01*
X138727500Y-147233500D01*
X138667500Y-147249500D01*
X138605500Y-147259500D01*
X138542500Y-147262500D01*
X138479500Y-147259500D01*
X138417500Y-147249500D01*
X138357500Y-147233500D01*
X138298500Y-147210500D01*
X138242500Y-147182500D01*
X138189500Y-147147500D01*
X138141500Y-147108500D01*
X138096500Y-147063500D01*
X138057500Y-147015500D01*
X138022500Y-146962500D01*
X137994500Y-146906500D01*
X137971500Y-146847500D01*
X137955500Y-146787500D01*
X137945500Y-146725500D01*
X137942500Y-146662500D01*
X137942500Y-145462500D01*
X137945500Y-145399500D01*
X137955500Y-145337500D01*
X137971500Y-145277500D01*
X137994500Y-145218500D01*
X138022500Y-145162500D01*
X138057500Y-145109500D01*
X138096500Y-145061500D01*
X138141500Y-145016500D01*
X138189500Y-144977500D01*
X138242500Y-144942500D01*
X138298500Y-144914500D01*
X138357500Y-144891500D01*
X138417500Y-144875500D01*
X138479500Y-144865500D01*
X138542500Y-144862500D01*
X138605500Y-144865500D01*
G37*
X138605500Y-144865500D02*
X138667500Y-144875500D01*
X138727500Y-144891500D01*
X138786500Y-144914500D01*
X138842500Y-144942500D01*
X138895500Y-144977500D01*
X138943500Y-145016500D01*
X138988500Y-145061500D01*
X139027500Y-145109500D01*
X139062500Y-145162500D01*
X139090500Y-145218500D01*
X139113500Y-145277500D01*
X139129500Y-145337500D01*
X139139500Y-145399500D01*
X139142500Y-145462500D01*
X139142500Y-146662500D01*
X139139500Y-146725500D01*
X139129500Y-146787500D01*
X139113500Y-146847500D01*
X139090500Y-146906500D01*
X139062500Y-146962500D01*
X139027500Y-147015500D01*
X138988500Y-147063500D01*
X138943500Y-147108500D01*
X138895500Y-147147500D01*
X138842500Y-147182500D01*
X138786500Y-147210500D01*
X138727500Y-147233500D01*
X138667500Y-147249500D01*
X138605500Y-147259500D01*
X138542500Y-147262500D01*
X138479500Y-147259500D01*
X138417500Y-147249500D01*
X138357500Y-147233500D01*
X138298500Y-147210500D01*
X138242500Y-147182500D01*
X138189500Y-147147500D01*
X138141500Y-147108500D01*
X138096500Y-147063500D01*
X138057500Y-147015500D01*
X138022500Y-146962500D01*
X137994500Y-146906500D01*
X137971500Y-146847500D01*
X137955500Y-146787500D01*
X137945500Y-146725500D01*
X137942500Y-146662500D01*
X137942500Y-145462500D01*
X137945500Y-145399500D01*
X137955500Y-145337500D01*
X137971500Y-145277500D01*
X137994500Y-145218500D01*
X138022500Y-145162500D01*
X138057500Y-145109500D01*
X138096500Y-145061500D01*
X138141500Y-145016500D01*
X138189500Y-144977500D01*
X138242500Y-144942500D01*
X138298500Y-144914500D01*
X138357500Y-144891500D01*
X138417500Y-144875500D01*
X138479500Y-144865500D01*
X138542500Y-144862500D01*
X138605500Y-144865500D01*
G36*
X138605500Y-141065500D02*
G01*
X138667500Y-141075500D01*
X138727500Y-141091500D01*
X138786500Y-141114500D01*
X138842500Y-141142500D01*
X138895500Y-141177500D01*
X138943500Y-141216500D01*
X138988500Y-141261500D01*
X139027500Y-141309500D01*
X139062500Y-141362500D01*
X139090500Y-141418500D01*
X139113500Y-141477500D01*
X139129500Y-141537500D01*
X139139500Y-141599500D01*
X139142500Y-141662500D01*
X139142500Y-142462500D01*
X139139500Y-142525500D01*
X139129500Y-142587500D01*
X139113500Y-142647500D01*
X139090500Y-142706500D01*
X139062500Y-142762500D01*
X139027500Y-142815500D01*
X138988500Y-142863500D01*
X138943500Y-142908500D01*
X138895500Y-142947500D01*
X138842500Y-142982500D01*
X138786500Y-143010500D01*
X138727500Y-143033500D01*
X138667500Y-143049500D01*
X138605500Y-143059500D01*
X138542500Y-143062500D01*
X138479500Y-143059500D01*
X138417500Y-143049500D01*
X138357500Y-143033500D01*
X138298500Y-143010500D01*
X138242500Y-142982500D01*
X138189500Y-142947500D01*
X138141500Y-142908500D01*
X138096500Y-142863500D01*
X138057500Y-142815500D01*
X138022500Y-142762500D01*
X137994500Y-142706500D01*
X137971500Y-142647500D01*
X137955500Y-142587500D01*
X137945500Y-142525500D01*
X137942500Y-142462500D01*
X137942500Y-141662500D01*
X137945500Y-141599500D01*
X137955500Y-141537500D01*
X137971500Y-141477500D01*
X137994500Y-141418500D01*
X138022500Y-141362500D01*
X138057500Y-141309500D01*
X138096500Y-141261500D01*
X138141500Y-141216500D01*
X138189500Y-141177500D01*
X138242500Y-141142500D01*
X138298500Y-141114500D01*
X138357500Y-141091500D01*
X138417500Y-141075500D01*
X138479500Y-141065500D01*
X138542500Y-141062500D01*
X138605500Y-141065500D01*
G37*
X138605500Y-141065500D02*
X138667500Y-141075500D01*
X138727500Y-141091500D01*
X138786500Y-141114500D01*
X138842500Y-141142500D01*
X138895500Y-141177500D01*
X138943500Y-141216500D01*
X138988500Y-141261500D01*
X139027500Y-141309500D01*
X139062500Y-141362500D01*
X139090500Y-141418500D01*
X139113500Y-141477500D01*
X139129500Y-141537500D01*
X139139500Y-141599500D01*
X139142500Y-141662500D01*
X139142500Y-142462500D01*
X139139500Y-142525500D01*
X139129500Y-142587500D01*
X139113500Y-142647500D01*
X139090500Y-142706500D01*
X139062500Y-142762500D01*
X139027500Y-142815500D01*
X138988500Y-142863500D01*
X138943500Y-142908500D01*
X138895500Y-142947500D01*
X138842500Y-142982500D01*
X138786500Y-143010500D01*
X138727500Y-143033500D01*
X138667500Y-143049500D01*
X138605500Y-143059500D01*
X138542500Y-143062500D01*
X138479500Y-143059500D01*
X138417500Y-143049500D01*
X138357500Y-143033500D01*
X138298500Y-143010500D01*
X138242500Y-142982500D01*
X138189500Y-142947500D01*
X138141500Y-142908500D01*
X138096500Y-142863500D01*
X138057500Y-142815500D01*
X138022500Y-142762500D01*
X137994500Y-142706500D01*
X137971500Y-142647500D01*
X137955500Y-142587500D01*
X137945500Y-142525500D01*
X137942500Y-142462500D01*
X137942500Y-141662500D01*
X137945500Y-141599500D01*
X137955500Y-141537500D01*
X137971500Y-141477500D01*
X137994500Y-141418500D01*
X138022500Y-141362500D01*
X138057500Y-141309500D01*
X138096500Y-141261500D01*
X138141500Y-141216500D01*
X138189500Y-141177500D01*
X138242500Y-141142500D01*
X138298500Y-141114500D01*
X138357500Y-141091500D01*
X138417500Y-141075500D01*
X138479500Y-141065500D01*
X138542500Y-141062500D01*
X138605500Y-141065500D01*
G36*
X149845500Y-144865500D02*
G01*
X149907500Y-144875500D01*
X149967500Y-144891500D01*
X150026500Y-144914500D01*
X150082500Y-144942500D01*
X150135500Y-144977500D01*
X150183500Y-145016500D01*
X150228500Y-145061500D01*
X150267500Y-145109500D01*
X150302500Y-145162500D01*
X150330500Y-145218500D01*
X150353500Y-145277500D01*
X150369500Y-145337500D01*
X150379500Y-145399500D01*
X150382500Y-145462500D01*
X150382500Y-146662500D01*
X150379500Y-146725500D01*
X150369500Y-146787500D01*
X150353500Y-146847500D01*
X150330500Y-146906500D01*
X150302500Y-146962500D01*
X150267500Y-147015500D01*
X150228500Y-147063500D01*
X150183500Y-147108500D01*
X150135500Y-147147500D01*
X150082500Y-147182500D01*
X150026500Y-147210500D01*
X149967500Y-147233500D01*
X149907500Y-147249500D01*
X149845500Y-147259500D01*
X149782500Y-147262500D01*
X149719500Y-147259500D01*
X149657500Y-147249500D01*
X149597500Y-147233500D01*
X149538500Y-147210500D01*
X149482500Y-147182500D01*
X149429500Y-147147500D01*
X149381500Y-147108500D01*
X149336500Y-147063500D01*
X149297500Y-147015500D01*
X149262500Y-146962500D01*
X149234500Y-146906500D01*
X149211500Y-146847500D01*
X149195500Y-146787500D01*
X149185500Y-146725500D01*
X149182500Y-146662500D01*
X149182500Y-145462500D01*
X149185500Y-145399500D01*
X149195500Y-145337500D01*
X149211500Y-145277500D01*
X149234500Y-145218500D01*
X149262500Y-145162500D01*
X149297500Y-145109500D01*
X149336500Y-145061500D01*
X149381500Y-145016500D01*
X149429500Y-144977500D01*
X149482500Y-144942500D01*
X149538500Y-144914500D01*
X149597500Y-144891500D01*
X149657500Y-144875500D01*
X149719500Y-144865500D01*
X149782500Y-144862500D01*
X149845500Y-144865500D01*
G37*
X149845500Y-144865500D02*
X149907500Y-144875500D01*
X149967500Y-144891500D01*
X150026500Y-144914500D01*
X150082500Y-144942500D01*
X150135500Y-144977500D01*
X150183500Y-145016500D01*
X150228500Y-145061500D01*
X150267500Y-145109500D01*
X150302500Y-145162500D01*
X150330500Y-145218500D01*
X150353500Y-145277500D01*
X150369500Y-145337500D01*
X150379500Y-145399500D01*
X150382500Y-145462500D01*
X150382500Y-146662500D01*
X150379500Y-146725500D01*
X150369500Y-146787500D01*
X150353500Y-146847500D01*
X150330500Y-146906500D01*
X150302500Y-146962500D01*
X150267500Y-147015500D01*
X150228500Y-147063500D01*
X150183500Y-147108500D01*
X150135500Y-147147500D01*
X150082500Y-147182500D01*
X150026500Y-147210500D01*
X149967500Y-147233500D01*
X149907500Y-147249500D01*
X149845500Y-147259500D01*
X149782500Y-147262500D01*
X149719500Y-147259500D01*
X149657500Y-147249500D01*
X149597500Y-147233500D01*
X149538500Y-147210500D01*
X149482500Y-147182500D01*
X149429500Y-147147500D01*
X149381500Y-147108500D01*
X149336500Y-147063500D01*
X149297500Y-147015500D01*
X149262500Y-146962500D01*
X149234500Y-146906500D01*
X149211500Y-146847500D01*
X149195500Y-146787500D01*
X149185500Y-146725500D01*
X149182500Y-146662500D01*
X149182500Y-145462500D01*
X149185500Y-145399500D01*
X149195500Y-145337500D01*
X149211500Y-145277500D01*
X149234500Y-145218500D01*
X149262500Y-145162500D01*
X149297500Y-145109500D01*
X149336500Y-145061500D01*
X149381500Y-145016500D01*
X149429500Y-144977500D01*
X149482500Y-144942500D01*
X149538500Y-144914500D01*
X149597500Y-144891500D01*
X149657500Y-144875500D01*
X149719500Y-144865500D01*
X149782500Y-144862500D01*
X149845500Y-144865500D01*
D11*
X226400000Y-133700000D03*
X116700000Y-134850000D03*
X232712500Y-131387500D03*
X227612500Y-131387500D03*
D12*
X178514500Y-84162500D03*
X178514500Y-87162500D03*
D13*
X139612500Y-59162500D03*
D11*
X123345187Y-146407266D03*
D12*
X160812500Y-84162500D03*
X160812500Y-87162500D03*
D13*
X111712500Y-59162500D03*
D14*
X111362500Y-116762500D03*
D15*
X113059556Y-115065444D03*
X111362500Y-119162500D03*
X109665444Y-118459556D03*
X109665444Y-115065444D03*
X113762500Y-116762500D03*
X111362500Y-114362500D03*
X113059556Y-118459556D03*
X108962500Y-116762500D03*
D11*
X231012500Y-131387500D03*
D15*
X150965444Y-109715444D03*
X150262500Y-111412500D03*
D14*
X152662500Y-111412500D03*
D15*
X150965444Y-113109556D03*
X152662500Y-113812500D03*
X155062500Y-111412500D03*
X154359556Y-109715444D03*
X154359556Y-113109556D03*
X152662500Y-109012500D03*
X144515444Y-74965444D03*
X147909556Y-78359556D03*
X146212500Y-74262500D03*
X143812500Y-76662500D03*
X144515444Y-78359556D03*
D14*
X146212500Y-76662500D03*
D15*
X147909556Y-74965444D03*
X148612500Y-76662500D03*
X146212500Y-79062500D03*
D11*
X125045187Y-146407266D03*
X229312500Y-131387500D03*
X126745187Y-146407266D03*
D15*
X97912500Y-142562500D03*
X95512500Y-140162500D03*
X95512500Y-144962500D03*
X93815444Y-144259556D03*
X97209556Y-144259556D03*
D14*
X95512500Y-142562500D03*
D15*
X93112500Y-142562500D03*
X93815444Y-140865444D03*
X97209556Y-140865444D03*
D11*
X128445187Y-146407266D03*
D15*
X119595187Y-75507266D03*
X117195187Y-73107266D03*
X117195187Y-77907266D03*
D14*
X117195187Y-75507266D03*
D15*
X115498131Y-73810210D03*
X118892243Y-77204322D03*
X115498131Y-77204322D03*
X118892243Y-73810210D03*
X114795187Y-75507266D03*
D16*
X161162500Y-109162500D03*
X161162500Y-98162500D03*
D17*
X161162500Y-103662500D03*
D16*
X201662500Y-116162500D03*
D17*
X201662500Y-121662500D03*
D16*
X201662500Y-127162500D03*
D18*
X205462500Y-116662500D03*
X207562500Y-121662500D03*
X207562500Y-121662500D03*
D13*
X199712500Y-59162500D03*
D16*
X154662500Y-116162500D03*
X154662500Y-127162500D03*
D17*
X154662500Y-121662500D03*
D16*
X101966005Y-128229908D03*
D17*
X100542500Y-133542500D03*
D16*
X99118995Y-138855092D03*
D18*
X95577887Y-137388617D03*
X94843538Y-132015468D03*
X94843538Y-132015468D03*
D16*
X230662500Y-73162500D03*
X230662500Y-62162500D03*
D17*
X230662500Y-67662500D03*
X184662500Y-121662500D03*
D16*
X184662500Y-116162500D03*
X184662500Y-127162500D03*
D18*
X188462500Y-116662500D03*
X190562500Y-121662500D03*
X190562500Y-121662500D03*
D16*
X196662500Y-55162500D03*
X196662500Y-44162500D03*
D17*
X196662500Y-49662500D03*
D16*
X195162500Y-109162500D03*
X195162500Y-98162500D03*
D17*
X195162500Y-103662500D03*
D18*
X198962500Y-98662500D03*
X201062500Y-103662500D03*
X201062500Y-103662500D03*
D17*
X142662500Y-67662500D03*
D16*
X142662500Y-73162500D03*
X142662500Y-62162500D03*
D18*
X138862500Y-72662500D03*
X136762500Y-67662500D03*
X136762500Y-67662500D03*
D17*
X184662500Y-121662500D03*
D16*
X184662500Y-127162500D03*
X184662500Y-116162500D03*
X108662500Y-62162500D03*
X108662500Y-73162500D03*
D17*
X108662500Y-67662500D03*
D16*
X220662500Y-134162500D03*
D17*
X220662500Y-139662500D03*
D16*
X220662500Y-145162500D03*
X236162500Y-119162500D03*
D17*
X236162500Y-113662500D03*
D16*
X236162500Y-108162500D03*
X218662500Y-127162500D03*
D17*
X218662500Y-121662500D03*
D16*
X218662500Y-116162500D03*
D18*
X222462500Y-116662500D03*
X224562500Y-121662500D03*
X224562500Y-121662500D03*
D15*
X189062500Y-111412500D03*
X186662500Y-109012500D03*
X184965444Y-109715444D03*
X186662500Y-113812500D03*
D14*
X186662500Y-111412500D03*
D15*
X188359556Y-109715444D03*
X184965444Y-113109556D03*
X184262500Y-111412500D03*
X188359556Y-113109556D03*
D16*
X203662500Y-145162500D03*
X203662500Y-134162500D03*
D17*
X203662500Y-139662500D03*
D18*
X207462500Y-134662500D03*
X209562500Y-139662500D03*
X209562500Y-139662500D03*
D17*
X230662500Y-67662500D03*
D16*
X230662500Y-62162500D03*
X230662500Y-73162500D03*
D18*
X234462500Y-62662500D03*
X236562500Y-67662500D03*
X236562500Y-67662500D03*
D16*
X201662500Y-80162500D03*
X201662500Y-91162500D03*
D17*
X201662500Y-85662500D03*
D18*
X205462500Y-80662500D03*
X207562500Y-85662500D03*
X207562500Y-85662500D03*
D17*
X152662500Y-139662500D03*
D16*
X152662500Y-134162500D03*
X152662500Y-145162500D03*
D17*
X108662500Y-67662500D03*
D16*
X108662500Y-62162500D03*
X108662500Y-73162500D03*
D18*
X104862500Y-72662500D03*
X102762500Y-67662500D03*
X102762500Y-67662500D03*
D16*
X92553589Y-151611284D03*
X102079869Y-157111284D03*
D17*
X97316729Y-154361284D03*
D16*
X154662500Y-127162500D03*
D17*
X154662500Y-121662500D03*
D16*
X154662500Y-116162500D03*
D18*
X150862500Y-126662500D03*
X148762500Y-121662500D03*
X148762500Y-121662500D03*
D16*
X142662500Y-62162500D03*
X142662500Y-73162500D03*
D17*
X142662500Y-67662500D03*
D16*
X237245131Y-157111284D03*
X246771411Y-151611284D03*
D17*
X242008271Y-154361284D03*
D16*
X201662500Y-91162500D03*
X201662500Y-80162500D03*
D17*
X201662500Y-85662500D03*
D16*
X203662500Y-134162500D03*
X203662500Y-145162500D03*
D17*
X203662500Y-139662500D03*
D16*
X161162500Y-98162500D03*
D17*
X161162500Y-103662500D03*
D16*
X161162500Y-109162500D03*
D18*
X157362500Y-108662500D03*
X155262500Y-103662500D03*
X155262500Y-103662500D03*
D16*
X230662500Y-44162500D03*
D17*
X230662500Y-49662500D03*
D16*
X230662500Y-55162500D03*
D18*
X234462500Y-44662500D03*
X236562500Y-49662500D03*
X236562500Y-49662500D03*
D17*
X236162500Y-113662500D03*
D16*
X236162500Y-119162500D03*
X236162500Y-108162500D03*
D18*
X239962500Y-108662500D03*
X242062500Y-113662500D03*
X242062500Y-113662500D03*
D16*
X135662500Y-134162500D03*
X135662500Y-145162500D03*
D17*
X135662500Y-139662500D03*
D18*
X131862500Y-144662500D03*
X129762500Y-139662500D03*
X129762500Y-139662500D03*
D17*
X125662500Y-49662500D03*
D16*
X125662500Y-44162500D03*
X125662500Y-55162500D03*
D18*
X121862500Y-54662500D03*
X119762500Y-49662500D03*
X119762500Y-49662500D03*
D16*
X103162500Y-119162500D03*
X103162500Y-108162500D03*
D17*
X103162500Y-113662500D03*
D16*
X118662500Y-145162500D03*
D17*
X118662500Y-139662500D03*
D16*
X118662500Y-134162500D03*
D18*
X122462500Y-134662500D03*
X124562500Y-139662500D03*
X124562500Y-139662500D03*
D16*
X125662500Y-73162500D03*
X125662500Y-62162500D03*
D17*
X125662500Y-67662500D03*
D18*
X121862500Y-72662500D03*
X119762500Y-67662500D03*
X119762500Y-67662500D03*
D17*
X212162500Y-103662500D03*
D16*
X212162500Y-109162500D03*
X212162500Y-98162500D03*
D17*
X213662500Y-49662500D03*
D16*
X213662500Y-55162500D03*
X213662500Y-44162500D03*
D18*
X217462500Y-44662500D03*
X219562500Y-49662500D03*
X219562500Y-49662500D03*
D17*
X100542500Y-133542500D03*
D16*
X101966005Y-128229908D03*
X99118995Y-138855092D03*
D15*
X230362500Y-116762500D03*
X229659556Y-115065444D03*
X227962500Y-119162500D03*
X229659556Y-118459556D03*
D14*
X227962500Y-116762500D03*
D15*
X226265444Y-118459556D03*
X225562500Y-116762500D03*
X227962500Y-114362500D03*
X226265444Y-115065444D03*
D16*
X108662500Y-55162500D03*
D17*
X108662500Y-49662500D03*
D16*
X108662500Y-44162500D03*
D18*
X104862500Y-54662500D03*
X102762500Y-49662500D03*
X102762500Y-49662500D03*
D16*
X230662500Y-44162500D03*
X230662500Y-55162500D03*
D17*
X230662500Y-49662500D03*
D16*
X178162500Y-98162500D03*
X178162500Y-109162500D03*
D17*
X178162500Y-103662500D03*
D16*
X120662500Y-116162500D03*
D17*
X120662500Y-121662500D03*
D16*
X120662500Y-127162500D03*
X137662500Y-80162500D03*
D17*
X137662500Y-85662500D03*
D16*
X137662500Y-91162500D03*
D18*
X133862500Y-90662500D03*
X131762500Y-85662500D03*
X131762500Y-85662500D03*
D17*
X118662500Y-139662500D03*
D16*
X118662500Y-145162500D03*
X118662500Y-134162500D03*
X142662500Y-55162500D03*
X142662500Y-44162500D03*
D17*
X142662500Y-49662500D03*
D18*
X138862500Y-54662500D03*
X136762500Y-49662500D03*
X136762500Y-49662500D03*
D13*
X227612500Y-59162500D03*
D16*
X152662500Y-134162500D03*
X152662500Y-145162500D03*
D17*
X152662500Y-139662500D03*
D18*
X156462500Y-134662500D03*
X158562500Y-139662500D03*
X158562500Y-139662500D03*
D17*
X144162500Y-103662500D03*
D16*
X144162500Y-109162500D03*
X144162500Y-98162500D03*
D18*
X140362500Y-108662500D03*
X138262500Y-103662500D03*
X138262500Y-103662500D03*
D16*
X137662500Y-116162500D03*
X137662500Y-127162500D03*
D17*
X137662500Y-121662500D03*
D16*
X212162500Y-98162500D03*
D17*
X212162500Y-103662500D03*
D16*
X212162500Y-109162500D03*
D18*
X215962500Y-98662500D03*
X218062500Y-103662500D03*
X218062500Y-103662500D03*
D17*
X218662500Y-121662500D03*
D16*
X218662500Y-116162500D03*
X218662500Y-127162500D03*
X195162500Y-109162500D03*
X195162500Y-98162500D03*
D17*
X195162500Y-103662500D03*
X220662500Y-139662500D03*
D16*
X220662500Y-145162500D03*
X220662500Y-134162500D03*
D18*
X216862500Y-144662500D03*
X214762500Y-139662500D03*
X214762500Y-139662500D03*
D16*
X135662500Y-145162500D03*
D17*
X135662500Y-139662500D03*
D16*
X135662500Y-134162500D03*
D17*
X154662500Y-85662500D03*
D16*
X154662500Y-91162500D03*
X154662500Y-80162500D03*
X142662500Y-44162500D03*
X142662500Y-55162500D03*
D17*
X142662500Y-49662500D03*
D16*
X184662500Y-91162500D03*
X184662500Y-80162500D03*
D17*
X184662500Y-85662500D03*
D18*
X188462500Y-80662500D03*
X190562500Y-85662500D03*
X190562500Y-85662500D03*
D16*
X102079869Y-157111284D03*
D17*
X97316729Y-154361284D03*
D16*
X92553589Y-151611284D03*
D18*
X99746856Y-160152181D03*
X94366729Y-159470834D03*
X94366729Y-159470834D03*
D14*
X193112500Y-76662500D03*
D15*
X193112500Y-74262500D03*
X190712500Y-76662500D03*
X193112500Y-79062500D03*
X194809556Y-74965444D03*
X191415444Y-74965444D03*
X191415444Y-78359556D03*
X194809556Y-78359556D03*
X195512500Y-76662500D03*
D16*
X240206005Y-138855092D03*
D17*
X238782500Y-133542500D03*
D16*
X237358995Y-128229908D03*
X144162500Y-109162500D03*
X144162500Y-98162500D03*
D17*
X144162500Y-103662500D03*
X137662500Y-85662500D03*
D16*
X137662500Y-80162500D03*
X137662500Y-91162500D03*
X213662500Y-62162500D03*
D17*
X213662500Y-67662500D03*
D16*
X213662500Y-73162500D03*
D18*
X217462500Y-62662500D03*
X219562500Y-67662500D03*
X219562500Y-67662500D03*
D17*
X154662500Y-85662500D03*
D16*
X154662500Y-80162500D03*
X154662500Y-91162500D03*
D18*
X150862500Y-90662500D03*
X148762500Y-85662500D03*
X148762500Y-85662500D03*
D16*
X196662500Y-44162500D03*
X196662500Y-55162500D03*
D17*
X196662500Y-49662500D03*
D18*
X200462500Y-44662500D03*
X202562500Y-49662500D03*
X202562500Y-49662500D03*
D16*
X196662500Y-73162500D03*
D17*
X196662500Y-67662500D03*
D16*
X196662500Y-62162500D03*
D17*
X186662500Y-139662500D03*
D16*
X186662500Y-145162500D03*
X186662500Y-134162500D03*
X127162500Y-109162500D03*
X127162500Y-98162500D03*
D17*
X127162500Y-103662500D03*
D18*
X123362500Y-108662500D03*
X121262500Y-103662500D03*
X121262500Y-103662500D03*
D16*
X213662500Y-73162500D03*
X213662500Y-62162500D03*
D17*
X213662500Y-67662500D03*
X103162500Y-113662500D03*
D16*
X103162500Y-108162500D03*
X103162500Y-119162500D03*
D18*
X99362500Y-118662500D03*
X97262500Y-113662500D03*
X97262500Y-113662500D03*
D16*
X120662500Y-91162500D03*
X120662500Y-80162500D03*
D17*
X120662500Y-85662500D03*
D18*
X116862500Y-90662500D03*
X114762500Y-85662500D03*
X114762500Y-85662500D03*
D17*
X218662500Y-85662500D03*
D16*
X218662500Y-91162500D03*
X218662500Y-80162500D03*
D18*
X222462500Y-80662500D03*
X224562500Y-85662500D03*
X224562500Y-85662500D03*
D17*
X120662500Y-121662500D03*
D16*
X120662500Y-127162500D03*
X120662500Y-116162500D03*
D18*
X116862500Y-126662500D03*
X114762500Y-121662500D03*
X114762500Y-121662500D03*
D16*
X120662500Y-80162500D03*
D17*
X120662500Y-85662500D03*
D16*
X120662500Y-91162500D03*
D17*
X186662500Y-139662500D03*
D16*
X186662500Y-134162500D03*
X186662500Y-145162500D03*
D18*
X182862500Y-144662500D03*
X180762500Y-139662500D03*
X180762500Y-139662500D03*
D17*
X201662500Y-121662500D03*
D16*
X201662500Y-127162500D03*
X201662500Y-116162500D03*
X108662500Y-55162500D03*
D17*
X108662500Y-49662500D03*
D16*
X108662500Y-44162500D03*
X125662500Y-55162500D03*
D17*
X125662500Y-49662500D03*
D16*
X125662500Y-44162500D03*
D15*
X223826869Y-77204322D03*
X222129813Y-73107266D03*
X220432757Y-77204322D03*
X222129813Y-77907266D03*
X224529813Y-75507266D03*
D14*
X222129813Y-75507266D03*
D15*
X219729813Y-75507266D03*
X220432757Y-73810210D03*
X223826869Y-73810210D03*
X242115444Y-144259556D03*
X245509556Y-144259556D03*
X241412500Y-142562500D03*
X243812500Y-140162500D03*
X246212500Y-142562500D03*
X242115444Y-140865444D03*
D14*
X243812500Y-142562500D03*
D15*
X245509556Y-140865444D03*
X243812500Y-144962500D03*
D17*
X218662500Y-85662500D03*
D16*
X218662500Y-80162500D03*
X218662500Y-91162500D03*
D17*
X127162500Y-103662500D03*
D16*
X127162500Y-98162500D03*
X127162500Y-109162500D03*
D17*
X238782500Y-133542500D03*
D16*
X237358995Y-128229908D03*
X240206005Y-138855092D03*
D18*
X241158923Y-127729358D03*
X244481462Y-132015468D03*
X244481462Y-132015468D03*
D16*
X178162500Y-109162500D03*
X178162500Y-98162500D03*
D17*
X178162500Y-103662500D03*
D18*
X181962500Y-98662500D03*
X184062500Y-103662500D03*
X184062500Y-103662500D03*
D17*
X213662500Y-49662500D03*
D16*
X213662500Y-44162500D03*
X213662500Y-55162500D03*
X125662500Y-62162500D03*
D17*
X125662500Y-67662500D03*
D16*
X125662500Y-73162500D03*
X196662500Y-73162500D03*
X196662500Y-62162500D03*
D17*
X196662500Y-67662500D03*
D18*
X200462500Y-62662500D03*
X202562500Y-67662500D03*
X202562500Y-67662500D03*
D17*
X242008271Y-154361284D03*
D16*
X246771411Y-151611284D03*
X237245131Y-157111284D03*
D18*
X248238398Y-155152181D03*
X244958271Y-159470834D03*
X244958271Y-159470834D03*
D17*
X184662500Y-85662500D03*
D16*
X184662500Y-91162500D03*
X184662500Y-80162500D03*
D17*
X137662500Y-121662500D03*
D16*
X137662500Y-127162500D03*
X137662500Y-116162500D03*
D18*
X133862500Y-126662500D03*
X131762500Y-121662500D03*
X131762500Y-121662500D03*
M02*
