G04 #@! TF.GenerationSoftware,KiCad,Pcbnew,(6.0.4-0)*
G04 #@! TF.CreationDate,2023-01-29T19:06:18-06:00*
G04 #@! TF.ProjectId,main,6d61696e-2e6b-4696-9361-645f70636258,0.2*
G04 #@! TF.SameCoordinates,Original*
G04 #@! TF.FileFunction,Profile,NP*
%FSLAX46Y46*%
G04 Gerber Fmt 4.6, Leading zero omitted, Abs format (unit mm)*
G04 Created by KiCad (PCBNEW (6.0.4-0)) date 2023-01-29 19:06:18*
%MOMM*%
%LPD*%
G01*
G04 APERTURE LIST*
G04 #@! TA.AperFunction,Profile*
%ADD10C,0.150000*%
G04 #@! TD*
G04 #@! TA.AperFunction,Profile*
%ADD11C,0.010000*%
G04 #@! TD*
G04 APERTURE END LIST*
D10*
X185662500Y-75162500D02*
G75*
G03*
X186662500Y-74162500I100J999900D01*
G01*
X100662500Y-75162500D02*
G75*
G03*
X101662500Y-76162500I1000000J0D01*
G01*
X164662500Y-92162500D02*
G75*
G03*
X165662500Y-93162500I1000000J0D01*
G01*
X188662507Y-57662393D02*
G75*
G03*
X189662500Y-58662393I999993J-7D01*
G01*
X106649506Y-59662500D02*
G75*
G03*
X106649506Y-58662500I12794J500000D01*
G01*
X185662500Y-41162500D02*
X153662500Y-41162500D01*
X238662500Y-43675494D02*
X240162500Y-43675494D01*
X110662500Y-79162500D02*
G75*
G03*
X109662500Y-78162500I-1000000J0D01*
G01*
X112662500Y-77162500D02*
G75*
G03*
X111662500Y-76162500I-1000000J0D01*
G01*
X110662500Y-92162500D02*
X110662500Y-102162000D01*
X244162500Y-116162500D02*
X244162500Y-114649506D01*
X188662500Y-63112994D02*
X188662500Y-60662607D01*
X98662500Y-46162500D02*
X98662500Y-72162500D01*
X83400500Y-41162500D02*
G75*
G03*
X82400500Y-42162500I0J-1000000D01*
G01*
X178662500Y-131162500D02*
X178662500Y-143188488D01*
X244162500Y-112675494D02*
X244162500Y-106162500D01*
X170162500Y-105162500D02*
X170162500Y-111162500D01*
X254924980Y-147300011D02*
G75*
G03*
X256925000Y-146792893I935720J507111D01*
G01*
X99162500Y-43675494D02*
X100662500Y-43675494D01*
X189662500Y-41162500D02*
X237662500Y-41162500D01*
X168162500Y-95162500D02*
X163662500Y-95162500D01*
X174662470Y-89162499D02*
G75*
G03*
X175162500Y-89675494I500030J-12801D01*
G01*
X123009133Y-149662500D02*
X123009133Y-148162500D01*
X175162500Y-91649536D02*
G75*
G03*
X174662500Y-92162500I0J-500164D01*
G01*
X162662500Y-91649506D02*
X162662500Y-94162500D01*
X228662500Y-102162000D02*
X228662500Y-92162500D01*
X94162500Y-103162500D02*
G75*
G03*
X93162500Y-104162500I0J-1000000D01*
G01*
X163662500Y-112162500D02*
G75*
G03*
X162662500Y-113162500I0J-1000000D01*
G01*
X99162500Y-72675494D02*
X100662500Y-72675494D01*
X162662500Y-142675494D02*
X162662500Y-133162500D01*
X211649836Y-58662500D02*
X198675657Y-58662500D01*
X176662500Y-142675494D02*
X176662500Y-133162500D01*
X161662500Y-130162500D02*
G75*
G03*
X160662500Y-131162500I0J-1000000D01*
G01*
X225662500Y-94162500D02*
G75*
G03*
X226662500Y-93162500I100J999900D01*
G01*
X119162500Y-95162500D02*
X119162500Y-112162500D01*
X174662500Y-131162500D02*
X174662500Y-115162500D01*
X227662500Y-76162500D02*
G75*
G03*
X226662500Y-77162500I100J-1000100D01*
G01*
X164162500Y-91649506D02*
X162662500Y-91649506D01*
X93662500Y-114649536D02*
G75*
G03*
X93162500Y-115162500I0J-500164D01*
G01*
X101662500Y-59662600D02*
G75*
G03*
X100662500Y-60662607I-100J-999900D01*
G01*
X240662500Y-72162500D02*
X240662500Y-46162500D01*
X98662500Y-42162500D02*
X98662500Y-43162500D01*
X244162511Y-116162500D02*
G75*
G03*
X251742500Y-145242500I59001789J-148500D01*
G01*
X240662500Y-77162500D02*
X240662500Y-75162500D01*
X230649969Y-166450000D02*
G75*
G03*
X230475000Y-165875000I-1031969J100D01*
G01*
X160662500Y-143188488D02*
X160662500Y-131162500D01*
X176662500Y-91649506D02*
X176662500Y-94162500D01*
X82400023Y-146792893D02*
G75*
G03*
X84400000Y-147300000I1064277J-7D01*
G01*
X226662500Y-89675494D02*
X228162500Y-89675494D01*
X162162500Y-143188488D02*
X160662500Y-143188488D01*
X150662500Y-60662607D02*
X150662500Y-63112994D01*
X101662500Y-41162500D02*
G75*
G03*
X100662500Y-42162500I0J-1000000D01*
G01*
X176662476Y-142675493D02*
G75*
G03*
X177162500Y-143188488I500024J-12807D01*
G01*
X187162500Y-63112994D02*
X188662500Y-63112994D01*
X108849974Y-165874982D02*
G75*
G03*
X108675000Y-166450000I857026J-574918D01*
G01*
X194649999Y-59662500D02*
G75*
G03*
X194649999Y-58662500I12801J500000D01*
G01*
X173662500Y-93162500D02*
X165662500Y-93162500D01*
X178662500Y-131162500D02*
G75*
G03*
X177662500Y-130162500I-1000000J0D01*
G01*
X186662500Y-74162500D02*
X186662500Y-65600000D01*
X175662500Y-75162500D02*
G75*
G03*
X174662500Y-76162500I100J-1000100D01*
G01*
X99162500Y-45649506D02*
X100662500Y-45649506D01*
X115627513Y-148672500D02*
X105086161Y-166930099D01*
X237662500Y-58662400D02*
G75*
G03*
X238662500Y-57662393I-100J1000100D01*
G01*
X111162500Y-91649506D02*
X112662500Y-91649506D01*
X150662500Y-65087006D02*
X150662500Y-76162500D01*
X162662500Y-129162500D02*
X162662500Y-113162500D01*
X162662500Y-149162500D02*
X162662500Y-145675494D01*
X241662500Y-41162500D02*
X255924500Y-41162500D01*
X99162500Y-74649506D02*
X100662500Y-74649506D01*
X175162500Y-91649506D02*
X176662500Y-91649506D01*
X152662500Y-74162500D02*
G75*
G03*
X153662500Y-75162500I1000000J0D01*
G01*
X177162500Y-145162536D02*
G75*
G03*
X176662500Y-145675494I0J-500164D01*
G01*
X246162530Y-115162501D02*
G75*
G03*
X245662500Y-114649506I-500030J12801D01*
G01*
X101662500Y-76162500D02*
X111662500Y-76162500D01*
X246162500Y-112162500D02*
X246162500Y-104162500D01*
X124983145Y-148162500D02*
X139542500Y-148162499D01*
X122496139Y-150162500D02*
X118496139Y-150162500D01*
X220162500Y-112162500D02*
X220162500Y-95162500D01*
X110662500Y-79162500D02*
X110662500Y-89162500D01*
X186662470Y-62599999D02*
G75*
G03*
X187162500Y-63112994I500030J-12801D01*
G01*
X94162500Y-103162500D02*
X109662500Y-103162000D01*
X106649506Y-58662500D02*
X101662500Y-58662393D01*
X214341855Y-149662500D02*
X214341855Y-148162500D01*
X221162500Y-94162500D02*
G75*
G03*
X220162500Y-95162500I100J-1000100D01*
G01*
X228662500Y-102162000D02*
G75*
G03*
X229662500Y-103162000I1000000J0D01*
G01*
X85582500Y-145242500D02*
X84400000Y-147300000D01*
X152162500Y-65087006D02*
X150662500Y-65087006D01*
X229162500Y-105162500D02*
X243162500Y-105162500D01*
X240662500Y-43162500D02*
X240662500Y-42162500D01*
X124983135Y-149662500D02*
G75*
G03*
X125496139Y-150162500I500165J0D01*
G01*
X179662500Y-148162500D02*
X190542500Y-148162499D01*
X119162500Y-95162500D02*
G75*
G03*
X118162500Y-94162500I-1000000J0D01*
G01*
X220162500Y-112162500D02*
G75*
G03*
X221162500Y-113162500I1000000J0D01*
G01*
X228662530Y-92162501D02*
G75*
G03*
X228162500Y-91649506I-500030J12801D01*
G01*
X178662500Y-147162500D02*
G75*
G03*
X179662500Y-148162500I1000000J0D01*
G01*
X222828861Y-148162500D02*
X216315867Y-148162500D01*
X244162500Y-112675494D02*
X245662500Y-112675494D01*
X112662500Y-91649506D02*
X112662500Y-93162500D01*
X108675000Y-166450000D02*
G75*
G03*
X109675000Y-167450000I1000000J0D01*
G01*
X118162500Y-113162500D02*
G75*
G03*
X119162500Y-112162500I0J1000000D01*
G01*
X118162500Y-94162500D02*
X113662500Y-94162500D01*
X175162500Y-89675494D02*
X176662500Y-89675494D01*
X199782500Y-148162499D02*
X214341855Y-148162500D01*
X216315937Y-149662500D02*
G75*
G03*
X216828861Y-150162500I500163J0D01*
G01*
X164662500Y-76162500D02*
G75*
G03*
X163662500Y-75162500I-1000000J0D01*
G01*
X230475000Y-165875000D02*
X221697487Y-150672500D01*
X175662500Y-95162500D02*
G75*
G03*
X176662500Y-94162500I100J999900D01*
G01*
X162662536Y-145675495D02*
G75*
G03*
X162162500Y-145162500I-500036J12795D01*
G01*
X116496139Y-148162489D02*
G75*
G03*
X115627513Y-148672500I61J-994811D01*
G01*
X188662500Y-76162500D02*
X188662500Y-65087006D01*
X149662500Y-59662607D02*
X144675001Y-59662500D01*
X232675494Y-58662500D02*
G75*
G03*
X232675494Y-59662500I-12794J-500000D01*
G01*
X256924500Y-42162500D02*
G75*
G03*
X255924500Y-41162500I-1000000J0D01*
G01*
X213828861Y-150162490D02*
G75*
G03*
X214341855Y-149662500I12839J499990D01*
G01*
X238662493Y-60662607D02*
G75*
G03*
X237662500Y-59662607I-999893J107D01*
G01*
X152162500Y-63112994D02*
X150662500Y-63112994D01*
X164162500Y-89675494D02*
X162662500Y-89675494D01*
X239662500Y-78162500D02*
G75*
G03*
X240662500Y-77162500I0J1000000D01*
G01*
X98662500Y-75162500D02*
X98662500Y-77162500D01*
X161662500Y-130162500D02*
G75*
G03*
X162662500Y-129162500I0J1000000D01*
G01*
X140649343Y-58662500D02*
X127675164Y-58662500D01*
X228662500Y-89162500D02*
X228662500Y-79162500D01*
X234238839Y-166930099D02*
X223697487Y-148672500D01*
X123649506Y-59662500D02*
G75*
G03*
X123649506Y-58662500I12794J500000D01*
G01*
X176662500Y-133162500D02*
G75*
G03*
X175662500Y-132162500I-1000000J0D01*
G01*
X87582499Y-145242499D02*
G75*
G03*
X95162500Y-116162500I-51421169J28931359D01*
G01*
X215675494Y-58662500D02*
G75*
G03*
X215675494Y-59662500I-12794J-500000D01*
G01*
X162662500Y-89675494D02*
X162662500Y-78162500D01*
X238662500Y-72675494D02*
X240162500Y-72675494D01*
X174662500Y-115162500D02*
G75*
G03*
X173662500Y-114162500I-1000000J0D01*
G01*
X169162500Y-102162500D02*
X169162500Y-96162500D01*
X194649999Y-58662500D02*
X189662500Y-58662393D01*
X162162500Y-145162500D02*
X160662500Y-145162500D01*
X96162500Y-105162500D02*
X110162500Y-105162500D01*
X237662500Y-76162500D02*
G75*
G03*
X238662500Y-75162500I100J999900D01*
G01*
X123649506Y-59662500D02*
X110675164Y-59662500D01*
X238662500Y-45649506D02*
X240162500Y-45649506D01*
X229662500Y-103162000D02*
X245162500Y-103162500D01*
X238662500Y-75162500D02*
X238662500Y-74649506D01*
X188662500Y-57662393D02*
X188662500Y-42162500D01*
X211649836Y-59662500D02*
X198675657Y-59662500D01*
X164662500Y-89162500D02*
X164662500Y-76162500D01*
X170162500Y-102162500D02*
X170162500Y-96162500D01*
X176662500Y-113162500D02*
X176662500Y-129162500D01*
X185662500Y-75162500D02*
X175662500Y-75162500D01*
X98662470Y-43162499D02*
G75*
G03*
X99162500Y-43675494I500030J-12801D01*
G01*
X152162500Y-63112964D02*
G75*
G03*
X152662500Y-62600000I0J500164D01*
G01*
X159662500Y-148162500D02*
G75*
G03*
X160662500Y-147162500I0J1000000D01*
G01*
X123649506Y-58662500D02*
X110675164Y-58662500D01*
X256755525Y-153930099D02*
X251742500Y-145242500D01*
X93162500Y-104162500D02*
X93162500Y-112162500D01*
X149662500Y-58662393D02*
X144675001Y-58662500D01*
X111162500Y-89675494D02*
X112662500Y-89675494D01*
X187162500Y-65087006D02*
X188662500Y-65087006D01*
X100662500Y-74649506D02*
X100662500Y-75162500D01*
X246162500Y-104162500D02*
G75*
G03*
X245162500Y-103162500I-1000000J0D01*
G01*
X111162500Y-106162500D02*
G75*
G03*
X110162500Y-105162500I-1000000J0D01*
G01*
X152662500Y-42162500D02*
X152662500Y-62600000D01*
X186662500Y-42162500D02*
G75*
G03*
X185662500Y-41162500I-1000000J0D01*
G01*
X228649836Y-58662500D02*
X215675494Y-58662500D01*
X111162500Y-112162500D02*
X111162500Y-106162500D01*
X109675000Y-167450000D02*
X229650000Y-167450000D01*
X238662500Y-72675494D02*
X238662500Y-60662607D01*
X150662493Y-60662607D02*
G75*
G03*
X149662500Y-59662607I-1000093J-93D01*
G01*
X87582500Y-145242500D02*
X82569475Y-153930099D01*
X124983145Y-149662500D02*
X124983145Y-148162500D01*
X95162500Y-114649506D02*
X95162500Y-116162500D01*
X227162500Y-113162500D02*
G75*
G03*
X228162500Y-112162500I100J999900D01*
G01*
X211649836Y-59662500D02*
G75*
G03*
X211649836Y-58662500I12864J500000D01*
G01*
X256925000Y-146792893D02*
X256924500Y-42162500D01*
X187662500Y-77162500D02*
G75*
G03*
X188662500Y-76162500I100J999900D01*
G01*
X110662470Y-89162499D02*
G75*
G03*
X111162500Y-89675494I500030J-12801D01*
G01*
X125496139Y-150162500D02*
X161662500Y-150162500D01*
X164162500Y-89675464D02*
G75*
G03*
X164662500Y-89162500I0J500164D01*
G01*
X82935501Y-155296125D02*
X103714215Y-167294895D01*
X228162500Y-106162500D02*
X228162500Y-112162500D01*
X144675001Y-58662500D02*
G75*
G03*
X144675001Y-59662500I-12801J-500000D01*
G01*
X237662500Y-59662607D02*
X232675494Y-59662500D01*
X187662500Y-77162500D02*
X177662500Y-77162500D01*
X160662500Y-147162500D02*
X160662500Y-145162500D01*
X178662500Y-147162500D02*
X178662500Y-145162500D01*
X238662500Y-42162500D02*
G75*
G03*
X237662500Y-41162500I-1000000J0D01*
G01*
X229650000Y-167450000D02*
G75*
G03*
X230650000Y-166450000I0J1000000D01*
G01*
X98662500Y-42162500D02*
G75*
G03*
X97662500Y-41162500I-1000000J0D01*
G01*
X100662507Y-57662393D02*
G75*
G03*
X101662500Y-58662393I999993J-7D01*
G01*
X153662500Y-41162500D02*
G75*
G03*
X152662500Y-42162500I0J-1000000D01*
G01*
X112662500Y-93162500D02*
G75*
G03*
X113662500Y-94162500I1000000J0D01*
G01*
X163662500Y-112162500D02*
X168162500Y-112162500D01*
X189662500Y-59662600D02*
G75*
G03*
X188662500Y-60662607I200J-1000200D01*
G01*
X150662500Y-42162500D02*
G75*
G03*
X149662500Y-41162500I-1000000J0D01*
G01*
X235610785Y-167294895D02*
X256389499Y-155296125D01*
X152662530Y-65600001D02*
G75*
G03*
X152162500Y-65087006I-500030J12801D01*
G01*
X150662500Y-42162500D02*
X150662500Y-57662393D01*
X93162500Y-115162500D02*
X93162500Y-116162500D01*
X226662500Y-93162500D02*
X226662500Y-91649506D01*
X174662500Y-131162500D02*
G75*
G03*
X175662500Y-132162500I1000000J0D01*
G01*
X101662500Y-41162500D02*
X149662500Y-41162500D01*
X96162500Y-105162500D02*
G75*
G03*
X95162500Y-106162500I0J-1000000D01*
G01*
X244162500Y-106162500D02*
G75*
G03*
X243162500Y-105162500I-1000000J0D01*
G01*
X127675164Y-58662500D02*
G75*
G03*
X127675164Y-59662500I-12864J-500000D01*
G01*
X150662500Y-76162500D02*
G75*
G03*
X151662500Y-77162500I1000000J0D01*
G01*
X93662500Y-114649506D02*
X95162500Y-114649506D01*
X177162500Y-143188488D02*
X178662500Y-143188488D01*
X227162500Y-113162500D02*
X221162500Y-113162500D01*
X237662500Y-58662393D02*
X232675494Y-58662500D01*
X162662500Y-78162500D02*
G75*
G03*
X161662500Y-77162500I-1000000J0D01*
G01*
X240162500Y-43675564D02*
G75*
G03*
X240662500Y-43162500I-100J500264D01*
G01*
X98662470Y-72162499D02*
G75*
G03*
X99162500Y-72675494I500030J-12801D01*
G01*
X161662500Y-77162500D02*
X151662500Y-77162500D01*
X111162500Y-112162500D02*
G75*
G03*
X112162500Y-113162500I1000000J0D01*
G01*
X169162500Y-111162500D02*
X169162500Y-105162500D01*
X228162500Y-89675564D02*
G75*
G03*
X228662500Y-89162500I-100J500264D01*
G01*
X83400500Y-41162500D02*
X97662500Y-41162500D01*
X163662500Y-132162500D02*
G75*
G03*
X162662500Y-133162500I0J-1000000D01*
G01*
X99662500Y-78162500D02*
X109662500Y-78162500D01*
X123009133Y-148162500D02*
X116496139Y-148162500D01*
X238662500Y-43675494D02*
X238662500Y-42162500D01*
X238662500Y-57662393D02*
X238662500Y-45649506D01*
X234238854Y-166930090D02*
G75*
G03*
X235610785Y-167294895I867046J498590D01*
G01*
X173662500Y-93162500D02*
G75*
G03*
X174662500Y-92162500I100J999900D01*
G01*
X176662500Y-129162500D02*
G75*
G03*
X177662500Y-130162500I1000000J0D01*
G01*
X228649836Y-59662500D02*
X215675494Y-59662500D01*
X98662500Y-77162500D02*
G75*
G03*
X99662500Y-78162500I1000000J0D01*
G01*
X244162500Y-114649506D02*
X245662500Y-114649506D01*
X118162500Y-113162500D02*
X112162500Y-113162500D01*
X164662530Y-92162501D02*
G75*
G03*
X164162500Y-91649506I-500030J12801D01*
G01*
X103714239Y-167294855D02*
G75*
G03*
X105086161Y-166930099I504961J863155D01*
G01*
X187162500Y-65087036D02*
G75*
G03*
X186662500Y-65600000I0J-500164D01*
G01*
X169162500Y-96162500D02*
G75*
G03*
X168162500Y-95162500I-1000000J0D01*
G01*
X246162483Y-116162500D02*
G75*
G03*
X253742500Y-145242500I59001217J-148600D01*
G01*
X162162500Y-143188464D02*
G75*
G03*
X162662500Y-142675494I0J500164D01*
G01*
X256389481Y-155296095D02*
G75*
G03*
X256755525Y-153930099I-499881J865995D01*
G01*
X100662500Y-42162500D02*
X100662500Y-43675494D01*
X112662500Y-89675494D02*
X112662500Y-77162500D01*
X95162500Y-106162500D02*
X95162500Y-112675494D01*
X171162500Y-95162500D02*
G75*
G03*
X170162500Y-96162500I100J-1000100D01*
G01*
X176662500Y-113162500D02*
G75*
G03*
X175662500Y-112162500I-1000000J0D01*
G01*
X226662500Y-77162500D02*
X226662500Y-89675494D01*
X170162500Y-111162500D02*
G75*
G03*
X171162500Y-112162500I1000000J0D01*
G01*
X149662500Y-58662400D02*
G75*
G03*
X150662500Y-57662393I0J1000000D01*
G01*
X223697478Y-148672505D02*
G75*
G03*
X222828861Y-148162500I-868678J-484795D01*
G01*
X198675657Y-58662500D02*
G75*
G03*
X198675657Y-59662500I-12857J-500000D01*
G01*
X226662500Y-91649506D02*
X228162500Y-91649506D01*
X152662500Y-65600000D02*
X152662500Y-74162500D01*
X93662500Y-112675494D02*
X95162500Y-112675494D01*
X148782500Y-148162499D02*
X159662500Y-148162500D01*
X238662500Y-74649506D02*
X240162500Y-74649506D01*
X168162500Y-112162500D02*
G75*
G03*
X169162500Y-111162500I0J1000000D01*
G01*
X169162500Y-102162500D02*
G75*
G03*
X170162500Y-102162500I500000J-12829D01*
G01*
X227662500Y-76162500D02*
X237662500Y-76162500D01*
X229662500Y-78162500D02*
X239662500Y-78162500D01*
X174662500Y-76162500D02*
X174662500Y-89162500D01*
X189662500Y-41162500D02*
G75*
G03*
X188662500Y-42162500I0J-1000000D01*
G01*
X82400500Y-42162500D02*
X82400000Y-146792893D01*
X106649506Y-59662500D02*
X101662500Y-59662607D01*
X162662500Y-94162500D02*
G75*
G03*
X163662500Y-95162500I1000000J0D01*
G01*
X122496140Y-150162468D02*
G75*
G03*
X123009133Y-149662500I12860J499968D01*
G01*
X176662500Y-149162500D02*
X176662500Y-145675494D01*
X163662500Y-75162500D02*
X153662500Y-75162500D01*
X240662530Y-46162501D02*
G75*
G03*
X240162500Y-45649506I-500030J12801D01*
G01*
X241662500Y-41162500D02*
G75*
G03*
X240662500Y-42162500I0J-1000000D01*
G01*
X110675164Y-58662500D02*
G75*
G03*
X110675164Y-59662500I-12864J-500000D01*
G01*
X99162500Y-45649536D02*
G75*
G03*
X98662500Y-46162500I0J-500164D01*
G01*
X177662500Y-150162500D02*
X213828861Y-150162500D01*
X85582499Y-145242499D02*
G75*
G03*
X93162500Y-116162500I-51421169J28931359D01*
G01*
X229162500Y-105162500D02*
G75*
G03*
X228162500Y-106162500I100J-1000100D01*
G01*
X163662500Y-132162500D02*
G75*
G03*
X164662500Y-131162500I0J1000000D01*
G01*
X220828861Y-150162500D02*
X216828861Y-150162500D01*
X176662500Y-78162500D02*
X176662500Y-89675494D01*
X240662530Y-75162501D02*
G75*
G03*
X240162500Y-74649506I-500030J12801D01*
G01*
X246162500Y-116162500D02*
X246162500Y-115162500D01*
X173662500Y-114162500D02*
X165662500Y-114162500D01*
X186662500Y-62600000D02*
X186662500Y-42162500D01*
X225662500Y-94162500D02*
X221162500Y-94162500D01*
X240162500Y-72675564D02*
G75*
G03*
X240662500Y-72162500I-100J500264D01*
G01*
X109662500Y-103162000D02*
G75*
G03*
X110662500Y-102162000I0J1000000D01*
G01*
X82569499Y-153930113D02*
G75*
G03*
X82935501Y-155296125I865701J-500087D01*
G01*
X111162500Y-91649536D02*
G75*
G03*
X110662500Y-92162500I0J-500164D01*
G01*
X254925000Y-147300000D02*
X253742500Y-145242500D01*
X165662500Y-114162500D02*
G75*
G03*
X164662500Y-115162500I0J-1000000D01*
G01*
X140649343Y-59662500D02*
G75*
G03*
X140649343Y-58662500I12857J500000D01*
G01*
X170162500Y-105162500D02*
G75*
G03*
X169162500Y-105162500I-500000J12829D01*
G01*
X177662500Y-77162500D02*
G75*
G03*
X176662500Y-78162500I100J-1000100D01*
G01*
X99162500Y-74649536D02*
G75*
G03*
X98662500Y-75162500I0J-500164D01*
G01*
X171162500Y-112162500D02*
X175662500Y-112162500D01*
X245662500Y-112675564D02*
G75*
G03*
X246162500Y-112162500I-100J500264D01*
G01*
X175662500Y-95162500D02*
X171162500Y-95162500D01*
X221697478Y-150672505D02*
G75*
G03*
X220828861Y-150162500I-868678J-484795D01*
G01*
X177162500Y-145162500D02*
X178662500Y-145162500D01*
X118496139Y-150162489D02*
G75*
G03*
X117627513Y-150672500I61J-994811D01*
G01*
X117627513Y-150672500D02*
X108850000Y-165875000D01*
X100662500Y-60662607D02*
X100662500Y-72675494D01*
X229662500Y-78162500D02*
G75*
G03*
X228662500Y-79162500I0J-1000000D01*
G01*
X164662500Y-131162500D02*
X164662500Y-115162500D01*
X100662500Y-45649506D02*
X100662500Y-57662393D01*
X161662500Y-150162500D02*
G75*
G03*
X162662500Y-149162500I0J1000000D01*
G01*
X228649836Y-59662500D02*
G75*
G03*
X228649836Y-58662500I12864J500000D01*
G01*
X194649999Y-59662500D02*
X189662500Y-59662607D01*
X140649343Y-59662500D02*
X127675164Y-59662500D01*
X176662500Y-149162500D02*
G75*
G03*
X177662500Y-150162500I1000000J0D01*
G01*
X93162470Y-112162499D02*
G75*
G03*
X93662500Y-112675494I500030J-12801D01*
G01*
X216315867Y-149662500D02*
X216315867Y-148162500D01*
D11*
X140362120Y-141462499D02*
X147962880Y-141462499D01*
X148782500Y-148162499D02*
X148782500Y-141462499D01*
X139542500Y-148162499D02*
X139542500Y-141462499D01*
X140102309Y-141312499D02*
G75*
G03*
X140362120Y-141462499I259806J149997D01*
G01*
X148782500Y-141462498D02*
G75*
G03*
X148222690Y-141312499I-300001J-1D01*
G01*
X147962880Y-141462499D02*
G75*
G03*
X148222690Y-141312499I1J300002D01*
G01*
X140102308Y-141312499D02*
G75*
G03*
X139542500Y-141462499I-259808J-149999D01*
G01*
X190542500Y-148162499D02*
X190542500Y-141462499D01*
X199782500Y-148162499D02*
X199782500Y-141462499D01*
X198962880Y-141462499D02*
X191362120Y-141462499D01*
X191102310Y-141312499D02*
G75*
G03*
X191362120Y-141462499I259809J150002D01*
G01*
X198962880Y-141462499D02*
G75*
G03*
X199222691Y-141312499I5J299997D01*
G01*
X199782501Y-141462499D02*
G75*
G03*
X199222691Y-141312499I-300001J1D01*
G01*
X191102310Y-141312499D02*
G75*
G03*
X190542500Y-141462498I-259809J-150000D01*
G01*
M02*
