G04 #@! TF.GenerationSoftware,KiCad,Pcbnew,(6.0.4-0)*
G04 #@! TF.CreationDate,2022-11-13T14:27:22-06:00*
G04 #@! TF.ProjectId,main,6d61696e-2e6b-4696-9361-645f70636258,0.2*
G04 #@! TF.SameCoordinates,Original*
G04 #@! TF.FileFunction,Legend,Bot*
G04 #@! TF.FilePolarity,Positive*
%FSLAX46Y46*%
G04 Gerber Fmt 4.6, Leading zero omitted, Abs format (unit mm)*
G04 Created by KiCad (PCBNEW (6.0.4-0)) date 2022-11-13 14:27:22*
%MOMM*%
%LPD*%
G01*
G04 APERTURE LIST*
%ADD10C,0.150000*%
%ADD11C,0.010000*%
%ADD12C,3.429000*%
%ADD13C,1.701800*%
%ADD14C,2.032000*%
%ADD15C,1.200000*%
%ADD16C,0.900000*%
%ADD17C,3.200000*%
%ADD18C,6.400000*%
%ADD19C,0.800000*%
G04 APERTURE END LIST*
D10*
X190965833Y-140767022D02*
X190965833Y-141674165D01*
X191026309Y-141855594D01*
X191147261Y-141976546D01*
X191328690Y-142037022D01*
X191449642Y-142037022D01*
X189816785Y-141190356D02*
X189816785Y-142037022D01*
X190119166Y-140706546D02*
X190421547Y-141613689D01*
X189635357Y-141613689D01*
G36*
X146112062Y-50024585D02*
G01*
X146070966Y-50321664D01*
X146003232Y-50595857D01*
X145900584Y-50877802D01*
X145754746Y-51198136D01*
X145591617Y-51501511D01*
X145311234Y-51905330D01*
X144981886Y-52251822D01*
X144595681Y-52547706D01*
X144144724Y-52799702D01*
X143621122Y-53014529D01*
X143278474Y-53135424D01*
X126015084Y-53159349D01*
X125743492Y-53159724D01*
X124530524Y-53161346D01*
X123338854Y-53162861D01*
X122171428Y-53164266D01*
X121031191Y-53165559D01*
X119921089Y-53166741D01*
X118844068Y-53167809D01*
X117803073Y-53168762D01*
X116801050Y-53169599D01*
X115840945Y-53170318D01*
X114925702Y-53170918D01*
X114058268Y-53171398D01*
X113241588Y-53171757D01*
X112478609Y-53171992D01*
X111772274Y-53172104D01*
X111125531Y-53172090D01*
X110541325Y-53171948D01*
X110022601Y-53171679D01*
X109572304Y-53171280D01*
X109193382Y-53170750D01*
X108888778Y-53170088D01*
X108661439Y-53169292D01*
X108514311Y-53168361D01*
X108450339Y-53167294D01*
X107989125Y-53113113D01*
X107463188Y-52975605D01*
X106967213Y-52762592D01*
X106510930Y-52478384D01*
X106104068Y-52127294D01*
X106000936Y-52018336D01*
X105677875Y-51602395D01*
X105420851Y-51145969D01*
X105232607Y-50659918D01*
X105115885Y-50155099D01*
X105073428Y-49642369D01*
X105074485Y-49626780D01*
X105706541Y-49626780D01*
X105736156Y-50086623D01*
X105832644Y-50525943D01*
X106000426Y-50944749D01*
X106043733Y-51029003D01*
X106314456Y-51446474D01*
X106649936Y-51813706D01*
X107041206Y-52123379D01*
X107479301Y-52368171D01*
X107955254Y-52540763D01*
X107974181Y-52545516D01*
X108004891Y-52551685D01*
X108043511Y-52557494D01*
X108092562Y-52562954D01*
X108154568Y-52568078D01*
X108232051Y-52572876D01*
X108327533Y-52577362D01*
X108443536Y-52581546D01*
X108582582Y-52585442D01*
X108747195Y-52589061D01*
X108939897Y-52592415D01*
X109163208Y-52595515D01*
X109419653Y-52598374D01*
X109711753Y-52601004D01*
X110042031Y-52603417D01*
X110413009Y-52605624D01*
X110827209Y-52607638D01*
X111287153Y-52609470D01*
X111795364Y-52611132D01*
X112354365Y-52612637D01*
X112966677Y-52613997D01*
X113634823Y-52615222D01*
X114361325Y-52616326D01*
X115148706Y-52617319D01*
X115999488Y-52618215D01*
X116916192Y-52619025D01*
X117901342Y-52619760D01*
X118957460Y-52620434D01*
X120087068Y-52621057D01*
X121292688Y-52621642D01*
X122576844Y-52622201D01*
X123942056Y-52622745D01*
X125390847Y-52623287D01*
X125573678Y-52623351D01*
X126784205Y-52623681D01*
X127973623Y-52623834D01*
X129138978Y-52623816D01*
X130277315Y-52623631D01*
X131385680Y-52623285D01*
X132461119Y-52622781D01*
X133500678Y-52622126D01*
X134501402Y-52621323D01*
X135460337Y-52620377D01*
X136374530Y-52619294D01*
X137241026Y-52618077D01*
X138056870Y-52616733D01*
X138819109Y-52615265D01*
X139524788Y-52613679D01*
X140170954Y-52611979D01*
X140754651Y-52610170D01*
X141272926Y-52608257D01*
X141722825Y-52606245D01*
X142101393Y-52604138D01*
X142405676Y-52601942D01*
X142632720Y-52599661D01*
X142779570Y-52597300D01*
X142843274Y-52594864D01*
X143215383Y-52527382D01*
X143673895Y-52372836D01*
X144092973Y-52150050D01*
X144466967Y-51866210D01*
X144790223Y-51528503D01*
X145057089Y-51144115D01*
X145261915Y-50720231D01*
X145399048Y-50264040D01*
X145462836Y-49782726D01*
X145447627Y-49283475D01*
X145358903Y-48818041D01*
X145190282Y-48355745D01*
X144950048Y-47933630D01*
X144643168Y-47557720D01*
X144274610Y-47234037D01*
X143849341Y-46968604D01*
X143372329Y-46767443D01*
X143323810Y-46753098D01*
X143160187Y-46716327D01*
X142957302Y-46681336D01*
X142748091Y-46654104D01*
X142669289Y-46649937D01*
X142506779Y-46645907D01*
X142261795Y-46642170D01*
X141934134Y-46638726D01*
X141523596Y-46635575D01*
X141029980Y-46632717D01*
X140453082Y-46630151D01*
X139792703Y-46627877D01*
X139048640Y-46625895D01*
X138220692Y-46624204D01*
X137308658Y-46622803D01*
X136312337Y-46621693D01*
X135231525Y-46620873D01*
X134066023Y-46620343D01*
X132815629Y-46620102D01*
X131480141Y-46620151D01*
X130059357Y-46620487D01*
X128553077Y-46621113D01*
X126961098Y-46622026D01*
X125283220Y-46623226D01*
X124407481Y-46623915D01*
X123013675Y-46625036D01*
X121701923Y-46626133D01*
X120469696Y-46627219D01*
X119314464Y-46628307D01*
X118233697Y-46629411D01*
X117224863Y-46630543D01*
X116285434Y-46631716D01*
X115412879Y-46632945D01*
X114604668Y-46634240D01*
X113858270Y-46635617D01*
X113171155Y-46637087D01*
X112540794Y-46638665D01*
X111964656Y-46640362D01*
X111440210Y-46642192D01*
X110964927Y-46644169D01*
X110536277Y-46646304D01*
X110151729Y-46648612D01*
X109808753Y-46651105D01*
X109504819Y-46653797D01*
X109237397Y-46656701D01*
X109003956Y-46659829D01*
X108801966Y-46663194D01*
X108628898Y-46666811D01*
X108482220Y-46670691D01*
X108359404Y-46674848D01*
X108257918Y-46679295D01*
X108175232Y-46684046D01*
X108108817Y-46689112D01*
X108056142Y-46694508D01*
X108014676Y-46700246D01*
X107981890Y-46706339D01*
X107955254Y-46712801D01*
X107862456Y-46739657D01*
X107393007Y-46926502D01*
X106963111Y-47184162D01*
X106581737Y-47505315D01*
X106257852Y-47882639D01*
X106000426Y-48308811D01*
X105837802Y-48711094D01*
X105738627Y-49149250D01*
X105706541Y-49626780D01*
X105074485Y-49626780D01*
X105107980Y-49132587D01*
X105222283Y-48636611D01*
X105398109Y-48175939D01*
X105660488Y-47690677D01*
X105983070Y-47266885D01*
X106366233Y-46904154D01*
X106810354Y-46602075D01*
X107315808Y-46360240D01*
X107320517Y-46358371D01*
X107373012Y-46336420D01*
X107418837Y-46315710D01*
X107460500Y-46296208D01*
X107500507Y-46277879D01*
X107541367Y-46260688D01*
X107585586Y-46244601D01*
X107635671Y-46229583D01*
X107694131Y-46215601D01*
X107763473Y-46202619D01*
X107846203Y-46190602D01*
X107944829Y-46179518D01*
X108061859Y-46169330D01*
X108199799Y-46160005D01*
X108361158Y-46151508D01*
X108548442Y-46143805D01*
X108764159Y-46136861D01*
X109010817Y-46130642D01*
X109290922Y-46125112D01*
X109606981Y-46120239D01*
X109961503Y-46115987D01*
X110356995Y-46112321D01*
X110795963Y-46109208D01*
X111280916Y-46106612D01*
X111814360Y-46104500D01*
X112398803Y-46102837D01*
X113036752Y-46101588D01*
X113730715Y-46100719D01*
X114483199Y-46100195D01*
X115296711Y-46099982D01*
X116173759Y-46100046D01*
X117116850Y-46100352D01*
X118128491Y-46100865D01*
X119211190Y-46101551D01*
X120367453Y-46102376D01*
X121599789Y-46103305D01*
X122910705Y-46104304D01*
X124302708Y-46105337D01*
X125778305Y-46106372D01*
X143235423Y-46118136D01*
X143601356Y-46240323D01*
X143626082Y-46248649D01*
X144164185Y-46468930D01*
X144636174Y-46742881D01*
X145045072Y-47072926D01*
X145393902Y-47461486D01*
X145685685Y-47910985D01*
X145859704Y-48267067D01*
X146031110Y-48769442D01*
X146119785Y-49283486D01*
X146127156Y-49782726D01*
X146127671Y-49817577D01*
X146112062Y-50024585D01*
G37*
G36*
X234060025Y-50672998D02*
G01*
X233869320Y-51161357D01*
X233610284Y-51614479D01*
X233287958Y-52024508D01*
X232907382Y-52383588D01*
X232473595Y-52683860D01*
X231991640Y-52917468D01*
X231930864Y-52940156D01*
X231698566Y-53013845D01*
X231437307Y-53082079D01*
X231183373Y-53135980D01*
X230973051Y-53166670D01*
X230965858Y-53166992D01*
X230886392Y-53168013D01*
X230724155Y-53168899D01*
X230481726Y-53169650D01*
X230161686Y-53170269D01*
X229766617Y-53170758D01*
X229299100Y-53171118D01*
X228761714Y-53171352D01*
X228157043Y-53171462D01*
X227487665Y-53171448D01*
X226756163Y-53171314D01*
X225965117Y-53171061D01*
X225117108Y-53170691D01*
X224214717Y-53170205D01*
X223260525Y-53169607D01*
X222257113Y-53168897D01*
X221207062Y-53168078D01*
X220112953Y-53167151D01*
X218977367Y-53166118D01*
X217802884Y-53164982D01*
X216592086Y-53163743D01*
X215347554Y-53162405D01*
X214071869Y-53160969D01*
X212767611Y-53159436D01*
X211437361Y-53157809D01*
X210083701Y-53156090D01*
X208709212Y-53154280D01*
X207316473Y-53152382D01*
X205908067Y-53150397D01*
X204486575Y-53148327D01*
X203054576Y-53146174D01*
X196015762Y-53135424D01*
X195673114Y-53014529D01*
X195316656Y-52875571D01*
X194842212Y-52636791D01*
X194435167Y-52356378D01*
X194087627Y-52027611D01*
X193791699Y-51643770D01*
X193539491Y-51198136D01*
X193444361Y-50995194D01*
X193326027Y-50702065D01*
X193245800Y-50428510D01*
X193195405Y-50143894D01*
X193166566Y-49817577D01*
X193165303Y-49626780D01*
X193831444Y-49626780D01*
X193848417Y-49974642D01*
X193934066Y-50439409D01*
X194096190Y-50879041D01*
X194339497Y-51309125D01*
X194458760Y-51476122D01*
X194782853Y-51830265D01*
X195166403Y-52125713D01*
X195612288Y-52364468D01*
X196123390Y-52548529D01*
X196125919Y-52549239D01*
X196152643Y-52555005D01*
X196190983Y-52560442D01*
X196243420Y-52565561D01*
X196312438Y-52570374D01*
X196400520Y-52574890D01*
X196510148Y-52579121D01*
X196643806Y-52583077D01*
X196803976Y-52586769D01*
X196993141Y-52590207D01*
X197213784Y-52593403D01*
X197468389Y-52596366D01*
X197759437Y-52599108D01*
X198089412Y-52601639D01*
X198460796Y-52603970D01*
X198876073Y-52606111D01*
X199337726Y-52608074D01*
X199848237Y-52609868D01*
X200410089Y-52611506D01*
X201025765Y-52612996D01*
X201697748Y-52614350D01*
X202428521Y-52615579D01*
X203220567Y-52616694D01*
X204076368Y-52617704D01*
X204998409Y-52618621D01*
X205989170Y-52619455D01*
X207051136Y-52620217D01*
X208186789Y-52620918D01*
X209398612Y-52621568D01*
X210689089Y-52622178D01*
X212060701Y-52622759D01*
X213515932Y-52623321D01*
X213696479Y-52623386D01*
X214907181Y-52623719D01*
X216096836Y-52623867D01*
X217262488Y-52623837D01*
X218401179Y-52623632D01*
X219509952Y-52623258D01*
X220585850Y-52622721D01*
X221625916Y-52622024D01*
X222627193Y-52621174D01*
X223586724Y-52620175D01*
X224501552Y-52619033D01*
X225368720Y-52617752D01*
X226185271Y-52616337D01*
X226948247Y-52614794D01*
X227654692Y-52613127D01*
X228301649Y-52611342D01*
X228886161Y-52609444D01*
X229405270Y-52607438D01*
X229856020Y-52605329D01*
X230235454Y-52603121D01*
X230540614Y-52600821D01*
X230768543Y-52598432D01*
X230916285Y-52595961D01*
X230980882Y-52593412D01*
X231393727Y-52513863D01*
X231841512Y-52352129D01*
X232252409Y-52122955D01*
X232620285Y-51834146D01*
X232939006Y-51493504D01*
X233202440Y-51108833D01*
X233404451Y-50687936D01*
X233538908Y-50238616D01*
X233599676Y-49768677D01*
X233580622Y-49285922D01*
X233482249Y-48800979D01*
X233304231Y-48331956D01*
X233049904Y-47902565D01*
X232719866Y-47514032D01*
X232628432Y-47425859D01*
X232248980Y-47124797D01*
X231836370Y-46898559D01*
X231382029Y-46743147D01*
X230877387Y-46654562D01*
X230857405Y-46652985D01*
X230748939Y-46648771D01*
X230562676Y-46644850D01*
X230298178Y-46641219D01*
X229955009Y-46637879D01*
X229532730Y-46634828D01*
X229030905Y-46632066D01*
X228449098Y-46629591D01*
X227786870Y-46627404D01*
X227043785Y-46625503D01*
X226219407Y-46623888D01*
X225313297Y-46622557D01*
X224325019Y-46621510D01*
X223254137Y-46620747D01*
X222100212Y-46620265D01*
X220862808Y-46620066D01*
X219541487Y-46620147D01*
X218135814Y-46620508D01*
X216645351Y-46621149D01*
X215069660Y-46622068D01*
X213408305Y-46623265D01*
X211974120Y-46624410D01*
X210606053Y-46625553D01*
X209319136Y-46626693D01*
X208110881Y-46627842D01*
X206978796Y-46629010D01*
X205920392Y-46630210D01*
X204933180Y-46631454D01*
X204014668Y-46632754D01*
X203162367Y-46634121D01*
X202373787Y-46635566D01*
X201646439Y-46637103D01*
X200977831Y-46638742D01*
X200365474Y-46640495D01*
X199806878Y-46642374D01*
X199299554Y-46644392D01*
X198841010Y-46646559D01*
X198428758Y-46648887D01*
X198060306Y-46651389D01*
X197733166Y-46654076D01*
X197444846Y-46656959D01*
X197192858Y-46660051D01*
X196974711Y-46663364D01*
X196787915Y-46666908D01*
X196629980Y-46670697D01*
X196498417Y-46674741D01*
X196390734Y-46679052D01*
X196304443Y-46683643D01*
X196237053Y-46688525D01*
X196186074Y-46693710D01*
X196149016Y-46699209D01*
X196123390Y-46705035D01*
X195618153Y-46889735D01*
X195165030Y-47135879D01*
X194772060Y-47437711D01*
X194442728Y-47790792D01*
X194180517Y-48190680D01*
X193988910Y-48632934D01*
X193871391Y-49113115D01*
X193831444Y-49626780D01*
X193165303Y-49626780D01*
X193164027Y-49433942D01*
X193229380Y-48915017D01*
X193376907Y-48410157D01*
X193608552Y-47910985D01*
X193619993Y-47890321D01*
X193914172Y-47443499D01*
X194265529Y-47057511D01*
X194677084Y-46729934D01*
X195151860Y-46458346D01*
X195692881Y-46240323D01*
X196058813Y-46118136D01*
X213515932Y-46106372D01*
X213862991Y-46106139D01*
X215313119Y-46105195D01*
X216680190Y-46104359D01*
X217966676Y-46103640D01*
X219175051Y-46103045D01*
X220307788Y-46102582D01*
X221367358Y-46102259D01*
X222356236Y-46102084D01*
X223276894Y-46102064D01*
X224131806Y-46102207D01*
X224923443Y-46102521D01*
X225654279Y-46103014D01*
X226326788Y-46103693D01*
X226943441Y-46104567D01*
X227506713Y-46105642D01*
X228019075Y-46106928D01*
X228483000Y-46108431D01*
X228900963Y-46110160D01*
X229275435Y-46112122D01*
X229608890Y-46114325D01*
X229903800Y-46116777D01*
X230162639Y-46119486D01*
X230387879Y-46122459D01*
X230581994Y-46125704D01*
X230747456Y-46129229D01*
X230886738Y-46133041D01*
X231002313Y-46137150D01*
X231096655Y-46141561D01*
X231172235Y-46146284D01*
X231231528Y-46151326D01*
X231277005Y-46156694D01*
X231311140Y-46162397D01*
X231778604Y-46286340D01*
X232282967Y-46495884D01*
X232740248Y-46770274D01*
X233145386Y-47103765D01*
X233493321Y-47490607D01*
X233778991Y-47925055D01*
X233997336Y-48401359D01*
X234143295Y-48913774D01*
X234211806Y-49456550D01*
X234216284Y-49622000D01*
X234205618Y-49768677D01*
X234177360Y-50157260D01*
X234060025Y-50672998D01*
G37*
G36*
X146112062Y-68019839D02*
G01*
X146070966Y-68316918D01*
X146003232Y-68591111D01*
X145900584Y-68873056D01*
X145754746Y-69193390D01*
X145728516Y-69246479D01*
X145480233Y-69676113D01*
X145197793Y-70038308D01*
X144870313Y-70347261D01*
X144792362Y-70406462D01*
X144570314Y-70550814D01*
X144303453Y-70700879D01*
X144017753Y-70843354D01*
X143739187Y-70964935D01*
X143493729Y-71052320D01*
X143470561Y-71058527D01*
X143440678Y-71064686D01*
X143402626Y-71070495D01*
X143353892Y-71075966D01*
X143291962Y-71081114D01*
X143214322Y-71085955D01*
X143118459Y-71090502D01*
X143001857Y-71094770D01*
X142862003Y-71098773D01*
X142696384Y-71102526D01*
X142502484Y-71106043D01*
X142277790Y-71109339D01*
X142019789Y-71112429D01*
X141725966Y-71115326D01*
X141393806Y-71118046D01*
X141020797Y-71120602D01*
X140604424Y-71123009D01*
X140142174Y-71125282D01*
X139631531Y-71127436D01*
X139069983Y-71129484D01*
X138455014Y-71131441D01*
X137784112Y-71133321D01*
X137054762Y-71135140D01*
X136264451Y-71136911D01*
X135410664Y-71138649D01*
X134490886Y-71140369D01*
X133502606Y-71142085D01*
X132443307Y-71143811D01*
X131310477Y-71145562D01*
X130101601Y-71147353D01*
X128814165Y-71149197D01*
X127445656Y-71151110D01*
X125993559Y-71153106D01*
X125743815Y-71153445D01*
X124531014Y-71155039D01*
X123339363Y-71156518D01*
X122171813Y-71157880D01*
X121031317Y-71159125D01*
X119920828Y-71160252D01*
X118843297Y-71161259D01*
X117801677Y-71162145D01*
X116798921Y-71162910D01*
X115837980Y-71163553D01*
X114921808Y-71164072D01*
X114053356Y-71164466D01*
X113235578Y-71164735D01*
X112471425Y-71164878D01*
X111763849Y-71164893D01*
X111115804Y-71164779D01*
X110530241Y-71164536D01*
X110010114Y-71164162D01*
X109558373Y-71163657D01*
X109177972Y-71163019D01*
X108871863Y-71162247D01*
X108642999Y-71161341D01*
X108494332Y-71160299D01*
X108428813Y-71159120D01*
X108099480Y-71124551D01*
X107601070Y-71009791D01*
X107121971Y-70826430D01*
X106674140Y-70581381D01*
X106269531Y-70281558D01*
X105920101Y-69933873D01*
X105637804Y-69545241D01*
X105579468Y-69445492D01*
X105329307Y-68927474D01*
X105163730Y-68404018D01*
X105083103Y-67877283D01*
X105085936Y-67558124D01*
X115437464Y-67558124D01*
X115451340Y-67868196D01*
X115538677Y-68356346D01*
X115702057Y-68813949D01*
X115936663Y-69234314D01*
X116237679Y-69610755D01*
X116600287Y-69936581D01*
X117019672Y-70205106D01*
X117491017Y-70409641D01*
X117835423Y-70527967D01*
X130363220Y-70533084D01*
X131193714Y-70533383D01*
X132210594Y-70533641D01*
X133202888Y-70533772D01*
X134167179Y-70533782D01*
X135100049Y-70533672D01*
X135998080Y-70533448D01*
X136857855Y-70533111D01*
X137675956Y-70532666D01*
X138448966Y-70532116D01*
X139173468Y-70531465D01*
X139846043Y-70530716D01*
X140463274Y-70529873D01*
X141021745Y-70528939D01*
X141518036Y-70527918D01*
X141948730Y-70526812D01*
X142310411Y-70525627D01*
X142599660Y-70524364D01*
X142813061Y-70523028D01*
X142947194Y-70521623D01*
X142998644Y-70520151D01*
X143046095Y-70511083D01*
X143248360Y-70457804D01*
X143481899Y-70380127D01*
X143711880Y-70290347D01*
X143903469Y-70200760D01*
X144160950Y-70047360D01*
X144552462Y-69736428D01*
X144884595Y-69365280D01*
X145153345Y-68938713D01*
X145354710Y-68461526D01*
X145364536Y-68431696D01*
X145410596Y-68278595D01*
X145440831Y-68139676D01*
X145458381Y-67989884D01*
X145466386Y-67804163D01*
X145467983Y-67557458D01*
X145467968Y-67550520D01*
X145465068Y-67302378D01*
X145455578Y-67114609D01*
X145436369Y-66962153D01*
X145404311Y-66819951D01*
X145356276Y-66662945D01*
X145232710Y-66347581D01*
X144986074Y-65907010D01*
X144673046Y-65515824D01*
X144299872Y-65180280D01*
X143872799Y-64906637D01*
X143398072Y-64701151D01*
X143063220Y-64586950D01*
X130621525Y-64575122D01*
X129938738Y-64574451D01*
X128736109Y-64573176D01*
X127614989Y-64571925D01*
X126572395Y-64570768D01*
X125605342Y-64569775D01*
X124710847Y-64569019D01*
X123885925Y-64568568D01*
X123127592Y-64568495D01*
X122432864Y-64568870D01*
X121798757Y-64569764D01*
X121222286Y-64571248D01*
X120700468Y-64573392D01*
X120230319Y-64576268D01*
X119808854Y-64579945D01*
X119433089Y-64584496D01*
X119100040Y-64589991D01*
X118806723Y-64596500D01*
X118550153Y-64604095D01*
X118327348Y-64612846D01*
X118135322Y-64622823D01*
X117971091Y-64634099D01*
X117831672Y-64646744D01*
X117714080Y-64660828D01*
X117615331Y-64676422D01*
X117532441Y-64693598D01*
X117462425Y-64712425D01*
X117402301Y-64732975D01*
X117349082Y-64755319D01*
X117299786Y-64779528D01*
X117251429Y-64805671D01*
X117201025Y-64833821D01*
X117145592Y-64864047D01*
X117082144Y-64896421D01*
X116985951Y-64944471D01*
X116803482Y-65045789D01*
X116647726Y-65153099D01*
X116491402Y-65286451D01*
X116307229Y-65465891D01*
X116009217Y-65804116D01*
X115754353Y-66195024D01*
X115577065Y-66610545D01*
X115472915Y-67061353D01*
X115437464Y-67558124D01*
X105085936Y-67558124D01*
X105087788Y-67349427D01*
X105178152Y-66822609D01*
X105305297Y-66414147D01*
X105535912Y-65911130D01*
X105831921Y-65460431D01*
X106188767Y-65066191D01*
X106601899Y-64732548D01*
X107066761Y-64463642D01*
X107578799Y-64263611D01*
X108133459Y-64136595D01*
X108134354Y-64136460D01*
X108187963Y-64132062D01*
X108288620Y-64127942D01*
X108438022Y-64124095D01*
X108637869Y-64120519D01*
X108889857Y-64117209D01*
X109195684Y-64114163D01*
X109557050Y-64111377D01*
X109975651Y-64108847D01*
X110453186Y-64106570D01*
X110991352Y-64104543D01*
X111591848Y-64102761D01*
X112256372Y-64101223D01*
X112986622Y-64099923D01*
X113784295Y-64098858D01*
X114651089Y-64098026D01*
X115588704Y-64097423D01*
X116598835Y-64097044D01*
X117683183Y-64096888D01*
X118843444Y-64096950D01*
X120081316Y-64097226D01*
X121398498Y-64097714D01*
X122796688Y-64098409D01*
X124277583Y-64099309D01*
X125842881Y-64100410D01*
X143235423Y-64113390D01*
X143601356Y-64235578D01*
X143626082Y-64243903D01*
X144164185Y-64464184D01*
X144636174Y-64738135D01*
X145045072Y-65068180D01*
X145393902Y-65456741D01*
X145685685Y-65906239D01*
X145859704Y-66262321D01*
X146031110Y-66764697D01*
X146119785Y-67278741D01*
X146123900Y-67557458D01*
X146127671Y-67812831D01*
X146112062Y-68019839D01*
G37*
G36*
X234104997Y-68505960D02*
G01*
X233922971Y-69028529D01*
X233656432Y-69545241D01*
X233579903Y-69664982D01*
X233279079Y-70038204D01*
X232914227Y-70371357D01*
X232498238Y-70656467D01*
X232044005Y-70885558D01*
X231564420Y-71050654D01*
X231072375Y-71143781D01*
X231065870Y-71144257D01*
X230985071Y-71146319D01*
X230821770Y-71148288D01*
X230578906Y-71150160D01*
X230259419Y-71151933D01*
X229866247Y-71153604D01*
X229402329Y-71155169D01*
X228870605Y-71156625D01*
X228274013Y-71157969D01*
X227615494Y-71159197D01*
X226897985Y-71160308D01*
X226124426Y-71161297D01*
X225297756Y-71162161D01*
X224420915Y-71162898D01*
X223496840Y-71163504D01*
X222528473Y-71163975D01*
X221518750Y-71164310D01*
X220470613Y-71164504D01*
X219386999Y-71164555D01*
X218270847Y-71164459D01*
X217125098Y-71164213D01*
X215952690Y-71163815D01*
X214756562Y-71163260D01*
X213539653Y-71162546D01*
X212896352Y-71162129D01*
X211482507Y-71161204D01*
X210151121Y-71160312D01*
X208899658Y-71159438D01*
X207725583Y-71158568D01*
X206626360Y-71157688D01*
X205599452Y-71156785D01*
X204642324Y-71155843D01*
X203752440Y-71154850D01*
X202927264Y-71153790D01*
X202164260Y-71152649D01*
X201460891Y-71151415D01*
X200814623Y-71150071D01*
X200222919Y-71148605D01*
X199683244Y-71147003D01*
X199193060Y-71145249D01*
X198749833Y-71143331D01*
X198351027Y-71141233D01*
X197994105Y-71138942D01*
X197676531Y-71136444D01*
X197395771Y-71133725D01*
X197149287Y-71130770D01*
X196934543Y-71127566D01*
X196749005Y-71124098D01*
X196590136Y-71120352D01*
X196455400Y-71116314D01*
X196342260Y-71111970D01*
X196248182Y-71107307D01*
X196170630Y-71102309D01*
X196107066Y-71096962D01*
X196054956Y-71091254D01*
X196011764Y-71085169D01*
X195974952Y-71078693D01*
X195941987Y-71071813D01*
X195910331Y-71064513D01*
X195810647Y-71037877D01*
X195582356Y-70962699D01*
X195336669Y-70867633D01*
X195111695Y-70766881D01*
X194770437Y-70581937D01*
X194385896Y-70312288D01*
X194061571Y-70000001D01*
X193783942Y-69631545D01*
X193539491Y-69193390D01*
X193444361Y-68990448D01*
X193326027Y-68697319D01*
X193245800Y-68423765D01*
X193195405Y-68139148D01*
X193166566Y-67812831D01*
X193165195Y-67605689D01*
X193826209Y-67605689D01*
X193828692Y-67840027D01*
X193838126Y-68017724D01*
X193857650Y-68163836D01*
X193890404Y-68303418D01*
X193939527Y-68461526D01*
X194053466Y-68758432D01*
X194294547Y-69205058D01*
X194600817Y-69595507D01*
X194972013Y-69929515D01*
X195407874Y-70206822D01*
X195908135Y-70427165D01*
X196187966Y-70527967D01*
X208715762Y-70535526D01*
X209059311Y-70535736D01*
X210277027Y-70536503D01*
X211412444Y-70537224D01*
X212468557Y-70537855D01*
X213448358Y-70538351D01*
X214354842Y-70538669D01*
X215191002Y-70538764D01*
X215959833Y-70538591D01*
X216664328Y-70538107D01*
X217307481Y-70537267D01*
X217892287Y-70536027D01*
X218421738Y-70534343D01*
X218898829Y-70532171D01*
X219326554Y-70529465D01*
X219707906Y-70526183D01*
X220045879Y-70522279D01*
X220343468Y-70517710D01*
X220603666Y-70512431D01*
X220829467Y-70506398D01*
X221023864Y-70499567D01*
X221189852Y-70491893D01*
X221330425Y-70483333D01*
X221448576Y-70473842D01*
X221547299Y-70463375D01*
X221629588Y-70451889D01*
X221698438Y-70439339D01*
X221756841Y-70425680D01*
X221807792Y-70410870D01*
X221854284Y-70394863D01*
X221899312Y-70377616D01*
X221945869Y-70359083D01*
X221996949Y-70339221D01*
X222229717Y-70232148D01*
X222539960Y-70040598D01*
X222842996Y-69805151D01*
X223114621Y-69545039D01*
X223330632Y-69279492D01*
X223531838Y-68941577D01*
X223719827Y-68483428D01*
X223830176Y-68004802D01*
X223862379Y-67516083D01*
X223815933Y-67027653D01*
X223690336Y-66549892D01*
X223485084Y-66093185D01*
X223383874Y-65930176D01*
X223152746Y-65636414D01*
X222875462Y-65355674D01*
X222575611Y-65110768D01*
X222276779Y-64924512D01*
X222238932Y-64905348D01*
X222039239Y-64811469D01*
X221838174Y-64726631D01*
X221674068Y-64667200D01*
X221658293Y-64662499D01*
X221628735Y-64654950D01*
X221593098Y-64647921D01*
X221548418Y-64641393D01*
X221491731Y-64635348D01*
X221420074Y-64629767D01*
X221330483Y-64624632D01*
X221219994Y-64619924D01*
X221085643Y-64615624D01*
X220924466Y-64611715D01*
X220733500Y-64608177D01*
X220509781Y-64604992D01*
X220250345Y-64602142D01*
X219952228Y-64599609D01*
X219612466Y-64597372D01*
X219228097Y-64595415D01*
X218796154Y-64593719D01*
X218313676Y-64592264D01*
X217777698Y-64591033D01*
X217185256Y-64590008D01*
X216533387Y-64589168D01*
X215819127Y-64588497D01*
X215039511Y-64587976D01*
X214191577Y-64587585D01*
X213272360Y-64587307D01*
X212278897Y-64587123D01*
X211208223Y-64587014D01*
X210057375Y-64586963D01*
X208823390Y-64586950D01*
X196231017Y-64586950D01*
X195896165Y-64701151D01*
X195577264Y-64829064D01*
X195133345Y-65080315D01*
X194741208Y-65395586D01*
X194407102Y-65768620D01*
X194137271Y-66193159D01*
X193937961Y-66662945D01*
X193936590Y-66667100D01*
X193888977Y-66823454D01*
X193857266Y-66965608D01*
X193838328Y-67118621D01*
X193829034Y-67307551D01*
X193826254Y-67557458D01*
X193826209Y-67605689D01*
X193165195Y-67605689D01*
X193164027Y-67429197D01*
X193229380Y-66910271D01*
X193376907Y-66405411D01*
X193608552Y-65906239D01*
X193619993Y-65885576D01*
X193914172Y-65438753D01*
X194265529Y-65052765D01*
X194677084Y-64725188D01*
X195151860Y-64453600D01*
X195692881Y-64235578D01*
X196058813Y-64113390D01*
X213451356Y-64100410D01*
X213499329Y-64100374D01*
X215062083Y-64099279D01*
X216540484Y-64098386D01*
X217936230Y-64097696D01*
X219251020Y-64097215D01*
X220486551Y-64096945D01*
X221644520Y-64096889D01*
X222726627Y-64097053D01*
X223734569Y-64097438D01*
X224670045Y-64098048D01*
X225534751Y-64098887D01*
X226330386Y-64099958D01*
X227058649Y-64101265D01*
X227721236Y-64102811D01*
X228319847Y-64104600D01*
X228856178Y-64106635D01*
X229331929Y-64108919D01*
X229748797Y-64111456D01*
X230108479Y-64114250D01*
X230412675Y-64117304D01*
X230663082Y-64120622D01*
X230861397Y-64124206D01*
X231009320Y-64128061D01*
X231108547Y-64132189D01*
X231160777Y-64136595D01*
X231579966Y-64224683D01*
X232103136Y-64406766D01*
X232580275Y-64658763D01*
X233006826Y-64976537D01*
X233378237Y-65355947D01*
X233689953Y-65792856D01*
X233937421Y-66283123D01*
X234116085Y-66822609D01*
X234140346Y-66924697D01*
X234214049Y-67451885D01*
X234212601Y-67516083D01*
X234202144Y-67979692D01*
X234104997Y-68505960D01*
G37*
G36*
X158120865Y-86023321D02*
G01*
X158109292Y-86182826D01*
X158088197Y-86318327D01*
X158054851Y-86452359D01*
X158006526Y-86607458D01*
X157833391Y-87060728D01*
X157586667Y-87529419D01*
X157287244Y-87937158D01*
X156930086Y-88288790D01*
X156510160Y-88589155D01*
X156022430Y-88843099D01*
X155461864Y-89055462D01*
X155452650Y-89058125D01*
X155424916Y-89063852D01*
X155385346Y-89069265D01*
X155331464Y-89074375D01*
X155260795Y-89079197D01*
X155170864Y-89083742D01*
X155059195Y-89088025D01*
X154923312Y-89092058D01*
X154760740Y-89095855D01*
X154569004Y-89099428D01*
X154345627Y-89102791D01*
X154088135Y-89105956D01*
X153794051Y-89108938D01*
X153460901Y-89111748D01*
X153086209Y-89114400D01*
X152667499Y-89116907D01*
X152202295Y-89119282D01*
X151688123Y-89121538D01*
X151122506Y-89123689D01*
X150502970Y-89125747D01*
X149827038Y-89127726D01*
X149092236Y-89129638D01*
X148296087Y-89131497D01*
X147436116Y-89133315D01*
X146509847Y-89135107D01*
X145514806Y-89136884D01*
X144448516Y-89138660D01*
X143308502Y-89140449D01*
X142092288Y-89142262D01*
X140797399Y-89144114D01*
X139421360Y-89146017D01*
X137961695Y-89147985D01*
X137644879Y-89148406D01*
X136433613Y-89149984D01*
X135244429Y-89151484D01*
X134080237Y-89152903D01*
X132943947Y-89154240D01*
X131838469Y-89155492D01*
X130766713Y-89156657D01*
X129731589Y-89157732D01*
X128736008Y-89158717D01*
X127782878Y-89159608D01*
X126875110Y-89160404D01*
X126015614Y-89161101D01*
X125207300Y-89161699D01*
X124453077Y-89162194D01*
X123755857Y-89162585D01*
X123118548Y-89162869D01*
X122544061Y-89163045D01*
X122035306Y-89163110D01*
X121595193Y-89163061D01*
X121226631Y-89162898D01*
X120932531Y-89162617D01*
X120715803Y-89162216D01*
X120579356Y-89161693D01*
X120526101Y-89161047D01*
X120242730Y-89132763D01*
X119699094Y-89022692D01*
X119189828Y-88844681D01*
X118722559Y-88603029D01*
X118304913Y-88302033D01*
X117944515Y-87945993D01*
X117648991Y-87539207D01*
X117478866Y-87230176D01*
X117263718Y-86707565D01*
X117132738Y-86177550D01*
X117085824Y-85644835D01*
X117101622Y-85418518D01*
X133861429Y-85418518D01*
X133870975Y-85875036D01*
X133942059Y-86326851D01*
X134071939Y-86743952D01*
X134196200Y-87013553D01*
X134462117Y-87435109D01*
X134791814Y-87799253D01*
X135184288Y-88105122D01*
X135638537Y-88351851D01*
X136153559Y-88538576D01*
X136165348Y-88541702D01*
X136203424Y-88549303D01*
X136255452Y-88556307D01*
X136324870Y-88562742D01*
X136415113Y-88568634D01*
X136529615Y-88574013D01*
X136671814Y-88578904D01*
X136845144Y-88583335D01*
X137053042Y-88587334D01*
X137298942Y-88590929D01*
X137586281Y-88594145D01*
X137918494Y-88597012D01*
X138299017Y-88599556D01*
X138731285Y-88601805D01*
X139218734Y-88603786D01*
X139764800Y-88605527D01*
X140372918Y-88607054D01*
X141046523Y-88608396D01*
X141789053Y-88609580D01*
X142603941Y-88610633D01*
X143494625Y-88611582D01*
X144464539Y-88612456D01*
X145517118Y-88613281D01*
X146282082Y-88613738D01*
X147148135Y-88613991D01*
X147989725Y-88613957D01*
X148802743Y-88613648D01*
X149583079Y-88613072D01*
X150326625Y-88612241D01*
X151029271Y-88611166D01*
X151686908Y-88609857D01*
X152295426Y-88608324D01*
X152850717Y-88606578D01*
X153348671Y-88604630D01*
X153785179Y-88602489D01*
X154156131Y-88600167D01*
X154457419Y-88597674D01*
X154684933Y-88595020D01*
X154834564Y-88592217D01*
X154902203Y-88589274D01*
X154998098Y-88576548D01*
X155459463Y-88472983D01*
X155880643Y-88300825D01*
X156273374Y-88054285D01*
X156649392Y-87727575D01*
X156755611Y-87619626D01*
X156974363Y-87370957D01*
X157143746Y-87127091D01*
X157281447Y-86860306D01*
X157405148Y-86542882D01*
X157432627Y-86462235D01*
X157474068Y-86323910D01*
X157500980Y-86193833D01*
X157516420Y-86048423D01*
X157523443Y-85864101D01*
X157525104Y-85617289D01*
X157524743Y-85483113D01*
X157520751Y-85270871D01*
X157509850Y-85109187D01*
X157488987Y-84974483D01*
X157455105Y-84843179D01*
X157405148Y-84691695D01*
X157355803Y-84555788D01*
X157228583Y-84262126D01*
X157080231Y-84007921D01*
X156893062Y-83765454D01*
X156649392Y-83507002D01*
X156374948Y-83257128D01*
X156060208Y-83032554D01*
X155721109Y-82860298D01*
X155330771Y-82724408D01*
X154988305Y-82625255D01*
X145753898Y-82625255D01*
X145312719Y-82625269D01*
X144252509Y-82625438D01*
X143274199Y-82625811D01*
X142374778Y-82626407D01*
X141551232Y-82627243D01*
X140800549Y-82628335D01*
X140119716Y-82629703D01*
X139505721Y-82631362D01*
X138955550Y-82633331D01*
X138466192Y-82635628D01*
X138034633Y-82638269D01*
X137657860Y-82641272D01*
X137332862Y-82644655D01*
X137056625Y-82648435D01*
X136826136Y-82652630D01*
X136638383Y-82657257D01*
X136490354Y-82662334D01*
X136379034Y-82667878D01*
X136301413Y-82673906D01*
X136254477Y-82680437D01*
X136197205Y-82692940D01*
X135721841Y-82843594D01*
X135284005Y-83066075D01*
X134890986Y-83353155D01*
X134550074Y-83697602D01*
X134268559Y-84092188D01*
X134053731Y-84529682D01*
X133912880Y-85002854D01*
X133861429Y-85418518D01*
X117101622Y-85418518D01*
X117122870Y-85114129D01*
X117243773Y-84590136D01*
X117448429Y-84077563D01*
X117736732Y-83581117D01*
X117801893Y-83489021D01*
X118129482Y-83114357D01*
X118520971Y-82787072D01*
X118966015Y-82513753D01*
X119454269Y-82300989D01*
X119975388Y-82155368D01*
X119980363Y-82154376D01*
X120015692Y-82148668D01*
X120062641Y-82143288D01*
X120123692Y-82138228D01*
X120201330Y-82133477D01*
X120298037Y-82129026D01*
X120416294Y-82124865D01*
X120558586Y-82120985D01*
X120727394Y-82117376D01*
X120925201Y-82114028D01*
X121154491Y-82110932D01*
X121417745Y-82108079D01*
X121717447Y-82105458D01*
X122056079Y-82103060D01*
X122436125Y-82100876D01*
X122860065Y-82098896D01*
X123330384Y-82097110D01*
X123849564Y-82095509D01*
X124420088Y-82094083D01*
X125044439Y-82092823D01*
X125725098Y-82091718D01*
X126464550Y-82090760D01*
X127265276Y-82089939D01*
X128129759Y-82089245D01*
X129060482Y-82088668D01*
X130059928Y-82088200D01*
X131130580Y-82087829D01*
X132274919Y-82087548D01*
X133495430Y-82087346D01*
X134794594Y-82087214D01*
X136174894Y-82087141D01*
X137638813Y-82087119D01*
X138399599Y-82087110D01*
X139824573Y-82087056D01*
X141167247Y-82086979D01*
X142430138Y-82086912D01*
X143615763Y-82086886D01*
X144726639Y-82086936D01*
X145765282Y-82087093D01*
X146734209Y-82087389D01*
X147635936Y-82087857D01*
X148472980Y-82088530D01*
X149247857Y-82089439D01*
X149963084Y-82090618D01*
X150621177Y-82092098D01*
X151224654Y-82093912D01*
X151776030Y-82096093D01*
X152277822Y-82098673D01*
X152732546Y-82101684D01*
X153142720Y-82105159D01*
X153510859Y-82109130D01*
X153839481Y-82113630D01*
X154131102Y-82118691D01*
X154388237Y-82124346D01*
X154613405Y-82130627D01*
X154809122Y-82137566D01*
X154977903Y-82145195D01*
X155122266Y-82153548D01*
X155244727Y-82162657D01*
X155347803Y-82172554D01*
X155434010Y-82183271D01*
X155505865Y-82194842D01*
X155565884Y-82207297D01*
X155616584Y-82220671D01*
X155660481Y-82234995D01*
X155700093Y-82250301D01*
X155737935Y-82266623D01*
X155776524Y-82283992D01*
X155818376Y-82302441D01*
X155866009Y-82322003D01*
X156351253Y-82548320D01*
X156801762Y-82842421D01*
X157190554Y-83195209D01*
X157519619Y-83608826D01*
X157790946Y-84085415D01*
X158006526Y-84627119D01*
X158044484Y-84746975D01*
X158081253Y-84884091D01*
X158105102Y-85017145D01*
X158118759Y-85168673D01*
X158124952Y-85361209D01*
X158126410Y-85617289D01*
X158125643Y-85817279D01*
X158120865Y-86023321D01*
G37*
G36*
X222092738Y-86497200D02*
G01*
X221911108Y-87023322D01*
X221645246Y-87539207D01*
X221570774Y-87655404D01*
X221267978Y-88030952D01*
X220901224Y-88365417D01*
X220483180Y-88651006D01*
X220026511Y-88879932D01*
X219543884Y-89044402D01*
X219047966Y-89136628D01*
X219042782Y-89137036D01*
X218963743Y-89139280D01*
X218802080Y-89141432D01*
X218560743Y-89143490D01*
X218242685Y-89145449D01*
X217850857Y-89147305D01*
X217388209Y-89149056D01*
X216857694Y-89150696D01*
X216262263Y-89152223D01*
X215604867Y-89153633D01*
X214888458Y-89154921D01*
X214115986Y-89156084D01*
X213290404Y-89157119D01*
X212414662Y-89158021D01*
X211491713Y-89158786D01*
X210524508Y-89159412D01*
X209515997Y-89159894D01*
X208469132Y-89160229D01*
X207386866Y-89160412D01*
X206272148Y-89160440D01*
X205127931Y-89160310D01*
X203957166Y-89160016D01*
X202762804Y-89159557D01*
X201547796Y-89158927D01*
X201054019Y-89158642D01*
X199618856Y-89157849D01*
X198266432Y-89157131D01*
X196994222Y-89156454D01*
X195799699Y-89155784D01*
X194680337Y-89155086D01*
X193633611Y-89154326D01*
X192656994Y-89153471D01*
X191747960Y-89152485D01*
X190903984Y-89151335D01*
X190122539Y-89149986D01*
X189401099Y-89148405D01*
X188737139Y-89146556D01*
X188128132Y-89144406D01*
X187571552Y-89141921D01*
X187064874Y-89139065D01*
X186605571Y-89135806D01*
X186191117Y-89132108D01*
X185818986Y-89127938D01*
X185486653Y-89123261D01*
X185191591Y-89118044D01*
X184931274Y-89112251D01*
X184703177Y-89105848D01*
X184504773Y-89098802D01*
X184333536Y-89091078D01*
X184186940Y-89082642D01*
X184062460Y-89073460D01*
X183957568Y-89063497D01*
X183869740Y-89052719D01*
X183796450Y-89041092D01*
X183735170Y-89028582D01*
X183683376Y-89015154D01*
X183638541Y-89000775D01*
X183598139Y-88985409D01*
X183559644Y-88969024D01*
X183520531Y-88951584D01*
X183478273Y-88933055D01*
X183430344Y-88913404D01*
X182941913Y-88685522D01*
X182491518Y-88391342D01*
X182102981Y-88038685D01*
X181774222Y-87625313D01*
X181503159Y-87148984D01*
X181287711Y-86607458D01*
X181249752Y-86487602D01*
X181212983Y-86350486D01*
X181189135Y-86217432D01*
X181175478Y-86065904D01*
X181169285Y-85873368D01*
X181167827Y-85617289D01*
X181769132Y-85617289D01*
X181769494Y-85751464D01*
X181773486Y-85963706D01*
X181784386Y-86125390D01*
X181805249Y-86260094D01*
X181839132Y-86391398D01*
X181889089Y-86542882D01*
X181938434Y-86678789D01*
X182065654Y-86972451D01*
X182214006Y-87226656D01*
X182401175Y-87469123D01*
X182644845Y-87727575D01*
X182892714Y-87955322D01*
X183208274Y-88186263D01*
X183548242Y-88365182D01*
X183940703Y-88509016D01*
X184262881Y-88608315D01*
X193389661Y-88614406D01*
X194148158Y-88614791D01*
X195015259Y-88614932D01*
X195858237Y-88614752D01*
X196672959Y-88614264D01*
X197455294Y-88613479D01*
X198201110Y-88612412D01*
X198906275Y-88611074D01*
X199566657Y-88609478D01*
X200178124Y-88607636D01*
X200736544Y-88605562D01*
X201237786Y-88603268D01*
X201677718Y-88600767D01*
X202052207Y-88598071D01*
X202357122Y-88595192D01*
X202588331Y-88592144D01*
X202741703Y-88588940D01*
X202813104Y-88585591D01*
X203182863Y-88518473D01*
X203641985Y-88363966D01*
X204061567Y-88141215D01*
X204435966Y-87857399D01*
X204759538Y-87519692D01*
X205026638Y-87135272D01*
X205231625Y-86711315D01*
X205368852Y-86254996D01*
X205432678Y-85773494D01*
X205417457Y-85273984D01*
X205328733Y-84808550D01*
X205160113Y-84346253D01*
X204919879Y-83924139D01*
X204612999Y-83548229D01*
X204244440Y-83224546D01*
X203819171Y-82959112D01*
X203342159Y-82757951D01*
X203308099Y-82746914D01*
X203250317Y-82729998D01*
X203186885Y-82714438D01*
X203114303Y-82700182D01*
X203029075Y-82687182D01*
X202927703Y-82675385D01*
X202806688Y-82664743D01*
X202662533Y-82655205D01*
X202491740Y-82646720D01*
X202290811Y-82639238D01*
X202056249Y-82632708D01*
X201784555Y-82627081D01*
X201472231Y-82622306D01*
X201115780Y-82618333D01*
X200711704Y-82615110D01*
X200256505Y-82612589D01*
X199746685Y-82610718D01*
X199178746Y-82609447D01*
X198549191Y-82608726D01*
X197854522Y-82608505D01*
X197091240Y-82608732D01*
X196255848Y-82609359D01*
X195344848Y-82610334D01*
X194354743Y-82611606D01*
X193282034Y-82613127D01*
X184262881Y-82626290D01*
X183940703Y-82725575D01*
X183628411Y-82835615D01*
X183279390Y-83005430D01*
X182960893Y-83223582D01*
X182644845Y-83507002D01*
X182538625Y-83614951D01*
X182319874Y-83863620D01*
X182150490Y-84107486D01*
X182012790Y-84374271D01*
X181889089Y-84691695D01*
X181861609Y-84772342D01*
X181820169Y-84910667D01*
X181793256Y-85040744D01*
X181777817Y-85186154D01*
X181770794Y-85370476D01*
X181769132Y-85617289D01*
X181167827Y-85617289D01*
X181168594Y-85417298D01*
X181173372Y-85211256D01*
X181184945Y-85051751D01*
X181206040Y-84916251D01*
X181239386Y-84782218D01*
X181287711Y-84627119D01*
X181490445Y-84112555D01*
X181758758Y-83632558D01*
X182084704Y-83215647D01*
X182470270Y-82859680D01*
X182917448Y-82562513D01*
X183428227Y-82322003D01*
X183453447Y-82311865D01*
X183497812Y-82292876D01*
X183537682Y-82274983D01*
X183575575Y-82258153D01*
X183614007Y-82242355D01*
X183655494Y-82227554D01*
X183702554Y-82213720D01*
X183757702Y-82200820D01*
X183823455Y-82188820D01*
X183902329Y-82177690D01*
X183996842Y-82167396D01*
X184109510Y-82157906D01*
X184242849Y-82149187D01*
X184399376Y-82141208D01*
X184581608Y-82133935D01*
X184792060Y-82127337D01*
X185033250Y-82121380D01*
X185307694Y-82116033D01*
X185617909Y-82111263D01*
X185966411Y-82107037D01*
X186355716Y-82103323D01*
X186788342Y-82100089D01*
X187266805Y-82097303D01*
X187793621Y-82094931D01*
X188371307Y-82092941D01*
X189002380Y-82091302D01*
X189689356Y-82089980D01*
X190434751Y-82088943D01*
X191241082Y-82088158D01*
X192110867Y-82087594D01*
X193046620Y-82087218D01*
X194050859Y-82086997D01*
X195126101Y-82086899D01*
X196274861Y-82086892D01*
X197499657Y-82086943D01*
X198803005Y-82087019D01*
X200187422Y-82087089D01*
X201655423Y-82087119D01*
X201907526Y-82087120D01*
X203357212Y-82087149D01*
X204723696Y-82087231D01*
X206009461Y-82087375D01*
X207216990Y-82087590D01*
X208348766Y-82087885D01*
X209407271Y-82088271D01*
X210394988Y-82088757D01*
X211314400Y-82089353D01*
X212167989Y-82090068D01*
X212958239Y-82090911D01*
X213687631Y-82091893D01*
X214358649Y-82093023D01*
X214973775Y-82094311D01*
X215535492Y-82095766D01*
X216046283Y-82097397D01*
X216508630Y-82099215D01*
X216925017Y-82101229D01*
X217297925Y-82103448D01*
X217629837Y-82105883D01*
X217923237Y-82108542D01*
X218180607Y-82111435D01*
X218404430Y-82114573D01*
X218597187Y-82117964D01*
X218761363Y-82121618D01*
X218899440Y-82125545D01*
X219013900Y-82129754D01*
X219107227Y-82134254D01*
X219181902Y-82139057D01*
X219240409Y-82144170D01*
X219285230Y-82149604D01*
X219318849Y-82155368D01*
X219440964Y-82182545D01*
X219955446Y-82344177D01*
X220434686Y-82571439D01*
X220868340Y-82857741D01*
X221246061Y-83196497D01*
X221557505Y-83581117D01*
X221741056Y-83877742D01*
X221979022Y-84384459D01*
X222133278Y-84904469D01*
X222203718Y-85433067D01*
X222195101Y-85773494D01*
X222190240Y-85965546D01*
X222092738Y-86497200D01*
G37*
G36*
X164585372Y-104296558D02*
G01*
X164443712Y-104818954D01*
X164218346Y-105328173D01*
X163966901Y-105739908D01*
X163676962Y-106096942D01*
X163340870Y-106403460D01*
X162949311Y-106666747D01*
X162492973Y-106894087D01*
X161962542Y-107092767D01*
X161948045Y-107096831D01*
X161918702Y-107102561D01*
X161877699Y-107107972D01*
X161822553Y-107113080D01*
X161750783Y-107117895D01*
X161659909Y-107122433D01*
X161547448Y-107126706D01*
X161410919Y-107130728D01*
X161247841Y-107134512D01*
X161055733Y-107138070D01*
X160832113Y-107141417D01*
X160574499Y-107144566D01*
X160280411Y-107147529D01*
X159947368Y-107150320D01*
X159572886Y-107152953D01*
X159154487Y-107155441D01*
X158689687Y-107157796D01*
X158176006Y-107160032D01*
X157610962Y-107162163D01*
X156992074Y-107164202D01*
X156316861Y-107166161D01*
X155582841Y-107168055D01*
X154787533Y-107169896D01*
X153928456Y-107171698D01*
X153003127Y-107173474D01*
X152009067Y-107175237D01*
X150943793Y-107177001D01*
X149804824Y-107178778D01*
X148589679Y-107180582D01*
X147295876Y-107182427D01*
X145920935Y-107184325D01*
X144462373Y-107186290D01*
X144145557Y-107186711D01*
X142934291Y-107188289D01*
X141745107Y-107189789D01*
X140580915Y-107191208D01*
X139444625Y-107192545D01*
X138339147Y-107193797D01*
X137267391Y-107194962D01*
X136232267Y-107196038D01*
X135236686Y-107197022D01*
X134283556Y-107197913D01*
X133375788Y-107198709D01*
X132516292Y-107199406D01*
X131707978Y-107200004D01*
X130953755Y-107200499D01*
X130256535Y-107200890D01*
X129619226Y-107201174D01*
X129044739Y-107201350D01*
X128535984Y-107201415D01*
X128095871Y-107201366D01*
X127727309Y-107201203D01*
X127433209Y-107200922D01*
X127216481Y-107200521D01*
X127080034Y-107199998D01*
X127026779Y-107199352D01*
X126489183Y-107130324D01*
X125950603Y-106986949D01*
X125454419Y-106774822D01*
X125005778Y-106497163D01*
X124609826Y-106157193D01*
X124271710Y-105758132D01*
X123996576Y-105303201D01*
X123843449Y-104963987D01*
X123675761Y-104439519D01*
X123593797Y-103916729D01*
X123597000Y-103456823D01*
X149101429Y-103456823D01*
X149110975Y-103913341D01*
X149182059Y-104365157D01*
X149311939Y-104782257D01*
X149438096Y-105055348D01*
X149704805Y-105476548D01*
X150035228Y-105840526D01*
X150427842Y-106145971D01*
X150881127Y-106391571D01*
X151393559Y-106576015D01*
X151423774Y-106583517D01*
X151479201Y-106593357D01*
X151553027Y-106602121D01*
X151650089Y-106609883D01*
X151775222Y-106616715D01*
X151933263Y-106622692D01*
X152129046Y-106627884D01*
X152367409Y-106632367D01*
X152653187Y-106636213D01*
X152991215Y-106639494D01*
X153386330Y-106642284D01*
X153843367Y-106644656D01*
X154367163Y-106646683D01*
X154962552Y-106648437D01*
X155634372Y-106649993D01*
X156387457Y-106651422D01*
X156467638Y-106651557D01*
X157105114Y-106652248D01*
X157722215Y-106652258D01*
X158312964Y-106651622D01*
X158871386Y-106650372D01*
X159391508Y-106648545D01*
X159867353Y-106646172D01*
X160292946Y-106643290D01*
X160662314Y-106639932D01*
X160969480Y-106636132D01*
X161208470Y-106631924D01*
X161373309Y-106627343D01*
X161458022Y-106622422D01*
X161482717Y-106619344D01*
X161873427Y-106538856D01*
X162267320Y-106404586D01*
X162621607Y-106230929D01*
X162667666Y-106202436D01*
X162880829Y-106043665D01*
X163110067Y-105837992D01*
X163333451Y-105607666D01*
X163529056Y-105374939D01*
X163674953Y-105162060D01*
X163732627Y-105057364D01*
X163908921Y-104642621D01*
X164024999Y-104199380D01*
X164075955Y-103751278D01*
X164056883Y-103321950D01*
X164026760Y-103130739D01*
X163912549Y-102676983D01*
X163740090Y-102272593D01*
X163501372Y-101901195D01*
X163188388Y-101546416D01*
X162987105Y-101358932D01*
X162629676Y-101092713D01*
X162249439Y-100896529D01*
X161829890Y-100762611D01*
X161354526Y-100683191D01*
X161237389Y-100675149D01*
X161028733Y-100667721D01*
X160734231Y-100661527D01*
X160354012Y-100656569D01*
X159888205Y-100652846D01*
X159336938Y-100650361D01*
X158700338Y-100649113D01*
X157978535Y-100649104D01*
X157171656Y-100650333D01*
X156279830Y-100652803D01*
X156158075Y-100653204D01*
X155427657Y-100655564D01*
X154777317Y-100657740D01*
X154201850Y-100659968D01*
X153696048Y-100662483D01*
X153254703Y-100665522D01*
X152872609Y-100669318D01*
X152544559Y-100674109D01*
X152265345Y-100680129D01*
X152029760Y-100687614D01*
X151832597Y-100696799D01*
X151668649Y-100707920D01*
X151532708Y-100721213D01*
X151419568Y-100736912D01*
X151324021Y-100755253D01*
X151240860Y-100776473D01*
X151164878Y-100800806D01*
X151090867Y-100828487D01*
X151013621Y-100859753D01*
X150927933Y-100894838D01*
X150925988Y-100895626D01*
X150501623Y-101112994D01*
X150117499Y-101400112D01*
X149782087Y-101746734D01*
X149503865Y-102142614D01*
X149291304Y-102577505D01*
X149152880Y-103041159D01*
X149101429Y-103456823D01*
X123597000Y-103456823D01*
X123597443Y-103393134D01*
X123686585Y-102866252D01*
X123861110Y-102333602D01*
X124063079Y-101913929D01*
X124362266Y-101469787D01*
X124726019Y-101081599D01*
X125152598Y-100750907D01*
X125640267Y-100479254D01*
X126187288Y-100268184D01*
X126574745Y-100146950D01*
X143988813Y-100135185D01*
X144625105Y-100134759D01*
X146055640Y-100133833D01*
X147403616Y-100133015D01*
X148671519Y-100132313D01*
X149861831Y-100131735D01*
X150977038Y-100131290D01*
X152019622Y-100130984D01*
X152992068Y-100130827D01*
X153896859Y-100130826D01*
X154736480Y-100130988D01*
X155513414Y-100131323D01*
X156230145Y-100131837D01*
X156889157Y-100132540D01*
X157492934Y-100133438D01*
X158043959Y-100134540D01*
X158544717Y-100135854D01*
X158997691Y-100137388D01*
X159405365Y-100139150D01*
X159770223Y-100141147D01*
X160094750Y-100143388D01*
X160381428Y-100145881D01*
X160632741Y-100148634D01*
X160851175Y-100151654D01*
X161039211Y-100154950D01*
X161199335Y-100158529D01*
X161334030Y-100162400D01*
X161445780Y-100166571D01*
X161537068Y-100171049D01*
X161610380Y-100175843D01*
X161668197Y-100180960D01*
X161713005Y-100186409D01*
X161747288Y-100192197D01*
X161985810Y-100247840D01*
X162499049Y-100425203D01*
X162974150Y-100670207D01*
X163402068Y-100976809D01*
X163773755Y-101338965D01*
X164080164Y-101750633D01*
X164319588Y-102195283D01*
X164510433Y-102710347D01*
X164618500Y-103236251D01*
X164642815Y-103751278D01*
X164643557Y-103766989D01*
X164585372Y-104296558D01*
G37*
G36*
X215521946Y-104784390D02*
G01*
X215303406Y-105293276D01*
X215001119Y-105787211D01*
X214739599Y-106101953D01*
X214378819Y-106424517D01*
X213964705Y-106701293D01*
X213511750Y-106924085D01*
X213034447Y-107084697D01*
X212547288Y-107174933D01*
X212519582Y-107176639D01*
X212403098Y-107179746D01*
X212206350Y-107182638D01*
X211932878Y-107185316D01*
X211586223Y-107187785D01*
X211169922Y-107190047D01*
X210687517Y-107192107D01*
X210142547Y-107193967D01*
X209538552Y-107195632D01*
X208879071Y-107197104D01*
X208167644Y-107198388D01*
X207407810Y-107199485D01*
X206603110Y-107200401D01*
X205757083Y-107201138D01*
X204873268Y-107201699D01*
X203955206Y-107202089D01*
X203006436Y-107202310D01*
X202030498Y-107202367D01*
X201030931Y-107202262D01*
X200011275Y-107201999D01*
X198975070Y-107201581D01*
X197925856Y-107201012D01*
X196867172Y-107200295D01*
X195802557Y-107199434D01*
X194735552Y-107198432D01*
X193669697Y-107197292D01*
X192608530Y-107196019D01*
X191555592Y-107194614D01*
X190514423Y-107193083D01*
X189488561Y-107191428D01*
X188481547Y-107189652D01*
X187496920Y-107187760D01*
X186538220Y-107185754D01*
X185608987Y-107183639D01*
X184712761Y-107181416D01*
X183853080Y-107179091D01*
X183033486Y-107176666D01*
X182257516Y-107174144D01*
X181528712Y-107171530D01*
X180850613Y-107168827D01*
X180226758Y-107166037D01*
X179660688Y-107163165D01*
X179155941Y-107160214D01*
X178716058Y-107157187D01*
X178344578Y-107154088D01*
X178045041Y-107150920D01*
X177820987Y-107147687D01*
X177675955Y-107144392D01*
X177613485Y-107141038D01*
X177460550Y-107111250D01*
X176995325Y-106974140D01*
X176544122Y-106774811D01*
X176124197Y-106523131D01*
X175752804Y-106228968D01*
X175447199Y-105902189D01*
X175179211Y-105512726D01*
X174939006Y-105040854D01*
X174768123Y-104546721D01*
X174669732Y-104042462D01*
X174652223Y-103655594D01*
X175228552Y-103655594D01*
X175228628Y-103677594D01*
X175273056Y-104181535D01*
X175395734Y-104658203D01*
X175591447Y-105100860D01*
X175854980Y-105502771D01*
X176181119Y-105857198D01*
X176564650Y-106157404D01*
X177000357Y-106396652D01*
X177483025Y-106568206D01*
X177512270Y-106575588D01*
X177565585Y-106586577D01*
X177630265Y-106596347D01*
X177711293Y-106604983D01*
X177813652Y-106612565D01*
X177942323Y-106619178D01*
X178102290Y-106624901D01*
X178298534Y-106629819D01*
X178536039Y-106634013D01*
X178819785Y-106637566D01*
X179154757Y-106640559D01*
X179545935Y-106643076D01*
X179998304Y-106645198D01*
X180516844Y-106647008D01*
X181106539Y-106648588D01*
X181772371Y-106650020D01*
X182519322Y-106651387D01*
X182602578Y-106651525D01*
X183239533Y-106652221D01*
X183855816Y-106652271D01*
X184445479Y-106651708D01*
X185002574Y-106650563D01*
X185521153Y-106648869D01*
X185995267Y-106646656D01*
X186418968Y-106643958D01*
X186786309Y-106640805D01*
X187091341Y-106637231D01*
X187328117Y-106633266D01*
X187490687Y-106628943D01*
X187573104Y-106624293D01*
X187938595Y-106557837D01*
X188398826Y-106403396D01*
X188819324Y-106180709D01*
X189194459Y-105896934D01*
X189518604Y-105559228D01*
X189786129Y-105174751D01*
X189991406Y-104750660D01*
X190128805Y-104294114D01*
X190192699Y-103812271D01*
X190177457Y-103312289D01*
X190088733Y-102846855D01*
X189920113Y-102384558D01*
X189679879Y-101962444D01*
X189372999Y-101586534D01*
X189004440Y-101262851D01*
X188579171Y-100997417D01*
X188102159Y-100796257D01*
X188095388Y-100794014D01*
X188016444Y-100770012D01*
X187930201Y-100748593D01*
X187831734Y-100729632D01*
X187716119Y-100713006D01*
X187578431Y-100698589D01*
X187413743Y-100686259D01*
X187217132Y-100675889D01*
X186983672Y-100667358D01*
X186708438Y-100660539D01*
X186386505Y-100655310D01*
X186012948Y-100651545D01*
X185582842Y-100649122D01*
X185091261Y-100647914D01*
X184533281Y-100647799D01*
X183903977Y-100648652D01*
X183198423Y-100650349D01*
X182411695Y-100652765D01*
X182006230Y-100654075D01*
X181297461Y-100656310D01*
X180666902Y-100658454D01*
X180109382Y-100660798D01*
X179619728Y-100663635D01*
X179192768Y-100667257D01*
X178823331Y-100671957D01*
X178506243Y-100678025D01*
X178236334Y-100685755D01*
X178008429Y-100695439D01*
X177817359Y-100707369D01*
X177657950Y-100721836D01*
X177525031Y-100739134D01*
X177413428Y-100759554D01*
X177317971Y-100783388D01*
X177233487Y-100810929D01*
X177154804Y-100842469D01*
X177076750Y-100878299D01*
X176994152Y-100918713D01*
X176901839Y-100964002D01*
X176562471Y-101155848D01*
X176174115Y-101458726D01*
X175846020Y-101817001D01*
X175582800Y-102223249D01*
X175389072Y-102670047D01*
X175269451Y-103149970D01*
X175228552Y-103655594D01*
X174652223Y-103655594D01*
X174647001Y-103540210D01*
X174703096Y-103052099D01*
X174822728Y-102595714D01*
X175032872Y-102079846D01*
X175309391Y-101614745D01*
X175648266Y-101204452D01*
X176045479Y-100853009D01*
X176497010Y-100564458D01*
X176998839Y-100342840D01*
X177546949Y-100192197D01*
X177560452Y-100189684D01*
X177598923Y-100184042D01*
X177648980Y-100178736D01*
X177713106Y-100173758D01*
X177793786Y-100169100D01*
X177893504Y-100164754D01*
X178014743Y-100160712D01*
X178159987Y-100156967D01*
X178331720Y-100153509D01*
X178532426Y-100150332D01*
X178764588Y-100147427D01*
X179030691Y-100144786D01*
X179333219Y-100142402D01*
X179674655Y-100140265D01*
X180057483Y-100138370D01*
X180484187Y-100136706D01*
X180957251Y-100135267D01*
X181479159Y-100134044D01*
X182052394Y-100133030D01*
X182679441Y-100132216D01*
X183362784Y-100131595D01*
X184104905Y-100131158D01*
X184908289Y-100130898D01*
X185775421Y-100130806D01*
X186708783Y-100130875D01*
X187710860Y-100131097D01*
X188784135Y-100131463D01*
X189931093Y-100131966D01*
X191154216Y-100132598D01*
X192455990Y-100133350D01*
X193838898Y-100134215D01*
X195305423Y-100135185D01*
X212719491Y-100146950D01*
X213106949Y-100268184D01*
X213574956Y-100443384D01*
X214071719Y-100705968D01*
X214507655Y-101027824D01*
X214881026Y-101407411D01*
X215190096Y-101843184D01*
X215433126Y-102333602D01*
X215550480Y-102664479D01*
X215671005Y-103200598D01*
X215706153Y-103734794D01*
X215698856Y-103812271D01*
X215656331Y-104263810D01*
X215521946Y-104784390D01*
G37*
G36*
X158107589Y-122179317D02*
G01*
X158069283Y-122428992D01*
X158003678Y-122668001D01*
X157904639Y-122923390D01*
X157766031Y-123222204D01*
X157740359Y-123274156D01*
X157491483Y-123704860D01*
X157209112Y-124066832D01*
X156883298Y-124373042D01*
X156802162Y-124435155D01*
X156535411Y-124610774D01*
X156224949Y-124783521D01*
X155900307Y-124937750D01*
X155591017Y-125057812D01*
X155289661Y-125158786D01*
X138047796Y-125183304D01*
X137798051Y-125183657D01*
X136585251Y-125185325D01*
X135393599Y-125186885D01*
X134226050Y-125188336D01*
X133085554Y-125189675D01*
X131975064Y-125190901D01*
X130897533Y-125192014D01*
X129855914Y-125193011D01*
X128853158Y-125193892D01*
X127892217Y-125194653D01*
X126976045Y-125195295D01*
X126107593Y-125195816D01*
X125289815Y-125196213D01*
X124525662Y-125196487D01*
X123818086Y-125196634D01*
X123170041Y-125196655D01*
X122584479Y-125196546D01*
X122064351Y-125196307D01*
X121612610Y-125195937D01*
X121232209Y-125195434D01*
X120926101Y-125194795D01*
X120697236Y-125194021D01*
X120548569Y-125193109D01*
X120483051Y-125192059D01*
X120005194Y-125137522D01*
X119477082Y-125000655D01*
X118980256Y-124788124D01*
X118523414Y-124503752D01*
X118115254Y-124151362D01*
X118008456Y-124038499D01*
X117681169Y-123616949D01*
X117422933Y-123156490D01*
X117236171Y-122667047D01*
X117123308Y-122158543D01*
X117099833Y-121826006D01*
X139286500Y-121826006D01*
X139352719Y-122312606D01*
X139496346Y-122777511D01*
X139621482Y-123048723D01*
X139887770Y-123470119D01*
X140217809Y-123834193D01*
X140610353Y-124139869D01*
X141064155Y-124386073D01*
X141577966Y-124571730D01*
X141597197Y-124576689D01*
X141643338Y-124585489D01*
X141705372Y-124593464D01*
X141787428Y-124600659D01*
X141893637Y-124607123D01*
X142028128Y-124612901D01*
X142195031Y-124618040D01*
X142398476Y-124622587D01*
X142642593Y-124626588D01*
X142931512Y-124630090D01*
X143269363Y-124633140D01*
X143660276Y-124635784D01*
X144108382Y-124638070D01*
X144617809Y-124640043D01*
X145192688Y-124641750D01*
X145837149Y-124643238D01*
X146555321Y-124644554D01*
X147351336Y-124645744D01*
X148229322Y-124646855D01*
X148312696Y-124646951D01*
X149052183Y-124647542D01*
X149770708Y-124647665D01*
X150463260Y-124647340D01*
X151124829Y-124646588D01*
X151750404Y-124645428D01*
X152334975Y-124643880D01*
X152873529Y-124641966D01*
X153361058Y-124639704D01*
X153792550Y-124637115D01*
X154162994Y-124634219D01*
X154467379Y-124631036D01*
X154700695Y-124627586D01*
X154857932Y-124623889D01*
X154934077Y-124619966D01*
X155225005Y-124570735D01*
X155583972Y-124462418D01*
X155956949Y-124293466D01*
X156221909Y-124138103D01*
X156602359Y-123839559D01*
X156923222Y-123489210D01*
X157181544Y-123096068D01*
X157374368Y-122669146D01*
X157498737Y-122217460D01*
X157551696Y-121750020D01*
X157530287Y-121275842D01*
X157431555Y-120803939D01*
X157252544Y-120343323D01*
X157206698Y-120253047D01*
X156936044Y-119831232D01*
X156601421Y-119464143D01*
X156208269Y-119156186D01*
X155762027Y-118911771D01*
X155268135Y-118735306D01*
X155228990Y-118725518D01*
X155181398Y-118716143D01*
X155123180Y-118707686D01*
X155050143Y-118700100D01*
X154958093Y-118693338D01*
X154842839Y-118687353D01*
X154700185Y-118682097D01*
X154525940Y-118677525D01*
X154315911Y-118673589D01*
X154065903Y-118670241D01*
X153771725Y-118667435D01*
X153429183Y-118665125D01*
X153034084Y-118663262D01*
X152582235Y-118661800D01*
X152069443Y-118660691D01*
X151491514Y-118659890D01*
X150844256Y-118659349D01*
X150123476Y-118659020D01*
X149324980Y-118658858D01*
X148444576Y-118658814D01*
X147896696Y-118658857D01*
X147035107Y-118659140D01*
X146253710Y-118659714D01*
X145548787Y-118660609D01*
X144916623Y-118661858D01*
X144353501Y-118663491D01*
X143855705Y-118665539D01*
X143419520Y-118668034D01*
X143041227Y-118671007D01*
X142717113Y-118674488D01*
X142443460Y-118678509D01*
X142216552Y-118683101D01*
X142032673Y-118688296D01*
X141888107Y-118694123D01*
X141779137Y-118700615D01*
X141702048Y-118707803D01*
X141653122Y-118715718D01*
X141237811Y-118840628D01*
X140781435Y-119055291D01*
X140372557Y-119336464D01*
X140017721Y-119678662D01*
X139723469Y-120076397D01*
X139496346Y-120524185D01*
X139386288Y-120851744D01*
X139297690Y-121333717D01*
X139286500Y-121826006D01*
X117099833Y-121826006D01*
X117086766Y-121640902D01*
X117128969Y-121124049D01*
X117252341Y-120617908D01*
X117284418Y-120524706D01*
X117513171Y-120004092D01*
X117805637Y-119540229D01*
X118158691Y-119135794D01*
X118569207Y-118793467D01*
X119034058Y-118515925D01*
X119550119Y-118305848D01*
X120114262Y-118165913D01*
X120118307Y-118165315D01*
X120188665Y-118161044D01*
X120330988Y-118156999D01*
X120545983Y-118153178D01*
X120834356Y-118149579D01*
X121196815Y-118146201D01*
X121634066Y-118143042D01*
X122146815Y-118140100D01*
X122735771Y-118137373D01*
X123401639Y-118134860D01*
X124145127Y-118132558D01*
X124966941Y-118130466D01*
X125867789Y-118128582D01*
X126848376Y-118126903D01*
X127909410Y-118125430D01*
X129051598Y-118124158D01*
X130275647Y-118123087D01*
X131582262Y-118122215D01*
X132972152Y-118121540D01*
X134446023Y-118121060D01*
X136004582Y-118120774D01*
X137648535Y-118120678D01*
X137734821Y-118120678D01*
X139191931Y-118120704D01*
X140565565Y-118120780D01*
X141858209Y-118120919D01*
X143072348Y-118121128D01*
X144210464Y-118121418D01*
X145275043Y-118121798D01*
X146268569Y-118122278D01*
X147193527Y-118122867D01*
X148052399Y-118123575D01*
X148847672Y-118124412D01*
X149581829Y-118125387D01*
X150257355Y-118126509D01*
X150876733Y-118127789D01*
X151442448Y-118129236D01*
X151956985Y-118130859D01*
X152422828Y-118132669D01*
X152842461Y-118134674D01*
X153218368Y-118136884D01*
X153553034Y-118139310D01*
X153848944Y-118141959D01*
X154108580Y-118144843D01*
X154334428Y-118147971D01*
X154528973Y-118151351D01*
X154694697Y-118154995D01*
X154834087Y-118158911D01*
X154949625Y-118163109D01*
X155043796Y-118167598D01*
X155119086Y-118172389D01*
X155177977Y-118177491D01*
X155222954Y-118182913D01*
X155256502Y-118188665D01*
X155263376Y-118190090D01*
X155820119Y-118345884D01*
X156324565Y-118569826D01*
X156775093Y-118860457D01*
X157170078Y-119216317D01*
X157507897Y-119635947D01*
X157786928Y-120117888D01*
X158005546Y-120660678D01*
X158034452Y-120750948D01*
X158075116Y-120895947D01*
X158101775Y-121032705D01*
X158117394Y-121184800D01*
X158124939Y-121375813D01*
X158127375Y-121629322D01*
X158126160Y-121750020D01*
X158124732Y-121891932D01*
X158107589Y-122179317D01*
G37*
G36*
X222048783Y-122697386D02*
G01*
X221858084Y-123185603D01*
X221599042Y-123638639D01*
X221276709Y-124048623D01*
X220896134Y-124407682D01*
X220462365Y-124707943D01*
X219980453Y-124941536D01*
X219919677Y-124964224D01*
X219687380Y-125037913D01*
X219426121Y-125106147D01*
X219172186Y-125160047D01*
X218961864Y-125190738D01*
X218949746Y-125191170D01*
X218860933Y-125192128D01*
X218690586Y-125192960D01*
X218441938Y-125193668D01*
X218118222Y-125194254D01*
X217722673Y-125194722D01*
X217258525Y-125195073D01*
X216729011Y-125195310D01*
X216137366Y-125195436D01*
X215486824Y-125195452D01*
X214780618Y-125195361D01*
X214021983Y-125195166D01*
X213214152Y-125194869D01*
X212360360Y-125194473D01*
X211463840Y-125193979D01*
X210527826Y-125193391D01*
X209555553Y-125192711D01*
X208550254Y-125191941D01*
X207515163Y-125191084D01*
X206453515Y-125190141D01*
X205368542Y-125189117D01*
X204263480Y-125188012D01*
X203141562Y-125186830D01*
X202006021Y-125185573D01*
X200860093Y-125184242D01*
X199707011Y-125182842D01*
X198550008Y-125181374D01*
X197392320Y-125179840D01*
X196237179Y-125178244D01*
X195087820Y-125176586D01*
X193947477Y-125174871D01*
X192819383Y-125173100D01*
X191706773Y-125171276D01*
X190612881Y-125169401D01*
X184004576Y-125157815D01*
X183703220Y-125057327D01*
X183594054Y-125018631D01*
X183275987Y-124884651D01*
X182952991Y-124721916D01*
X182654748Y-124546140D01*
X182410939Y-124373042D01*
X182372795Y-124341796D01*
X182052229Y-124030106D01*
X181774015Y-123661231D01*
X181528206Y-123222204D01*
X181418226Y-122988348D01*
X181310487Y-122725231D01*
X181237617Y-122484815D01*
X181193480Y-122240056D01*
X181171940Y-121963906D01*
X181166862Y-121629322D01*
X181167346Y-121547259D01*
X181740724Y-121547259D01*
X181762077Y-122021779D01*
X181861383Y-122495052D01*
X182041693Y-122958373D01*
X182068936Y-123012924D01*
X182334508Y-123439487D01*
X182664908Y-123811325D01*
X183056086Y-124125122D01*
X183503992Y-124377563D01*
X184004576Y-124565332D01*
X184029522Y-124572186D01*
X184072953Y-124581859D01*
X184126520Y-124590603D01*
X184194443Y-124598472D01*
X184280943Y-124605517D01*
X184390240Y-124611790D01*
X184526554Y-124617344D01*
X184694106Y-124622231D01*
X184897116Y-124626502D01*
X185139804Y-124630210D01*
X185426391Y-124633408D01*
X185761096Y-124636147D01*
X186148141Y-124638479D01*
X186591745Y-124640457D01*
X187096129Y-124642133D01*
X187665513Y-124643559D01*
X188304118Y-124644787D01*
X189016163Y-124645869D01*
X189805870Y-124646858D01*
X190677457Y-124647805D01*
X190759642Y-124647887D01*
X191499293Y-124648365D01*
X192218068Y-124648370D01*
X192910949Y-124647924D01*
X193572919Y-124647048D01*
X194198960Y-124645764D01*
X194784056Y-124644093D01*
X195323189Y-124642055D01*
X195811341Y-124639674D01*
X196243495Y-124636969D01*
X196614635Y-124633961D01*
X196919742Y-124630673D01*
X197153800Y-124627126D01*
X197311791Y-124623341D01*
X197388697Y-124619338D01*
X197756437Y-124552533D01*
X198216083Y-124398058D01*
X198636098Y-124175338D01*
X199010846Y-123891541D01*
X199334689Y-123553835D01*
X199601990Y-123169387D01*
X199807114Y-122745367D01*
X199944423Y-122288940D01*
X200008281Y-121807277D01*
X199993050Y-121307543D01*
X199904326Y-120842109D01*
X199735706Y-120379813D01*
X199495472Y-119957698D01*
X199188592Y-119581788D01*
X198820034Y-119258105D01*
X198394765Y-118992672D01*
X197917752Y-118791511D01*
X197900009Y-118785686D01*
X197831911Y-118765208D01*
X197757641Y-118746653D01*
X197672995Y-118729936D01*
X197573765Y-118714976D01*
X197455743Y-118701689D01*
X197314724Y-118689992D01*
X197146500Y-118679803D01*
X196946865Y-118671038D01*
X196711611Y-118663616D01*
X196436531Y-118657452D01*
X196117420Y-118652465D01*
X195750069Y-118648572D01*
X195330272Y-118645689D01*
X194853823Y-118643734D01*
X194316513Y-118642624D01*
X193714137Y-118642276D01*
X193042488Y-118642607D01*
X192297358Y-118643535D01*
X191474541Y-118644977D01*
X190569830Y-118646850D01*
X189706254Y-118648629D01*
X188913255Y-118650169D01*
X188197702Y-118651633D01*
X187555240Y-118653209D01*
X186981516Y-118655087D01*
X186472176Y-118657455D01*
X186022864Y-118660502D01*
X185629228Y-118664415D01*
X185286912Y-118669384D01*
X184991564Y-118675597D01*
X184738829Y-118683242D01*
X184524352Y-118692509D01*
X184343780Y-118703585D01*
X184192758Y-118716659D01*
X184066933Y-118731920D01*
X183961951Y-118749556D01*
X183873456Y-118769756D01*
X183797096Y-118792707D01*
X183728516Y-118818600D01*
X183663362Y-118847622D01*
X183597280Y-118879962D01*
X183525916Y-118915808D01*
X183444915Y-118955348D01*
X183078703Y-119161478D01*
X182696430Y-119460658D01*
X182373798Y-119810826D01*
X182113860Y-120203275D01*
X181919667Y-120629301D01*
X181794271Y-121080198D01*
X181740724Y-121547259D01*
X181167346Y-121547259D01*
X181167726Y-121482898D01*
X181172559Y-121266150D01*
X181184107Y-121099133D01*
X181205334Y-120958268D01*
X181239207Y-120819976D01*
X181288691Y-120660678D01*
X181290911Y-120653925D01*
X181510252Y-120111844D01*
X181789986Y-119630630D01*
X182128489Y-119211744D01*
X182524139Y-118856645D01*
X182975312Y-118566792D01*
X183480385Y-118343645D01*
X184037735Y-118188665D01*
X184039396Y-118188325D01*
X184073533Y-118182593D01*
X184119242Y-118177189D01*
X184179008Y-118172106D01*
X184255315Y-118167333D01*
X184350647Y-118162860D01*
X184467488Y-118158678D01*
X184608322Y-118154778D01*
X184775635Y-118151150D01*
X184971910Y-118147784D01*
X185199632Y-118144671D01*
X185461285Y-118141801D01*
X185759353Y-118139164D01*
X186096321Y-118136752D01*
X186474673Y-118134553D01*
X186896893Y-118132560D01*
X187365466Y-118130761D01*
X187882875Y-118129148D01*
X188451606Y-118127711D01*
X189074142Y-118126441D01*
X189752968Y-118125327D01*
X190490569Y-118124360D01*
X191289427Y-118123531D01*
X192152029Y-118122830D01*
X193080858Y-118122248D01*
X194078398Y-118121774D01*
X195147134Y-118121399D01*
X196289550Y-118121114D01*
X197508131Y-118120909D01*
X198805360Y-118120775D01*
X200183722Y-118120701D01*
X201645702Y-118120678D01*
X201874041Y-118120680D01*
X203506354Y-118120801D01*
X205053368Y-118121114D01*
X206515790Y-118121620D01*
X207894327Y-118122322D01*
X209189686Y-118123221D01*
X210402573Y-118124319D01*
X211533696Y-118125618D01*
X212583762Y-118127119D01*
X213553476Y-118128825D01*
X214443547Y-118130738D01*
X215254680Y-118132858D01*
X215987584Y-118135189D01*
X216642963Y-118137731D01*
X217221526Y-118140487D01*
X217723979Y-118143458D01*
X218151029Y-118146647D01*
X218503383Y-118150055D01*
X218781748Y-118153683D01*
X218986830Y-118157535D01*
X219119337Y-118161611D01*
X219179974Y-118165913D01*
X219409651Y-118215238D01*
X219839615Y-118348888D01*
X220261804Y-118528997D01*
X220650356Y-118743841D01*
X220979410Y-118981695D01*
X221166213Y-119153365D01*
X221499646Y-119542545D01*
X221776481Y-119983570D01*
X221990020Y-120462731D01*
X222133562Y-120966316D01*
X222200410Y-121480618D01*
X222204961Y-121646899D01*
X222193308Y-121807277D01*
X222166092Y-122181861D01*
X222048783Y-122697386D01*
G37*
G36*
X156044837Y-140560300D02*
G01*
X155871892Y-141057103D01*
X155628706Y-141522246D01*
X155320191Y-141946225D01*
X154951260Y-142319539D01*
X154526823Y-142632686D01*
X154356254Y-142734265D01*
X154108809Y-142862291D01*
X153842633Y-142973982D01*
X153524576Y-143084276D01*
X153515325Y-143086948D01*
X153487579Y-143092675D01*
X153447997Y-143098086D01*
X153394106Y-143103195D01*
X153323429Y-143108015D01*
X153233490Y-143112558D01*
X153121815Y-143116838D01*
X152985927Y-143120867D01*
X152823351Y-143124660D01*
X152631612Y-143128228D01*
X152408233Y-143131585D01*
X152150740Y-143134744D01*
X151856656Y-143137717D01*
X151523507Y-143140519D01*
X151148816Y-143143162D01*
X150730108Y-143145658D01*
X150264908Y-143148021D01*
X149750739Y-143150265D01*
X149185127Y-143152401D01*
X148565595Y-143154444D01*
X147889669Y-143156405D01*
X147154872Y-143158299D01*
X146358729Y-143160138D01*
X145498765Y-143161935D01*
X144572504Y-143163703D01*
X143577469Y-143165456D01*
X142511187Y-143167205D01*
X141371181Y-143168965D01*
X140154975Y-143170748D01*
X138860095Y-143172568D01*
X137484064Y-143174437D01*
X136024406Y-143176368D01*
X135727069Y-143176755D01*
X134514247Y-143178289D01*
X133322977Y-143179724D01*
X132156195Y-143181059D01*
X131016833Y-143182293D01*
X129907826Y-143183423D01*
X128832108Y-143184449D01*
X127792613Y-143185370D01*
X126792275Y-143186183D01*
X125834028Y-143186888D01*
X124920806Y-143187483D01*
X124055543Y-143187967D01*
X123241173Y-143188338D01*
X122480630Y-143188595D01*
X121776849Y-143188737D01*
X121132762Y-143188763D01*
X120551305Y-143188670D01*
X120035412Y-143188458D01*
X119588016Y-143188125D01*
X119212051Y-143187669D01*
X118910451Y-143187090D01*
X118686151Y-143186387D01*
X118542085Y-143185556D01*
X118481186Y-143184599D01*
X118171988Y-143154047D01*
X117645685Y-143039687D01*
X117145247Y-142852281D01*
X116681424Y-142597175D01*
X116264971Y-142279709D01*
X115906637Y-141905229D01*
X115856857Y-141840491D01*
X115706777Y-141612520D01*
X115552595Y-141338140D01*
X115407952Y-141044408D01*
X115286487Y-140758381D01*
X115201841Y-140507119D01*
X115166479Y-140348431D01*
X115142658Y-140159394D01*
X115130021Y-139924810D01*
X115128931Y-139821260D01*
X126973957Y-139821260D01*
X127040176Y-140307860D01*
X127183804Y-140772765D01*
X127307626Y-141041558D01*
X127573352Y-141463190D01*
X127902871Y-141827365D01*
X128295307Y-142133329D01*
X128749783Y-142380324D01*
X129265423Y-142567597D01*
X129275602Y-142570299D01*
X129310006Y-142577119D01*
X129357613Y-142583464D01*
X129421461Y-142589354D01*
X129504588Y-142594807D01*
X129610032Y-142599843D01*
X129740828Y-142604481D01*
X129900016Y-142608740D01*
X130090632Y-142612640D01*
X130315713Y-142616199D01*
X130578298Y-142619438D01*
X130881423Y-142622376D01*
X131228126Y-142625031D01*
X131621445Y-142627424D01*
X132064416Y-142629573D01*
X132560077Y-142631497D01*
X133111466Y-142633217D01*
X133721620Y-142634751D01*
X134393576Y-142636118D01*
X135130373Y-142637338D01*
X135935046Y-142638431D01*
X136810634Y-142639414D01*
X137760174Y-142640309D01*
X138786704Y-142641133D01*
X139893260Y-142641907D01*
X141082881Y-142642650D01*
X141087467Y-142642652D01*
X142083666Y-142643107D01*
X143059100Y-142643282D01*
X144010142Y-142643187D01*
X144933159Y-142642832D01*
X145824523Y-142642225D01*
X146680603Y-142641376D01*
X147497770Y-142640295D01*
X148272394Y-142638989D01*
X149000844Y-142637469D01*
X149679492Y-142635744D01*
X150304707Y-142633823D01*
X150872859Y-142631714D01*
X151380319Y-142629429D01*
X151823456Y-142626974D01*
X152198641Y-142624361D01*
X152502244Y-142621598D01*
X152730635Y-142618694D01*
X152880184Y-142615658D01*
X152947261Y-142612501D01*
X153029906Y-142600752D01*
X153496794Y-142492748D01*
X153921780Y-142316326D01*
X154316376Y-142065696D01*
X154692095Y-141735069D01*
X154698952Y-141728159D01*
X154878788Y-141538065D01*
X155014117Y-141369992D01*
X155127072Y-141193327D01*
X155239784Y-140977455D01*
X155408986Y-140567442D01*
X155528792Y-140101461D01*
X155569491Y-139646102D01*
X155537580Y-139244023D01*
X155426716Y-138778559D01*
X155239784Y-138314749D01*
X155217055Y-138269262D01*
X154958210Y-137855094D01*
X154633043Y-137488578D01*
X154251007Y-137177542D01*
X153821557Y-136929814D01*
X153354144Y-136753223D01*
X153007966Y-136654068D01*
X141319661Y-136654068D01*
X140105980Y-136654137D01*
X138956414Y-136654356D01*
X137887632Y-136654736D01*
X136896954Y-136655292D01*
X135981702Y-136656034D01*
X135139196Y-136656976D01*
X134366757Y-136658130D01*
X133661705Y-136659507D01*
X133021362Y-136661122D01*
X132443049Y-136662984D01*
X131924086Y-136665109D01*
X131461793Y-136667506D01*
X131053492Y-136670190D01*
X130696504Y-136673172D01*
X130388149Y-136676465D01*
X130125748Y-136680080D01*
X129906622Y-136684031D01*
X129728091Y-136688330D01*
X129587477Y-136692989D01*
X129482100Y-136698021D01*
X129409281Y-136703437D01*
X129366341Y-136709251D01*
X128912013Y-136841061D01*
X128462527Y-137053573D01*
X128057324Y-137334003D01*
X127704043Y-137676014D01*
X127410323Y-138073271D01*
X127183804Y-138519439D01*
X127073746Y-138846999D01*
X126985147Y-139328971D01*
X126973957Y-139821260D01*
X115128931Y-139821260D01*
X115126862Y-139624577D01*
X115127688Y-139482556D01*
X115132471Y-139264283D01*
X115143949Y-139096107D01*
X115165079Y-138954405D01*
X115198819Y-138815554D01*
X115248125Y-138655933D01*
X115437063Y-138175311D01*
X115698911Y-137699786D01*
X116013734Y-137283426D01*
X116376435Y-136934008D01*
X116377029Y-136933525D01*
X116661089Y-136730268D01*
X116996441Y-136534522D01*
X117349015Y-136364410D01*
X117684745Y-136238054D01*
X118007627Y-136137458D01*
X153266271Y-136137458D01*
X153589152Y-136238571D01*
X153826954Y-136319929D01*
X154340706Y-136551760D01*
X154791505Y-136841525D01*
X155181302Y-137190855D01*
X155512053Y-137601384D01*
X155785711Y-138074746D01*
X155893042Y-138305127D01*
X156006677Y-138592247D01*
X156083364Y-138862554D01*
X156131298Y-139146833D01*
X156158674Y-139475872D01*
X156160359Y-139509716D01*
X156155811Y-139646102D01*
X156142630Y-140041336D01*
X156044837Y-140560300D01*
G37*
G36*
X224152132Y-140152889D02*
G01*
X224128684Y-140343039D01*
X224092396Y-140507119D01*
X224067381Y-140590753D01*
X223968084Y-140857473D01*
X223836818Y-141149338D01*
X223687222Y-141439290D01*
X223532935Y-141700273D01*
X223387599Y-141905229D01*
X223198424Y-142117012D01*
X222813007Y-142453915D01*
X222374637Y-142736297D01*
X221896896Y-142957221D01*
X221393365Y-143109752D01*
X220877627Y-143186954D01*
X220873330Y-143187119D01*
X220801900Y-143187844D01*
X220647911Y-143188508D01*
X220414280Y-143189108D01*
X220103921Y-143189645D01*
X219719750Y-143190119D01*
X219264683Y-143190530D01*
X218741636Y-143190878D01*
X218153523Y-143191162D01*
X217503261Y-143191382D01*
X216793766Y-143191539D01*
X216027951Y-143191631D01*
X215208734Y-143191660D01*
X214339030Y-143191625D01*
X213421754Y-143191525D01*
X212459822Y-143191361D01*
X211456149Y-143191132D01*
X210413651Y-143190839D01*
X209335244Y-143190481D01*
X208223843Y-143190058D01*
X207082363Y-143189570D01*
X205913721Y-143189017D01*
X204720831Y-143188398D01*
X203506610Y-143187714D01*
X202959811Y-143187399D01*
X201526693Y-143186607D01*
X200176227Y-143185891D01*
X198905887Y-143185214D01*
X197713150Y-143184543D01*
X196595491Y-143183844D01*
X195550385Y-143183082D01*
X194575309Y-143182224D01*
X193667737Y-143181234D01*
X192825145Y-143180078D01*
X192045009Y-143178723D01*
X191324804Y-143177133D01*
X190662006Y-143175275D01*
X190054090Y-143173114D01*
X189498532Y-143170617D01*
X188992808Y-143167747D01*
X188534392Y-143164473D01*
X188120761Y-143160758D01*
X187749390Y-143156569D01*
X187417755Y-143151872D01*
X187123330Y-143146632D01*
X186863593Y-143140815D01*
X186636017Y-143134386D01*
X186438080Y-143127312D01*
X186267255Y-143119558D01*
X186121020Y-143111089D01*
X185996849Y-143101872D01*
X185892218Y-143091873D01*
X185804602Y-143081056D01*
X185731478Y-143069387D01*
X185670320Y-143056833D01*
X185618604Y-143043359D01*
X185573806Y-143028931D01*
X185533401Y-143013514D01*
X185494865Y-142997074D01*
X185455673Y-142979577D01*
X185413301Y-142960988D01*
X185365224Y-142941274D01*
X185251078Y-142893411D01*
X184882407Y-142699254D01*
X184522801Y-142454456D01*
X184191322Y-142174588D01*
X183907032Y-141875223D01*
X183688991Y-141571932D01*
X183665962Y-141532839D01*
X183409388Y-141022913D01*
X183236621Y-140514492D01*
X183145925Y-140001002D01*
X183136475Y-139522092D01*
X183734159Y-139522092D01*
X183749130Y-140003461D01*
X183844547Y-140472525D01*
X184019278Y-140922202D01*
X184272187Y-141345411D01*
X184602142Y-141735069D01*
X184764461Y-141890012D01*
X185108300Y-142159811D01*
X185477680Y-142367621D01*
X185898269Y-142529166D01*
X186243220Y-142638136D01*
X197823898Y-142643625D01*
X197826093Y-142643626D01*
X198822508Y-142643969D01*
X199798255Y-142644052D01*
X200749700Y-142643883D01*
X201673205Y-142643471D01*
X202565137Y-142642826D01*
X203421860Y-142641957D01*
X204239740Y-142640872D01*
X205015139Y-142639580D01*
X205744425Y-142638091D01*
X206423960Y-142636414D01*
X207050111Y-142634556D01*
X207619242Y-142632528D01*
X208127718Y-142630338D01*
X208571903Y-142627996D01*
X208948162Y-142625510D01*
X209252861Y-142622889D01*
X209482363Y-142620142D01*
X209633035Y-142617278D01*
X209701240Y-142614307D01*
X210072048Y-142547027D01*
X210530897Y-142392502D01*
X210950255Y-142169736D01*
X211324472Y-141885909D01*
X211647903Y-141548202D01*
X211914900Y-141163796D01*
X212119814Y-140739872D01*
X212256999Y-140283610D01*
X212320808Y-139802192D01*
X212305593Y-139302797D01*
X212216869Y-138837363D01*
X212048248Y-138375067D01*
X211808014Y-137952952D01*
X211501134Y-137577042D01*
X211132576Y-137253359D01*
X210707307Y-136987926D01*
X210230295Y-136786765D01*
X210181771Y-136772416D01*
X210018148Y-136735622D01*
X209815265Y-136700589D01*
X209606058Y-136673301D01*
X209602899Y-136672981D01*
X209503187Y-136667703D01*
X209317869Y-136662866D01*
X209046911Y-136658472D01*
X208690281Y-136654519D01*
X208247945Y-136651008D01*
X207719871Y-136647939D01*
X207106025Y-136645312D01*
X206406375Y-136643126D01*
X205620888Y-136641381D01*
X204749531Y-136640078D01*
X203792270Y-136639217D01*
X202749074Y-136638796D01*
X201619909Y-136638817D01*
X200404742Y-136639278D01*
X199103540Y-136640181D01*
X197716271Y-136641524D01*
X186243220Y-136654068D01*
X185898269Y-136763038D01*
X185442407Y-136945247D01*
X185008789Y-137202017D01*
X184628079Y-137519935D01*
X184307544Y-137892885D01*
X184054453Y-138314749D01*
X183950096Y-138550771D01*
X183800770Y-139035501D01*
X183734159Y-139522092D01*
X183136475Y-139522092D01*
X183135563Y-139475872D01*
X183153196Y-139236796D01*
X183194288Y-138942644D01*
X183261744Y-138671443D01*
X183363758Y-138392406D01*
X183508525Y-138074746D01*
X183617940Y-137865856D01*
X183915615Y-137419388D01*
X184271213Y-137035059D01*
X184686689Y-136711235D01*
X185163994Y-136446283D01*
X185705084Y-136238571D01*
X186027966Y-136137458D01*
X221286610Y-136137458D01*
X221609491Y-136238054D01*
X221610251Y-136238291D01*
X221946063Y-136364774D01*
X222298637Y-136534969D01*
X222633905Y-136730755D01*
X222917802Y-136934008D01*
X223251654Y-137251222D01*
X223570717Y-137662230D01*
X223837235Y-138133060D01*
X224046112Y-138655933D01*
X224074023Y-138743457D01*
X224114818Y-138889268D01*
X224141594Y-139026664D01*
X224157307Y-139179265D01*
X224164915Y-139370695D01*
X224167375Y-139624577D01*
X224165595Y-139802192D01*
X224164448Y-139916566D01*
X224152132Y-140152889D01*
G37*
G36*
X103849670Y-146221855D02*
G01*
X103539476Y-148570640D01*
X103213274Y-150918230D01*
X102870346Y-153271695D01*
X102819334Y-153611221D01*
X102735356Y-154153624D01*
X102658266Y-154623923D01*
X102585882Y-155030688D01*
X102516022Y-155382485D01*
X102446505Y-155687882D01*
X102375149Y-155955449D01*
X102299772Y-156193752D01*
X102218193Y-156411359D01*
X102128229Y-156616839D01*
X102027698Y-156818759D01*
X101914420Y-157025687D01*
X101572798Y-157551350D01*
X101148906Y-158054235D01*
X100665775Y-158499088D01*
X100128728Y-158882141D01*
X99543083Y-159199625D01*
X98914163Y-159447771D01*
X98247288Y-159622812D01*
X98032266Y-159658446D01*
X97614058Y-159696332D01*
X97169701Y-159703501D01*
X96733695Y-159679906D01*
X96340539Y-159625499D01*
X96127518Y-159580191D01*
X95469224Y-159386255D01*
X94852555Y-159120814D01*
X94282114Y-158787255D01*
X93762500Y-158388963D01*
X93298315Y-157929323D01*
X92894161Y-157411722D01*
X92554638Y-156839545D01*
X92416865Y-156555768D01*
X92199658Y-156016195D01*
X92050755Y-155486795D01*
X91965096Y-154947376D01*
X91950016Y-154634743D01*
X92635869Y-154634743D01*
X92663477Y-155017491D01*
X92726108Y-155379849D01*
X92827351Y-155751868D01*
X92920805Y-156023703D01*
X93180387Y-156605785D01*
X93502960Y-157133959D01*
X93885719Y-157603998D01*
X94325860Y-158011671D01*
X94593339Y-158204766D01*
X94960823Y-158425529D01*
X95360095Y-158627428D01*
X95762103Y-158795953D01*
X96137796Y-158916594D01*
X96153486Y-158920657D01*
X96384662Y-158973865D01*
X96606577Y-159009219D01*
X96850948Y-159030651D01*
X97149491Y-159042097D01*
X97191016Y-159043000D01*
X97412673Y-159045928D01*
X97607631Y-159045529D01*
X97756103Y-159041992D01*
X97838305Y-159035505D01*
X97926878Y-159018543D01*
X98514834Y-158876660D01*
X99042379Y-158692582D01*
X99525593Y-158459827D01*
X99980556Y-158171911D01*
X100256386Y-157964793D01*
X100496051Y-157755152D01*
X100711652Y-157527224D01*
X100931266Y-157253899D01*
X101048019Y-157095352D01*
X101209135Y-156856001D01*
X101349134Y-156615340D01*
X101471623Y-156362813D01*
X101580209Y-156087866D01*
X101678501Y-155779943D01*
X101770106Y-155428488D01*
X101858632Y-155022946D01*
X101947686Y-154552762D01*
X102040876Y-154007381D01*
X102280875Y-152532594D01*
X102515139Y-151057741D01*
X102736017Y-149627494D01*
X102946514Y-148221783D01*
X103149633Y-146820540D01*
X103348376Y-145403698D01*
X103545747Y-143951187D01*
X103561977Y-143829601D01*
X103614001Y-143433173D01*
X103654821Y-143107340D01*
X103685471Y-142840627D01*
X103706987Y-142621564D01*
X103720402Y-142438679D01*
X103726751Y-142280501D01*
X103727069Y-142135556D01*
X103722391Y-141992373D01*
X103672831Y-141522516D01*
X103535672Y-140950333D01*
X103317000Y-140398984D01*
X103019142Y-139875478D01*
X102952754Y-139779041D01*
X102601626Y-139359821D01*
X102185611Y-138992443D01*
X101710749Y-138681000D01*
X101183084Y-138429588D01*
X100608657Y-138242297D01*
X100497213Y-138214209D01*
X100334695Y-138178467D01*
X100187124Y-138156672D01*
X100029278Y-138146634D01*
X99835932Y-138146161D01*
X99581864Y-138153060D01*
X99542703Y-138154452D01*
X99172688Y-138177805D01*
X98856156Y-138222026D01*
X98564267Y-138294076D01*
X98268179Y-138400915D01*
X97939051Y-138549502D01*
X97892006Y-138572618D01*
X97390590Y-138868987D01*
X96942529Y-139228159D01*
X96553355Y-139643403D01*
X96228601Y-140107990D01*
X95973797Y-140615191D01*
X95794477Y-141158277D01*
X95758236Y-141294873D01*
X95717144Y-141432704D01*
X95686020Y-141518814D01*
X95681554Y-141530736D01*
X95657492Y-141620397D01*
X95621456Y-141776579D01*
X95576465Y-141985387D01*
X95525539Y-142232927D01*
X95471695Y-142505307D01*
X95407264Y-142831356D01*
X95252288Y-143576287D01*
X95074109Y-144387557D01*
X94875343Y-145254709D01*
X94658606Y-146167285D01*
X94426517Y-147114830D01*
X94181691Y-148086884D01*
X93926746Y-149072992D01*
X93664299Y-150062696D01*
X93396967Y-151045539D01*
X93127366Y-152011064D01*
X92858115Y-152948814D01*
X92791572Y-153181424D01*
X92733769Y-153401500D01*
X92694216Y-153586555D01*
X92668441Y-153761983D01*
X92651973Y-153953176D01*
X92640340Y-154185530D01*
X92639698Y-154201555D01*
X92635869Y-154634743D01*
X91950016Y-154634743D01*
X91937620Y-154377746D01*
X91943771Y-154078070D01*
X91972417Y-153720918D01*
X92028731Y-153371018D01*
X92117396Y-153000848D01*
X92243097Y-152582882D01*
X92306004Y-152383062D01*
X92400271Y-152071860D01*
X92511886Y-151693608D01*
X92638369Y-151257203D01*
X92777239Y-150771540D01*
X92926018Y-150245514D01*
X93082226Y-149688021D01*
X93243382Y-149107955D01*
X93407006Y-148514213D01*
X93570619Y-147915690D01*
X93731742Y-147321281D01*
X93887893Y-146739882D01*
X94036594Y-146180389D01*
X94175364Y-145651695D01*
X94295761Y-145186428D01*
X94608357Y-143946333D01*
X94910352Y-142699297D01*
X95202802Y-141439674D01*
X95486761Y-140161815D01*
X95763284Y-138860075D01*
X96033424Y-137528806D01*
X96298237Y-136162360D01*
X96558777Y-134755090D01*
X96816098Y-133301350D01*
X97071255Y-131795492D01*
X97325302Y-130231868D01*
X97579294Y-128604833D01*
X97834286Y-126908737D01*
X98091331Y-125137936D01*
X98351484Y-123286780D01*
X98426046Y-122745032D01*
X98510504Y-122124811D01*
X98597486Y-121479852D01*
X98686109Y-120817033D01*
X98775491Y-120143232D01*
X98864750Y-119465329D01*
X98953004Y-118790201D01*
X99039370Y-118124728D01*
X99122966Y-117475787D01*
X99202909Y-116850257D01*
X99278318Y-116255017D01*
X99348309Y-115696945D01*
X99412000Y-115182919D01*
X99468510Y-114719819D01*
X99516955Y-114314522D01*
X99556454Y-113973907D01*
X99586123Y-113704853D01*
X99605082Y-113514238D01*
X99683405Y-112976880D01*
X99836180Y-112428509D01*
X100057302Y-111930588D01*
X100345653Y-111484817D01*
X100700113Y-111092897D01*
X101119563Y-110756531D01*
X101602884Y-110477418D01*
X102014867Y-110301604D01*
X102418278Y-110185995D01*
X102831619Y-110129748D01*
X103284237Y-110126744D01*
X103474720Y-110138154D01*
X103814543Y-110179349D01*
X104122568Y-110252051D01*
X104430813Y-110364865D01*
X104771290Y-110526395D01*
X105007473Y-110656880D01*
X105405033Y-110932010D01*
X105740736Y-111250932D01*
X106027219Y-111626616D01*
X106277119Y-112072034D01*
X106343609Y-112208183D01*
X106404099Y-112334259D01*
X106457634Y-112453249D01*
X106504314Y-112570324D01*
X106544243Y-112690651D01*
X106577524Y-112819399D01*
X106604259Y-112961737D01*
X106624551Y-113122834D01*
X106638503Y-113307857D01*
X106646218Y-113521976D01*
X106647798Y-113770359D01*
X106643345Y-114058174D01*
X106632964Y-114390591D01*
X106616755Y-114772778D01*
X106594823Y-115209904D01*
X106567270Y-115707136D01*
X106534198Y-116269644D01*
X106495711Y-116902597D01*
X106451911Y-117611162D01*
X106402901Y-118400509D01*
X106228762Y-121112224D01*
X106039248Y-123861968D01*
X105840889Y-126539789D01*
X105632971Y-129152760D01*
X105414775Y-131707953D01*
X105185587Y-134212441D01*
X104944689Y-136673298D01*
X104691364Y-139097595D01*
X104424897Y-141492405D01*
X104348901Y-142135556D01*
X104144571Y-143864801D01*
X103849670Y-146221855D01*
G37*
G36*
X247293319Y-155223257D02*
G01*
X247176241Y-155755075D01*
X246993354Y-156287107D01*
X246739599Y-156839545D01*
X246654576Y-156999127D01*
X246297573Y-157555618D01*
X245876618Y-158057634D01*
X245396638Y-158501522D01*
X244862563Y-158883627D01*
X244279320Y-159200298D01*
X243651838Y-159447880D01*
X242985045Y-159622721D01*
X242769497Y-159658404D01*
X242351229Y-159696277D01*
X241906997Y-159703506D01*
X241471409Y-159680034D01*
X241079074Y-159625806D01*
X241069194Y-159623882D01*
X240397022Y-159451010D01*
X239762704Y-159203912D01*
X239171434Y-158885379D01*
X238628403Y-158498202D01*
X238138804Y-158045173D01*
X238001354Y-157895378D01*
X237622206Y-157413213D01*
X237305551Y-156891422D01*
X237044980Y-156318400D01*
X236834085Y-155682543D01*
X236808196Y-155576656D01*
X236765507Y-155367518D01*
X236713423Y-155083004D01*
X236652772Y-154728788D01*
X236584382Y-154310548D01*
X236509080Y-153833961D01*
X236427696Y-153304703D01*
X236341057Y-152728452D01*
X236249991Y-152110883D01*
X236155327Y-151457675D01*
X236057891Y-150774503D01*
X235958513Y-150067044D01*
X235858020Y-149340975D01*
X235757240Y-148601973D01*
X235657001Y-147855715D01*
X235558132Y-147107877D01*
X235461461Y-146364137D01*
X235367814Y-145630170D01*
X235170180Y-144036495D01*
X234939380Y-142085427D01*
X235567288Y-142085427D01*
X235575192Y-142352028D01*
X235597049Y-142661395D01*
X235633093Y-143024038D01*
X235683557Y-143450465D01*
X235748677Y-143951187D01*
X235854432Y-144733467D01*
X235972164Y-145588786D01*
X236091724Y-146442204D01*
X236212340Y-147288810D01*
X236333237Y-148123698D01*
X236453641Y-148941957D01*
X236572778Y-149738680D01*
X236689874Y-150508956D01*
X236804156Y-151247877D01*
X236914849Y-151950534D01*
X237021179Y-152612018D01*
X237122373Y-153227420D01*
X237217657Y-153791831D01*
X237306256Y-154300343D01*
X237387397Y-154748046D01*
X237460305Y-155130032D01*
X237524208Y-155441391D01*
X237578330Y-155677215D01*
X237621898Y-155832595D01*
X237703008Y-156055696D01*
X237920480Y-156537365D01*
X238183156Y-156994977D01*
X238478500Y-157407962D01*
X238793975Y-157755750D01*
X238897909Y-157851772D01*
X239342540Y-158196978D01*
X239847928Y-158498469D01*
X240399422Y-158748328D01*
X240982373Y-158938637D01*
X241146464Y-158975286D01*
X241481144Y-159021799D01*
X241852994Y-159045859D01*
X242232670Y-159046874D01*
X242590831Y-159024250D01*
X242898135Y-158977394D01*
X242965401Y-158962486D01*
X243292118Y-158879268D01*
X243588160Y-158781113D01*
X243886737Y-158655813D01*
X244221060Y-158491162D01*
X244231500Y-158485731D01*
X244753884Y-158165541D01*
X245222947Y-157780596D01*
X245634551Y-157336753D01*
X245984557Y-156839873D01*
X246268826Y-156295814D01*
X246483222Y-155710436D01*
X246623604Y-155089598D01*
X246640623Y-154960353D01*
X246660933Y-154627542D01*
X246657715Y-154260448D01*
X246632587Y-153888742D01*
X246587173Y-153542092D01*
X246523092Y-153250170D01*
X246171654Y-152009680D01*
X245780112Y-150595254D01*
X245415001Y-149239377D01*
X245077093Y-147945116D01*
X244767157Y-146715534D01*
X244485963Y-145553698D01*
X244234283Y-144462671D01*
X244012885Y-143445519D01*
X243822542Y-142505307D01*
X243806115Y-142421065D01*
X243752836Y-142154738D01*
X243703388Y-141917456D01*
X243660789Y-141723112D01*
X243628059Y-141585600D01*
X243608216Y-141518814D01*
X243582001Y-141447787D01*
X243541675Y-141314964D01*
X243499759Y-141158277D01*
X243486997Y-141108640D01*
X243300732Y-140568477D01*
X243039476Y-140064797D01*
X242708761Y-139604330D01*
X242314120Y-139193805D01*
X241861084Y-138839953D01*
X241355186Y-138549502D01*
X241321559Y-138533328D01*
X240996829Y-138389026D01*
X240702386Y-138285808D01*
X240409390Y-138216714D01*
X240088999Y-138174785D01*
X239712373Y-138153060D01*
X239566242Y-138148565D01*
X239347329Y-138145411D01*
X239175805Y-138150831D01*
X239026603Y-138166964D01*
X238874656Y-138195952D01*
X238694898Y-138239934D01*
X238398594Y-138326210D01*
X237833060Y-138551930D01*
X237322723Y-138842118D01*
X236870092Y-139194327D01*
X236477676Y-139606107D01*
X236147985Y-140075013D01*
X235883526Y-140598595D01*
X235686811Y-141174407D01*
X235670516Y-141236480D01*
X235624951Y-141437117D01*
X235592402Y-141638481D01*
X235573103Y-141851081D01*
X235567288Y-142085427D01*
X234939380Y-142085427D01*
X234889511Y-141663858D01*
X234622231Y-139267022D01*
X234367717Y-136839148D01*
X234125348Y-134373398D01*
X233894501Y-131862932D01*
X233674555Y-129300911D01*
X233464887Y-126680497D01*
X233264876Y-123994852D01*
X233073900Y-121237135D01*
X232891336Y-118400509D01*
X232843019Y-117622334D01*
X232799140Y-116912602D01*
X232760573Y-116278559D01*
X232727420Y-115715037D01*
X232699784Y-115216869D01*
X232677767Y-114778884D01*
X232661472Y-114395916D01*
X232651003Y-114062794D01*
X232646462Y-113774351D01*
X232647950Y-113525417D01*
X232655573Y-113310825D01*
X232669431Y-113125406D01*
X232689628Y-112963990D01*
X232716266Y-112821411D01*
X232749448Y-112692497D01*
X232789278Y-112572083D01*
X232835856Y-112454998D01*
X232889288Y-112336074D01*
X232949674Y-112210142D01*
X233017118Y-112072034D01*
X233143707Y-111830156D01*
X233411117Y-111422737D01*
X233721701Y-111078285D01*
X234088099Y-110783828D01*
X234522947Y-110526395D01*
X234698071Y-110439547D01*
X235018538Y-110303286D01*
X235322672Y-110211468D01*
X235642488Y-110155489D01*
X236010000Y-110126744D01*
X236452098Y-110129062D01*
X236866052Y-110183928D01*
X237269355Y-110298007D01*
X237691353Y-110477418D01*
X238130755Y-110727043D01*
X238556424Y-111057954D01*
X238917210Y-111444581D01*
X239211996Y-111885224D01*
X239439661Y-112378182D01*
X239599088Y-112921754D01*
X239689155Y-113514238D01*
X239706146Y-113686198D01*
X239734971Y-113949086D01*
X239773698Y-114284098D01*
X239821444Y-114684356D01*
X239877326Y-115142980D01*
X239940462Y-115653093D01*
X240009971Y-116207817D01*
X240084969Y-116800271D01*
X240164574Y-117423579D01*
X240247903Y-118070861D01*
X240334076Y-118735239D01*
X240422208Y-119409834D01*
X240511418Y-120087769D01*
X240600824Y-120762164D01*
X240689542Y-121426141D01*
X240776691Y-122072822D01*
X240861389Y-122695328D01*
X240942752Y-123286780D01*
X241040924Y-123992043D01*
X241299786Y-125812348D01*
X241555936Y-127554420D01*
X241810428Y-129223907D01*
X242064317Y-130826456D01*
X242318658Y-132367715D01*
X242574504Y-133853330D01*
X242832911Y-135288949D01*
X243094932Y-136680219D01*
X243361623Y-138032787D01*
X243634038Y-139352300D01*
X243913230Y-140644405D01*
X244200256Y-141914750D01*
X244496168Y-143168982D01*
X244802023Y-144412748D01*
X245118873Y-145651695D01*
X245232476Y-146085030D01*
X245379611Y-146639757D01*
X245534634Y-147217953D01*
X245695062Y-147810720D01*
X245858417Y-148409164D01*
X246022220Y-149004390D01*
X246183989Y-149587502D01*
X246341245Y-150149605D01*
X246491508Y-150681803D01*
X246632299Y-151175201D01*
X246761138Y-151620903D01*
X246875544Y-152010014D01*
X246973038Y-152333639D01*
X247051140Y-152582882D01*
X247152063Y-152912333D01*
X247248619Y-153290819D01*
X247311774Y-153642868D01*
X247346212Y-153996002D01*
X247356617Y-154377746D01*
X247350691Y-154627542D01*
X247349649Y-154671461D01*
X247293319Y-155223257D01*
G37*
%LPC*%
G36*
X200845500Y-144865500D02*
G01*
X200907500Y-144875500D01*
X200967500Y-144891500D01*
X201026500Y-144914500D01*
X201082500Y-144942500D01*
X201135500Y-144977500D01*
X201183500Y-145016500D01*
X201228500Y-145061500D01*
X201267500Y-145109500D01*
X201302500Y-145162500D01*
X201330500Y-145218500D01*
X201353500Y-145277500D01*
X201369500Y-145337500D01*
X201379500Y-145399500D01*
X201382500Y-145462500D01*
X201382500Y-146662500D01*
X201379500Y-146725500D01*
X201369500Y-146787500D01*
X201353500Y-146847500D01*
X201330500Y-146906500D01*
X201302500Y-146962500D01*
X201267500Y-147015500D01*
X201228500Y-147063500D01*
X201183500Y-147108500D01*
X201135500Y-147147500D01*
X201082500Y-147182500D01*
X201026500Y-147210500D01*
X200967500Y-147233500D01*
X200907500Y-147249500D01*
X200845500Y-147259500D01*
X200782500Y-147262500D01*
X200719500Y-147259500D01*
X200657500Y-147249500D01*
X200597500Y-147233500D01*
X200538500Y-147210500D01*
X200482500Y-147182500D01*
X200429500Y-147147500D01*
X200381500Y-147108500D01*
X200336500Y-147063500D01*
X200297500Y-147015500D01*
X200262500Y-146962500D01*
X200234500Y-146906500D01*
X200211500Y-146847500D01*
X200195500Y-146787500D01*
X200185500Y-146725500D01*
X200182500Y-146662500D01*
X200182500Y-145462500D01*
X200185500Y-145399500D01*
X200195500Y-145337500D01*
X200211500Y-145277500D01*
X200234500Y-145218500D01*
X200262500Y-145162500D01*
X200297500Y-145109500D01*
X200336500Y-145061500D01*
X200381500Y-145016500D01*
X200429500Y-144977500D01*
X200482500Y-144942500D01*
X200538500Y-144914500D01*
X200597500Y-144891500D01*
X200657500Y-144875500D01*
X200719500Y-144865500D01*
X200782500Y-144862500D01*
X200845500Y-144865500D01*
G37*
D11*
X200845500Y-144865500D02*
X200907500Y-144875500D01*
X200967500Y-144891500D01*
X201026500Y-144914500D01*
X201082500Y-144942500D01*
X201135500Y-144977500D01*
X201183500Y-145016500D01*
X201228500Y-145061500D01*
X201267500Y-145109500D01*
X201302500Y-145162500D01*
X201330500Y-145218500D01*
X201353500Y-145277500D01*
X201369500Y-145337500D01*
X201379500Y-145399500D01*
X201382500Y-145462500D01*
X201382500Y-146662500D01*
X201379500Y-146725500D01*
X201369500Y-146787500D01*
X201353500Y-146847500D01*
X201330500Y-146906500D01*
X201302500Y-146962500D01*
X201267500Y-147015500D01*
X201228500Y-147063500D01*
X201183500Y-147108500D01*
X201135500Y-147147500D01*
X201082500Y-147182500D01*
X201026500Y-147210500D01*
X200967500Y-147233500D01*
X200907500Y-147249500D01*
X200845500Y-147259500D01*
X200782500Y-147262500D01*
X200719500Y-147259500D01*
X200657500Y-147249500D01*
X200597500Y-147233500D01*
X200538500Y-147210500D01*
X200482500Y-147182500D01*
X200429500Y-147147500D01*
X200381500Y-147108500D01*
X200336500Y-147063500D01*
X200297500Y-147015500D01*
X200262500Y-146962500D01*
X200234500Y-146906500D01*
X200211500Y-146847500D01*
X200195500Y-146787500D01*
X200185500Y-146725500D01*
X200182500Y-146662500D01*
X200182500Y-145462500D01*
X200185500Y-145399500D01*
X200195500Y-145337500D01*
X200211500Y-145277500D01*
X200234500Y-145218500D01*
X200262500Y-145162500D01*
X200297500Y-145109500D01*
X200336500Y-145061500D01*
X200381500Y-145016500D01*
X200429500Y-144977500D01*
X200482500Y-144942500D01*
X200538500Y-144914500D01*
X200597500Y-144891500D01*
X200657500Y-144875500D01*
X200719500Y-144865500D01*
X200782500Y-144862500D01*
X200845500Y-144865500D01*
G36*
X200845500Y-141065500D02*
G01*
X200907500Y-141075500D01*
X200967500Y-141091500D01*
X201026500Y-141114500D01*
X201082500Y-141142500D01*
X201135500Y-141177500D01*
X201183500Y-141216500D01*
X201228500Y-141261500D01*
X201267500Y-141309500D01*
X201302500Y-141362500D01*
X201330500Y-141418500D01*
X201353500Y-141477500D01*
X201369500Y-141537500D01*
X201379500Y-141599500D01*
X201382500Y-141662500D01*
X201382500Y-142462500D01*
X201379500Y-142525500D01*
X201369500Y-142587500D01*
X201353500Y-142647500D01*
X201330500Y-142706500D01*
X201302500Y-142762500D01*
X201267500Y-142815500D01*
X201228500Y-142863500D01*
X201183500Y-142908500D01*
X201135500Y-142947500D01*
X201082500Y-142982500D01*
X201026500Y-143010500D01*
X200967500Y-143033500D01*
X200907500Y-143049500D01*
X200845500Y-143059500D01*
X200782500Y-143062500D01*
X200719500Y-143059500D01*
X200657500Y-143049500D01*
X200597500Y-143033500D01*
X200538500Y-143010500D01*
X200482500Y-142982500D01*
X200429500Y-142947500D01*
X200381500Y-142908500D01*
X200336500Y-142863500D01*
X200297500Y-142815500D01*
X200262500Y-142762500D01*
X200234500Y-142706500D01*
X200211500Y-142647500D01*
X200195500Y-142587500D01*
X200185500Y-142525500D01*
X200182500Y-142462500D01*
X200182500Y-141662500D01*
X200185500Y-141599500D01*
X200195500Y-141537500D01*
X200211500Y-141477500D01*
X200234500Y-141418500D01*
X200262500Y-141362500D01*
X200297500Y-141309500D01*
X200336500Y-141261500D01*
X200381500Y-141216500D01*
X200429500Y-141177500D01*
X200482500Y-141142500D01*
X200538500Y-141114500D01*
X200597500Y-141091500D01*
X200657500Y-141075500D01*
X200719500Y-141065500D01*
X200782500Y-141062500D01*
X200845500Y-141065500D01*
G37*
X200845500Y-141065500D02*
X200907500Y-141075500D01*
X200967500Y-141091500D01*
X201026500Y-141114500D01*
X201082500Y-141142500D01*
X201135500Y-141177500D01*
X201183500Y-141216500D01*
X201228500Y-141261500D01*
X201267500Y-141309500D01*
X201302500Y-141362500D01*
X201330500Y-141418500D01*
X201353500Y-141477500D01*
X201369500Y-141537500D01*
X201379500Y-141599500D01*
X201382500Y-141662500D01*
X201382500Y-142462500D01*
X201379500Y-142525500D01*
X201369500Y-142587500D01*
X201353500Y-142647500D01*
X201330500Y-142706500D01*
X201302500Y-142762500D01*
X201267500Y-142815500D01*
X201228500Y-142863500D01*
X201183500Y-142908500D01*
X201135500Y-142947500D01*
X201082500Y-142982500D01*
X201026500Y-143010500D01*
X200967500Y-143033500D01*
X200907500Y-143049500D01*
X200845500Y-143059500D01*
X200782500Y-143062500D01*
X200719500Y-143059500D01*
X200657500Y-143049500D01*
X200597500Y-143033500D01*
X200538500Y-143010500D01*
X200482500Y-142982500D01*
X200429500Y-142947500D01*
X200381500Y-142908500D01*
X200336500Y-142863500D01*
X200297500Y-142815500D01*
X200262500Y-142762500D01*
X200234500Y-142706500D01*
X200211500Y-142647500D01*
X200195500Y-142587500D01*
X200185500Y-142525500D01*
X200182500Y-142462500D01*
X200182500Y-141662500D01*
X200185500Y-141599500D01*
X200195500Y-141537500D01*
X200211500Y-141477500D01*
X200234500Y-141418500D01*
X200262500Y-141362500D01*
X200297500Y-141309500D01*
X200336500Y-141261500D01*
X200381500Y-141216500D01*
X200429500Y-141177500D01*
X200482500Y-141142500D01*
X200538500Y-141114500D01*
X200597500Y-141091500D01*
X200657500Y-141075500D01*
X200719500Y-141065500D01*
X200782500Y-141062500D01*
X200845500Y-141065500D01*
G36*
X189605500Y-141065500D02*
G01*
X189667500Y-141075500D01*
X189727500Y-141091500D01*
X189786500Y-141114500D01*
X189842500Y-141142500D01*
X189895500Y-141177500D01*
X189943500Y-141216500D01*
X189988500Y-141261500D01*
X190027500Y-141309500D01*
X190062500Y-141362500D01*
X190090500Y-141418500D01*
X190113500Y-141477500D01*
X190129500Y-141537500D01*
X190139500Y-141599500D01*
X190142500Y-141662500D01*
X190142500Y-142462500D01*
X190139500Y-142525500D01*
X190129500Y-142587500D01*
X190113500Y-142647500D01*
X190090500Y-142706500D01*
X190062500Y-142762500D01*
X190027500Y-142815500D01*
X189988500Y-142863500D01*
X189943500Y-142908500D01*
X189895500Y-142947500D01*
X189842500Y-142982500D01*
X189786500Y-143010500D01*
X189727500Y-143033500D01*
X189667500Y-143049500D01*
X189605500Y-143059500D01*
X189542500Y-143062500D01*
X189479500Y-143059500D01*
X189417500Y-143049500D01*
X189357500Y-143033500D01*
X189298500Y-143010500D01*
X189242500Y-142982500D01*
X189189500Y-142947500D01*
X189141500Y-142908500D01*
X189096500Y-142863500D01*
X189057500Y-142815500D01*
X189022500Y-142762500D01*
X188994500Y-142706500D01*
X188971500Y-142647500D01*
X188955500Y-142587500D01*
X188945500Y-142525500D01*
X188942500Y-142462500D01*
X188942500Y-141662500D01*
X188945500Y-141599500D01*
X188955500Y-141537500D01*
X188971500Y-141477500D01*
X188994500Y-141418500D01*
X189022500Y-141362500D01*
X189057500Y-141309500D01*
X189096500Y-141261500D01*
X189141500Y-141216500D01*
X189189500Y-141177500D01*
X189242500Y-141142500D01*
X189298500Y-141114500D01*
X189357500Y-141091500D01*
X189417500Y-141075500D01*
X189479500Y-141065500D01*
X189542500Y-141062500D01*
X189605500Y-141065500D01*
G37*
X189605500Y-141065500D02*
X189667500Y-141075500D01*
X189727500Y-141091500D01*
X189786500Y-141114500D01*
X189842500Y-141142500D01*
X189895500Y-141177500D01*
X189943500Y-141216500D01*
X189988500Y-141261500D01*
X190027500Y-141309500D01*
X190062500Y-141362500D01*
X190090500Y-141418500D01*
X190113500Y-141477500D01*
X190129500Y-141537500D01*
X190139500Y-141599500D01*
X190142500Y-141662500D01*
X190142500Y-142462500D01*
X190139500Y-142525500D01*
X190129500Y-142587500D01*
X190113500Y-142647500D01*
X190090500Y-142706500D01*
X190062500Y-142762500D01*
X190027500Y-142815500D01*
X189988500Y-142863500D01*
X189943500Y-142908500D01*
X189895500Y-142947500D01*
X189842500Y-142982500D01*
X189786500Y-143010500D01*
X189727500Y-143033500D01*
X189667500Y-143049500D01*
X189605500Y-143059500D01*
X189542500Y-143062500D01*
X189479500Y-143059500D01*
X189417500Y-143049500D01*
X189357500Y-143033500D01*
X189298500Y-143010500D01*
X189242500Y-142982500D01*
X189189500Y-142947500D01*
X189141500Y-142908500D01*
X189096500Y-142863500D01*
X189057500Y-142815500D01*
X189022500Y-142762500D01*
X188994500Y-142706500D01*
X188971500Y-142647500D01*
X188955500Y-142587500D01*
X188945500Y-142525500D01*
X188942500Y-142462500D01*
X188942500Y-141662500D01*
X188945500Y-141599500D01*
X188955500Y-141537500D01*
X188971500Y-141477500D01*
X188994500Y-141418500D01*
X189022500Y-141362500D01*
X189057500Y-141309500D01*
X189096500Y-141261500D01*
X189141500Y-141216500D01*
X189189500Y-141177500D01*
X189242500Y-141142500D01*
X189298500Y-141114500D01*
X189357500Y-141091500D01*
X189417500Y-141075500D01*
X189479500Y-141065500D01*
X189542500Y-141062500D01*
X189605500Y-141065500D01*
G36*
X189605500Y-144865500D02*
G01*
X189667500Y-144875500D01*
X189727500Y-144891500D01*
X189786500Y-144914500D01*
X189842500Y-144942500D01*
X189895500Y-144977500D01*
X189943500Y-145016500D01*
X189988500Y-145061500D01*
X190027500Y-145109500D01*
X190062500Y-145162500D01*
X190090500Y-145218500D01*
X190113500Y-145277500D01*
X190129500Y-145337500D01*
X190139500Y-145399500D01*
X190142500Y-145462500D01*
X190142500Y-146662500D01*
X190139500Y-146725500D01*
X190129500Y-146787500D01*
X190113500Y-146847500D01*
X190090500Y-146906500D01*
X190062500Y-146962500D01*
X190027500Y-147015500D01*
X189988500Y-147063500D01*
X189943500Y-147108500D01*
X189895500Y-147147500D01*
X189842500Y-147182500D01*
X189786500Y-147210500D01*
X189727500Y-147233500D01*
X189667500Y-147249500D01*
X189605500Y-147259500D01*
X189542500Y-147262500D01*
X189479500Y-147259500D01*
X189417500Y-147249500D01*
X189357500Y-147233500D01*
X189298500Y-147210500D01*
X189242500Y-147182500D01*
X189189500Y-147147500D01*
X189141500Y-147108500D01*
X189096500Y-147063500D01*
X189057500Y-147015500D01*
X189022500Y-146962500D01*
X188994500Y-146906500D01*
X188971500Y-146847500D01*
X188955500Y-146787500D01*
X188945500Y-146725500D01*
X188942500Y-146662500D01*
X188942500Y-145462500D01*
X188945500Y-145399500D01*
X188955500Y-145337500D01*
X188971500Y-145277500D01*
X188994500Y-145218500D01*
X189022500Y-145162500D01*
X189057500Y-145109500D01*
X189096500Y-145061500D01*
X189141500Y-145016500D01*
X189189500Y-144977500D01*
X189242500Y-144942500D01*
X189298500Y-144914500D01*
X189357500Y-144891500D01*
X189417500Y-144875500D01*
X189479500Y-144865500D01*
X189542500Y-144862500D01*
X189605500Y-144865500D01*
G37*
X189605500Y-144865500D02*
X189667500Y-144875500D01*
X189727500Y-144891500D01*
X189786500Y-144914500D01*
X189842500Y-144942500D01*
X189895500Y-144977500D01*
X189943500Y-145016500D01*
X189988500Y-145061500D01*
X190027500Y-145109500D01*
X190062500Y-145162500D01*
X190090500Y-145218500D01*
X190113500Y-145277500D01*
X190129500Y-145337500D01*
X190139500Y-145399500D01*
X190142500Y-145462500D01*
X190142500Y-146662500D01*
X190139500Y-146725500D01*
X190129500Y-146787500D01*
X190113500Y-146847500D01*
X190090500Y-146906500D01*
X190062500Y-146962500D01*
X190027500Y-147015500D01*
X189988500Y-147063500D01*
X189943500Y-147108500D01*
X189895500Y-147147500D01*
X189842500Y-147182500D01*
X189786500Y-147210500D01*
X189727500Y-147233500D01*
X189667500Y-147249500D01*
X189605500Y-147259500D01*
X189542500Y-147262500D01*
X189479500Y-147259500D01*
X189417500Y-147249500D01*
X189357500Y-147233500D01*
X189298500Y-147210500D01*
X189242500Y-147182500D01*
X189189500Y-147147500D01*
X189141500Y-147108500D01*
X189096500Y-147063500D01*
X189057500Y-147015500D01*
X189022500Y-146962500D01*
X188994500Y-146906500D01*
X188971500Y-146847500D01*
X188955500Y-146787500D01*
X188945500Y-146725500D01*
X188942500Y-146662500D01*
X188942500Y-145462500D01*
X188945500Y-145399500D01*
X188955500Y-145337500D01*
X188971500Y-145277500D01*
X188994500Y-145218500D01*
X189022500Y-145162500D01*
X189057500Y-145109500D01*
X189096500Y-145061500D01*
X189141500Y-145016500D01*
X189189500Y-144977500D01*
X189242500Y-144942500D01*
X189298500Y-144914500D01*
X189357500Y-144891500D01*
X189417500Y-144875500D01*
X189479500Y-144865500D01*
X189542500Y-144862500D01*
X189605500Y-144865500D01*
G36*
X149845500Y-141065500D02*
G01*
X149907500Y-141075500D01*
X149967500Y-141091500D01*
X150026500Y-141114500D01*
X150082500Y-141142500D01*
X150135500Y-141177500D01*
X150183500Y-141216500D01*
X150228500Y-141261500D01*
X150267500Y-141309500D01*
X150302500Y-141362500D01*
X150330500Y-141418500D01*
X150353500Y-141477500D01*
X150369500Y-141537500D01*
X150379500Y-141599500D01*
X150382500Y-141662500D01*
X150382500Y-142462500D01*
X150379500Y-142525500D01*
X150369500Y-142587500D01*
X150353500Y-142647500D01*
X150330500Y-142706500D01*
X150302500Y-142762500D01*
X150267500Y-142815500D01*
X150228500Y-142863500D01*
X150183500Y-142908500D01*
X150135500Y-142947500D01*
X150082500Y-142982500D01*
X150026500Y-143010500D01*
X149967500Y-143033500D01*
X149907500Y-143049500D01*
X149845500Y-143059500D01*
X149782500Y-143062500D01*
X149719500Y-143059500D01*
X149657500Y-143049500D01*
X149597500Y-143033500D01*
X149538500Y-143010500D01*
X149482500Y-142982500D01*
X149429500Y-142947500D01*
X149381500Y-142908500D01*
X149336500Y-142863500D01*
X149297500Y-142815500D01*
X149262500Y-142762500D01*
X149234500Y-142706500D01*
X149211500Y-142647500D01*
X149195500Y-142587500D01*
X149185500Y-142525500D01*
X149182500Y-142462500D01*
X149182500Y-141662500D01*
X149185500Y-141599500D01*
X149195500Y-141537500D01*
X149211500Y-141477500D01*
X149234500Y-141418500D01*
X149262500Y-141362500D01*
X149297500Y-141309500D01*
X149336500Y-141261500D01*
X149381500Y-141216500D01*
X149429500Y-141177500D01*
X149482500Y-141142500D01*
X149538500Y-141114500D01*
X149597500Y-141091500D01*
X149657500Y-141075500D01*
X149719500Y-141065500D01*
X149782500Y-141062500D01*
X149845500Y-141065500D01*
G37*
X149845500Y-141065500D02*
X149907500Y-141075500D01*
X149967500Y-141091500D01*
X150026500Y-141114500D01*
X150082500Y-141142500D01*
X150135500Y-141177500D01*
X150183500Y-141216500D01*
X150228500Y-141261500D01*
X150267500Y-141309500D01*
X150302500Y-141362500D01*
X150330500Y-141418500D01*
X150353500Y-141477500D01*
X150369500Y-141537500D01*
X150379500Y-141599500D01*
X150382500Y-141662500D01*
X150382500Y-142462500D01*
X150379500Y-142525500D01*
X150369500Y-142587500D01*
X150353500Y-142647500D01*
X150330500Y-142706500D01*
X150302500Y-142762500D01*
X150267500Y-142815500D01*
X150228500Y-142863500D01*
X150183500Y-142908500D01*
X150135500Y-142947500D01*
X150082500Y-142982500D01*
X150026500Y-143010500D01*
X149967500Y-143033500D01*
X149907500Y-143049500D01*
X149845500Y-143059500D01*
X149782500Y-143062500D01*
X149719500Y-143059500D01*
X149657500Y-143049500D01*
X149597500Y-143033500D01*
X149538500Y-143010500D01*
X149482500Y-142982500D01*
X149429500Y-142947500D01*
X149381500Y-142908500D01*
X149336500Y-142863500D01*
X149297500Y-142815500D01*
X149262500Y-142762500D01*
X149234500Y-142706500D01*
X149211500Y-142647500D01*
X149195500Y-142587500D01*
X149185500Y-142525500D01*
X149182500Y-142462500D01*
X149182500Y-141662500D01*
X149185500Y-141599500D01*
X149195500Y-141537500D01*
X149211500Y-141477500D01*
X149234500Y-141418500D01*
X149262500Y-141362500D01*
X149297500Y-141309500D01*
X149336500Y-141261500D01*
X149381500Y-141216500D01*
X149429500Y-141177500D01*
X149482500Y-141142500D01*
X149538500Y-141114500D01*
X149597500Y-141091500D01*
X149657500Y-141075500D01*
X149719500Y-141065500D01*
X149782500Y-141062500D01*
X149845500Y-141065500D01*
G36*
X138605500Y-144865500D02*
G01*
X138667500Y-144875500D01*
X138727500Y-144891500D01*
X138786500Y-144914500D01*
X138842500Y-144942500D01*
X138895500Y-144977500D01*
X138943500Y-145016500D01*
X138988500Y-145061500D01*
X139027500Y-145109500D01*
X139062500Y-145162500D01*
X139090500Y-145218500D01*
X139113500Y-145277500D01*
X139129500Y-145337500D01*
X139139500Y-145399500D01*
X139142500Y-145462500D01*
X139142500Y-146662500D01*
X139139500Y-146725500D01*
X139129500Y-146787500D01*
X139113500Y-146847500D01*
X139090500Y-146906500D01*
X139062500Y-146962500D01*
X139027500Y-147015500D01*
X138988500Y-147063500D01*
X138943500Y-147108500D01*
X138895500Y-147147500D01*
X138842500Y-147182500D01*
X138786500Y-147210500D01*
X138727500Y-147233500D01*
X138667500Y-147249500D01*
X138605500Y-147259500D01*
X138542500Y-147262500D01*
X138479500Y-147259500D01*
X138417500Y-147249500D01*
X138357500Y-147233500D01*
X138298500Y-147210500D01*
X138242500Y-147182500D01*
X138189500Y-147147500D01*
X138141500Y-147108500D01*
X138096500Y-147063500D01*
X138057500Y-147015500D01*
X138022500Y-146962500D01*
X137994500Y-146906500D01*
X137971500Y-146847500D01*
X137955500Y-146787500D01*
X137945500Y-146725500D01*
X137942500Y-146662500D01*
X137942500Y-145462500D01*
X137945500Y-145399500D01*
X137955500Y-145337500D01*
X137971500Y-145277500D01*
X137994500Y-145218500D01*
X138022500Y-145162500D01*
X138057500Y-145109500D01*
X138096500Y-145061500D01*
X138141500Y-145016500D01*
X138189500Y-144977500D01*
X138242500Y-144942500D01*
X138298500Y-144914500D01*
X138357500Y-144891500D01*
X138417500Y-144875500D01*
X138479500Y-144865500D01*
X138542500Y-144862500D01*
X138605500Y-144865500D01*
G37*
X138605500Y-144865500D02*
X138667500Y-144875500D01*
X138727500Y-144891500D01*
X138786500Y-144914500D01*
X138842500Y-144942500D01*
X138895500Y-144977500D01*
X138943500Y-145016500D01*
X138988500Y-145061500D01*
X139027500Y-145109500D01*
X139062500Y-145162500D01*
X139090500Y-145218500D01*
X139113500Y-145277500D01*
X139129500Y-145337500D01*
X139139500Y-145399500D01*
X139142500Y-145462500D01*
X139142500Y-146662500D01*
X139139500Y-146725500D01*
X139129500Y-146787500D01*
X139113500Y-146847500D01*
X139090500Y-146906500D01*
X139062500Y-146962500D01*
X139027500Y-147015500D01*
X138988500Y-147063500D01*
X138943500Y-147108500D01*
X138895500Y-147147500D01*
X138842500Y-147182500D01*
X138786500Y-147210500D01*
X138727500Y-147233500D01*
X138667500Y-147249500D01*
X138605500Y-147259500D01*
X138542500Y-147262500D01*
X138479500Y-147259500D01*
X138417500Y-147249500D01*
X138357500Y-147233500D01*
X138298500Y-147210500D01*
X138242500Y-147182500D01*
X138189500Y-147147500D01*
X138141500Y-147108500D01*
X138096500Y-147063500D01*
X138057500Y-147015500D01*
X138022500Y-146962500D01*
X137994500Y-146906500D01*
X137971500Y-146847500D01*
X137955500Y-146787500D01*
X137945500Y-146725500D01*
X137942500Y-146662500D01*
X137942500Y-145462500D01*
X137945500Y-145399500D01*
X137955500Y-145337500D01*
X137971500Y-145277500D01*
X137994500Y-145218500D01*
X138022500Y-145162500D01*
X138057500Y-145109500D01*
X138096500Y-145061500D01*
X138141500Y-145016500D01*
X138189500Y-144977500D01*
X138242500Y-144942500D01*
X138298500Y-144914500D01*
X138357500Y-144891500D01*
X138417500Y-144875500D01*
X138479500Y-144865500D01*
X138542500Y-144862500D01*
X138605500Y-144865500D01*
G36*
X138605500Y-141065500D02*
G01*
X138667500Y-141075500D01*
X138727500Y-141091500D01*
X138786500Y-141114500D01*
X138842500Y-141142500D01*
X138895500Y-141177500D01*
X138943500Y-141216500D01*
X138988500Y-141261500D01*
X139027500Y-141309500D01*
X139062500Y-141362500D01*
X139090500Y-141418500D01*
X139113500Y-141477500D01*
X139129500Y-141537500D01*
X139139500Y-141599500D01*
X139142500Y-141662500D01*
X139142500Y-142462500D01*
X139139500Y-142525500D01*
X139129500Y-142587500D01*
X139113500Y-142647500D01*
X139090500Y-142706500D01*
X139062500Y-142762500D01*
X139027500Y-142815500D01*
X138988500Y-142863500D01*
X138943500Y-142908500D01*
X138895500Y-142947500D01*
X138842500Y-142982500D01*
X138786500Y-143010500D01*
X138727500Y-143033500D01*
X138667500Y-143049500D01*
X138605500Y-143059500D01*
X138542500Y-143062500D01*
X138479500Y-143059500D01*
X138417500Y-143049500D01*
X138357500Y-143033500D01*
X138298500Y-143010500D01*
X138242500Y-142982500D01*
X138189500Y-142947500D01*
X138141500Y-142908500D01*
X138096500Y-142863500D01*
X138057500Y-142815500D01*
X138022500Y-142762500D01*
X137994500Y-142706500D01*
X137971500Y-142647500D01*
X137955500Y-142587500D01*
X137945500Y-142525500D01*
X137942500Y-142462500D01*
X137942500Y-141662500D01*
X137945500Y-141599500D01*
X137955500Y-141537500D01*
X137971500Y-141477500D01*
X137994500Y-141418500D01*
X138022500Y-141362500D01*
X138057500Y-141309500D01*
X138096500Y-141261500D01*
X138141500Y-141216500D01*
X138189500Y-141177500D01*
X138242500Y-141142500D01*
X138298500Y-141114500D01*
X138357500Y-141091500D01*
X138417500Y-141075500D01*
X138479500Y-141065500D01*
X138542500Y-141062500D01*
X138605500Y-141065500D01*
G37*
X138605500Y-141065500D02*
X138667500Y-141075500D01*
X138727500Y-141091500D01*
X138786500Y-141114500D01*
X138842500Y-141142500D01*
X138895500Y-141177500D01*
X138943500Y-141216500D01*
X138988500Y-141261500D01*
X139027500Y-141309500D01*
X139062500Y-141362500D01*
X139090500Y-141418500D01*
X139113500Y-141477500D01*
X139129500Y-141537500D01*
X139139500Y-141599500D01*
X139142500Y-141662500D01*
X139142500Y-142462500D01*
X139139500Y-142525500D01*
X139129500Y-142587500D01*
X139113500Y-142647500D01*
X139090500Y-142706500D01*
X139062500Y-142762500D01*
X139027500Y-142815500D01*
X138988500Y-142863500D01*
X138943500Y-142908500D01*
X138895500Y-142947500D01*
X138842500Y-142982500D01*
X138786500Y-143010500D01*
X138727500Y-143033500D01*
X138667500Y-143049500D01*
X138605500Y-143059500D01*
X138542500Y-143062500D01*
X138479500Y-143059500D01*
X138417500Y-143049500D01*
X138357500Y-143033500D01*
X138298500Y-143010500D01*
X138242500Y-142982500D01*
X138189500Y-142947500D01*
X138141500Y-142908500D01*
X138096500Y-142863500D01*
X138057500Y-142815500D01*
X138022500Y-142762500D01*
X137994500Y-142706500D01*
X137971500Y-142647500D01*
X137955500Y-142587500D01*
X137945500Y-142525500D01*
X137942500Y-142462500D01*
X137942500Y-141662500D01*
X137945500Y-141599500D01*
X137955500Y-141537500D01*
X137971500Y-141477500D01*
X137994500Y-141418500D01*
X138022500Y-141362500D01*
X138057500Y-141309500D01*
X138096500Y-141261500D01*
X138141500Y-141216500D01*
X138189500Y-141177500D01*
X138242500Y-141142500D01*
X138298500Y-141114500D01*
X138357500Y-141091500D01*
X138417500Y-141075500D01*
X138479500Y-141065500D01*
X138542500Y-141062500D01*
X138605500Y-141065500D01*
G36*
X149845500Y-144865500D02*
G01*
X149907500Y-144875500D01*
X149967500Y-144891500D01*
X150026500Y-144914500D01*
X150082500Y-144942500D01*
X150135500Y-144977500D01*
X150183500Y-145016500D01*
X150228500Y-145061500D01*
X150267500Y-145109500D01*
X150302500Y-145162500D01*
X150330500Y-145218500D01*
X150353500Y-145277500D01*
X150369500Y-145337500D01*
X150379500Y-145399500D01*
X150382500Y-145462500D01*
X150382500Y-146662500D01*
X150379500Y-146725500D01*
X150369500Y-146787500D01*
X150353500Y-146847500D01*
X150330500Y-146906500D01*
X150302500Y-146962500D01*
X150267500Y-147015500D01*
X150228500Y-147063500D01*
X150183500Y-147108500D01*
X150135500Y-147147500D01*
X150082500Y-147182500D01*
X150026500Y-147210500D01*
X149967500Y-147233500D01*
X149907500Y-147249500D01*
X149845500Y-147259500D01*
X149782500Y-147262500D01*
X149719500Y-147259500D01*
X149657500Y-147249500D01*
X149597500Y-147233500D01*
X149538500Y-147210500D01*
X149482500Y-147182500D01*
X149429500Y-147147500D01*
X149381500Y-147108500D01*
X149336500Y-147063500D01*
X149297500Y-147015500D01*
X149262500Y-146962500D01*
X149234500Y-146906500D01*
X149211500Y-146847500D01*
X149195500Y-146787500D01*
X149185500Y-146725500D01*
X149182500Y-146662500D01*
X149182500Y-145462500D01*
X149185500Y-145399500D01*
X149195500Y-145337500D01*
X149211500Y-145277500D01*
X149234500Y-145218500D01*
X149262500Y-145162500D01*
X149297500Y-145109500D01*
X149336500Y-145061500D01*
X149381500Y-145016500D01*
X149429500Y-144977500D01*
X149482500Y-144942500D01*
X149538500Y-144914500D01*
X149597500Y-144891500D01*
X149657500Y-144875500D01*
X149719500Y-144865500D01*
X149782500Y-144862500D01*
X149845500Y-144865500D01*
G37*
X149845500Y-144865500D02*
X149907500Y-144875500D01*
X149967500Y-144891500D01*
X150026500Y-144914500D01*
X150082500Y-144942500D01*
X150135500Y-144977500D01*
X150183500Y-145016500D01*
X150228500Y-145061500D01*
X150267500Y-145109500D01*
X150302500Y-145162500D01*
X150330500Y-145218500D01*
X150353500Y-145277500D01*
X150369500Y-145337500D01*
X150379500Y-145399500D01*
X150382500Y-145462500D01*
X150382500Y-146662500D01*
X150379500Y-146725500D01*
X150369500Y-146787500D01*
X150353500Y-146847500D01*
X150330500Y-146906500D01*
X150302500Y-146962500D01*
X150267500Y-147015500D01*
X150228500Y-147063500D01*
X150183500Y-147108500D01*
X150135500Y-147147500D01*
X150082500Y-147182500D01*
X150026500Y-147210500D01*
X149967500Y-147233500D01*
X149907500Y-147249500D01*
X149845500Y-147259500D01*
X149782500Y-147262500D01*
X149719500Y-147259500D01*
X149657500Y-147249500D01*
X149597500Y-147233500D01*
X149538500Y-147210500D01*
X149482500Y-147182500D01*
X149429500Y-147147500D01*
X149381500Y-147108500D01*
X149336500Y-147063500D01*
X149297500Y-147015500D01*
X149262500Y-146962500D01*
X149234500Y-146906500D01*
X149211500Y-146847500D01*
X149195500Y-146787500D01*
X149185500Y-146725500D01*
X149182500Y-146662500D01*
X149182500Y-145462500D01*
X149185500Y-145399500D01*
X149195500Y-145337500D01*
X149211500Y-145277500D01*
X149234500Y-145218500D01*
X149262500Y-145162500D01*
X149297500Y-145109500D01*
X149336500Y-145061500D01*
X149381500Y-145016500D01*
X149429500Y-144977500D01*
X149482500Y-144942500D01*
X149538500Y-144914500D01*
X149597500Y-144891500D01*
X149657500Y-144875500D01*
X149719500Y-144865500D01*
X149782500Y-144862500D01*
X149845500Y-144865500D01*
D12*
X125662500Y-49662500D03*
D13*
X125662500Y-44162500D03*
X125662500Y-55162500D03*
D14*
X121862500Y-54662500D03*
X119762500Y-49662500D03*
X119762500Y-49662500D03*
D13*
X125662500Y-55162500D03*
D12*
X125662500Y-49662500D03*
D13*
X125662500Y-44162500D03*
X120662500Y-116162500D03*
D12*
X120662500Y-121662500D03*
D13*
X120662500Y-127162500D03*
D12*
X120662500Y-121662500D03*
D13*
X120662500Y-127162500D03*
X120662500Y-116162500D03*
D14*
X116862500Y-126662500D03*
X114762500Y-121662500D03*
X114762500Y-121662500D03*
D13*
X137662500Y-80162500D03*
D12*
X137662500Y-85662500D03*
D13*
X137662500Y-91162500D03*
D14*
X133862500Y-90662500D03*
X131762500Y-85662500D03*
X131762500Y-85662500D03*
D12*
X100542500Y-133542500D03*
D13*
X101966005Y-128229908D03*
X99118995Y-138855092D03*
D15*
X232712500Y-131387500D03*
X227612500Y-131387500D03*
D16*
X178514500Y-84162500D03*
X178514500Y-87162500D03*
D17*
X139612500Y-59162500D03*
D15*
X123345187Y-146407266D03*
D16*
X160812500Y-84162500D03*
X160812500Y-87162500D03*
D17*
X111712500Y-59162500D03*
D18*
X111362500Y-116762500D03*
D19*
X113059556Y-115065444D03*
X111362500Y-119162500D03*
X109665444Y-118459556D03*
X109665444Y-115065444D03*
X113762500Y-116762500D03*
X111362500Y-114362500D03*
X113059556Y-118459556D03*
X108962500Y-116762500D03*
D15*
X231012500Y-131387500D03*
D19*
X150965444Y-109715444D03*
X150262500Y-111412500D03*
D18*
X152662500Y-111412500D03*
D19*
X150965444Y-113109556D03*
X152662500Y-113812500D03*
X155062500Y-111412500D03*
X154359556Y-109715444D03*
X154359556Y-113109556D03*
X152662500Y-109012500D03*
X144515444Y-74965444D03*
X147909556Y-78359556D03*
X146212500Y-74262500D03*
X143812500Y-76662500D03*
X144515444Y-78359556D03*
D18*
X146212500Y-76662500D03*
D19*
X147909556Y-74965444D03*
X148612500Y-76662500D03*
X146212500Y-79062500D03*
D15*
X125045187Y-146407266D03*
X229312500Y-131387500D03*
X126745187Y-146407266D03*
D19*
X97912500Y-142562500D03*
X95512500Y-140162500D03*
X95512500Y-144962500D03*
X93815444Y-144259556D03*
X97209556Y-144259556D03*
D18*
X95512500Y-142562500D03*
D19*
X93112500Y-142562500D03*
X93815444Y-140865444D03*
X97209556Y-140865444D03*
D15*
X128445187Y-146407266D03*
D19*
X119595187Y-75507266D03*
X117195187Y-73107266D03*
X117195187Y-77907266D03*
D18*
X117195187Y-75507266D03*
D19*
X115498131Y-73810210D03*
X118892243Y-77204322D03*
X115498131Y-77204322D03*
X118892243Y-73810210D03*
X114795187Y-75507266D03*
D13*
X161162500Y-109162500D03*
X161162500Y-98162500D03*
D12*
X161162500Y-103662500D03*
D13*
X201662500Y-116162500D03*
D12*
X201662500Y-121662500D03*
D13*
X201662500Y-127162500D03*
D14*
X205462500Y-116662500D03*
X207562500Y-121662500D03*
X207562500Y-121662500D03*
D17*
X199712500Y-59162500D03*
D13*
X154662500Y-116162500D03*
X154662500Y-127162500D03*
D12*
X154662500Y-121662500D03*
D13*
X101966005Y-128229908D03*
D12*
X100542500Y-133542500D03*
D13*
X99118995Y-138855092D03*
D14*
X95577887Y-137388617D03*
X94843538Y-132015468D03*
X94843538Y-132015468D03*
D13*
X230662500Y-73162500D03*
X230662500Y-62162500D03*
D12*
X230662500Y-67662500D03*
X184662500Y-121662500D03*
D13*
X184662500Y-116162500D03*
X184662500Y-127162500D03*
D14*
X188462500Y-116662500D03*
X190562500Y-121662500D03*
X190562500Y-121662500D03*
D13*
X196662500Y-55162500D03*
X196662500Y-44162500D03*
D12*
X196662500Y-49662500D03*
D13*
X195162500Y-109162500D03*
X195162500Y-98162500D03*
D12*
X195162500Y-103662500D03*
D14*
X198962500Y-98662500D03*
X201062500Y-103662500D03*
X201062500Y-103662500D03*
D12*
X142662500Y-67662500D03*
D13*
X142662500Y-73162500D03*
X142662500Y-62162500D03*
D14*
X138862500Y-72662500D03*
X136762500Y-67662500D03*
X136762500Y-67662500D03*
D12*
X184662500Y-121662500D03*
D13*
X184662500Y-127162500D03*
X184662500Y-116162500D03*
X108662500Y-62162500D03*
X108662500Y-73162500D03*
D12*
X108662500Y-67662500D03*
D13*
X220662500Y-134162500D03*
D12*
X220662500Y-139662500D03*
D13*
X220662500Y-145162500D03*
X236162500Y-119162500D03*
D12*
X236162500Y-113662500D03*
D13*
X236162500Y-108162500D03*
X218662500Y-127162500D03*
D12*
X218662500Y-121662500D03*
D13*
X218662500Y-116162500D03*
D14*
X222462500Y-116662500D03*
X224562500Y-121662500D03*
X224562500Y-121662500D03*
D19*
X189062500Y-111412500D03*
X186662500Y-109012500D03*
X184965444Y-109715444D03*
X186662500Y-113812500D03*
D18*
X186662500Y-111412500D03*
D19*
X188359556Y-109715444D03*
X184965444Y-113109556D03*
X184262500Y-111412500D03*
X188359556Y-113109556D03*
D13*
X203662500Y-145162500D03*
X203662500Y-134162500D03*
D12*
X203662500Y-139662500D03*
D14*
X207462500Y-134662500D03*
X209562500Y-139662500D03*
X209562500Y-139662500D03*
D12*
X230662500Y-67662500D03*
D13*
X230662500Y-62162500D03*
X230662500Y-73162500D03*
D14*
X234462500Y-62662500D03*
X236562500Y-67662500D03*
X236562500Y-67662500D03*
D13*
X201662500Y-80162500D03*
X201662500Y-91162500D03*
D12*
X201662500Y-85662500D03*
D14*
X205462500Y-80662500D03*
X207562500Y-85662500D03*
X207562500Y-85662500D03*
D12*
X152662500Y-139662500D03*
D13*
X152662500Y-134162500D03*
X152662500Y-145162500D03*
D12*
X108662500Y-67662500D03*
D13*
X108662500Y-62162500D03*
X108662500Y-73162500D03*
D14*
X104862500Y-72662500D03*
X102762500Y-67662500D03*
X102762500Y-67662500D03*
D13*
X92553589Y-151611284D03*
X102079869Y-157111284D03*
D12*
X97316729Y-154361284D03*
D13*
X154662500Y-127162500D03*
D12*
X154662500Y-121662500D03*
D13*
X154662500Y-116162500D03*
D14*
X150862500Y-126662500D03*
X148762500Y-121662500D03*
X148762500Y-121662500D03*
D13*
X142662500Y-62162500D03*
X142662500Y-73162500D03*
D12*
X142662500Y-67662500D03*
D13*
X237245131Y-157111284D03*
X246771411Y-151611284D03*
D12*
X242008271Y-154361284D03*
D13*
X201662500Y-91162500D03*
X201662500Y-80162500D03*
D12*
X201662500Y-85662500D03*
D13*
X203662500Y-134162500D03*
X203662500Y-145162500D03*
D12*
X203662500Y-139662500D03*
D13*
X161162500Y-98162500D03*
D12*
X161162500Y-103662500D03*
D13*
X161162500Y-109162500D03*
D14*
X157362500Y-108662500D03*
X155262500Y-103662500D03*
X155262500Y-103662500D03*
D13*
X230662500Y-44162500D03*
D12*
X230662500Y-49662500D03*
D13*
X230662500Y-55162500D03*
D14*
X234462500Y-44662500D03*
X236562500Y-49662500D03*
X236562500Y-49662500D03*
D12*
X236162500Y-113662500D03*
D13*
X236162500Y-119162500D03*
X236162500Y-108162500D03*
D14*
X239962500Y-108662500D03*
X242062500Y-113662500D03*
X242062500Y-113662500D03*
D13*
X135662500Y-134162500D03*
X135662500Y-145162500D03*
D12*
X135662500Y-139662500D03*
D14*
X131862500Y-144662500D03*
X129762500Y-139662500D03*
X129762500Y-139662500D03*
D13*
X103162500Y-119162500D03*
X103162500Y-108162500D03*
D12*
X103162500Y-113662500D03*
D13*
X118662500Y-145162500D03*
D12*
X118662500Y-139662500D03*
D13*
X118662500Y-134162500D03*
D14*
X122462500Y-134662500D03*
X124562500Y-139662500D03*
X124562500Y-139662500D03*
D13*
X125662500Y-73162500D03*
X125662500Y-62162500D03*
D12*
X125662500Y-67662500D03*
D14*
X121862500Y-72662500D03*
X119762500Y-67662500D03*
X119762500Y-67662500D03*
D12*
X212162500Y-103662500D03*
D13*
X212162500Y-109162500D03*
X212162500Y-98162500D03*
D12*
X213662500Y-49662500D03*
D13*
X213662500Y-55162500D03*
X213662500Y-44162500D03*
D14*
X217462500Y-44662500D03*
X219562500Y-49662500D03*
X219562500Y-49662500D03*
D19*
X230362500Y-116762500D03*
X229659556Y-115065444D03*
X227962500Y-119162500D03*
X229659556Y-118459556D03*
D18*
X227962500Y-116762500D03*
D19*
X226265444Y-118459556D03*
X225562500Y-116762500D03*
X227962500Y-114362500D03*
X226265444Y-115065444D03*
D13*
X108662500Y-55162500D03*
D12*
X108662500Y-49662500D03*
D13*
X108662500Y-44162500D03*
D14*
X104862500Y-54662500D03*
X102762500Y-49662500D03*
X102762500Y-49662500D03*
D13*
X230662500Y-44162500D03*
X230662500Y-55162500D03*
D12*
X230662500Y-49662500D03*
D13*
X178162500Y-98162500D03*
X178162500Y-109162500D03*
D12*
X178162500Y-103662500D03*
X118662500Y-139662500D03*
D13*
X118662500Y-145162500D03*
X118662500Y-134162500D03*
X142662500Y-55162500D03*
X142662500Y-44162500D03*
D12*
X142662500Y-49662500D03*
D14*
X138862500Y-54662500D03*
X136762500Y-49662500D03*
X136762500Y-49662500D03*
D17*
X227612500Y-59162500D03*
D13*
X152662500Y-134162500D03*
X152662500Y-145162500D03*
D12*
X152662500Y-139662500D03*
D14*
X156462500Y-134662500D03*
X158562500Y-139662500D03*
X158562500Y-139662500D03*
D12*
X144162500Y-103662500D03*
D13*
X144162500Y-109162500D03*
X144162500Y-98162500D03*
D14*
X140362500Y-108662500D03*
X138262500Y-103662500D03*
X138262500Y-103662500D03*
D13*
X137662500Y-116162500D03*
X137662500Y-127162500D03*
D12*
X137662500Y-121662500D03*
D13*
X212162500Y-98162500D03*
D12*
X212162500Y-103662500D03*
D13*
X212162500Y-109162500D03*
D14*
X215962500Y-98662500D03*
X218062500Y-103662500D03*
X218062500Y-103662500D03*
D12*
X218662500Y-121662500D03*
D13*
X218662500Y-116162500D03*
X218662500Y-127162500D03*
X195162500Y-109162500D03*
X195162500Y-98162500D03*
D12*
X195162500Y-103662500D03*
X220662500Y-139662500D03*
D13*
X220662500Y-145162500D03*
X220662500Y-134162500D03*
D14*
X216862500Y-144662500D03*
X214762500Y-139662500D03*
X214762500Y-139662500D03*
D13*
X135662500Y-145162500D03*
D12*
X135662500Y-139662500D03*
D13*
X135662500Y-134162500D03*
D12*
X154662500Y-85662500D03*
D13*
X154662500Y-91162500D03*
X154662500Y-80162500D03*
X142662500Y-44162500D03*
X142662500Y-55162500D03*
D12*
X142662500Y-49662500D03*
D13*
X184662500Y-91162500D03*
X184662500Y-80162500D03*
D12*
X184662500Y-85662500D03*
D14*
X188462500Y-80662500D03*
X190562500Y-85662500D03*
X190562500Y-85662500D03*
D13*
X102079869Y-157111284D03*
D12*
X97316729Y-154361284D03*
D13*
X92553589Y-151611284D03*
D14*
X99746856Y-160152181D03*
X94366729Y-159470834D03*
X94366729Y-159470834D03*
D18*
X193112500Y-76662500D03*
D19*
X193112500Y-74262500D03*
X190712500Y-76662500D03*
X193112500Y-79062500D03*
X194809556Y-74965444D03*
X191415444Y-74965444D03*
X191415444Y-78359556D03*
X194809556Y-78359556D03*
X195512500Y-76662500D03*
D13*
X240206005Y-138855092D03*
D12*
X238782500Y-133542500D03*
D13*
X237358995Y-128229908D03*
X144162500Y-109162500D03*
X144162500Y-98162500D03*
D12*
X144162500Y-103662500D03*
X137662500Y-85662500D03*
D13*
X137662500Y-80162500D03*
X137662500Y-91162500D03*
X213662500Y-62162500D03*
D12*
X213662500Y-67662500D03*
D13*
X213662500Y-73162500D03*
D14*
X217462500Y-62662500D03*
X219562500Y-67662500D03*
X219562500Y-67662500D03*
D12*
X154662500Y-85662500D03*
D13*
X154662500Y-80162500D03*
X154662500Y-91162500D03*
D14*
X150862500Y-90662500D03*
X148762500Y-85662500D03*
X148762500Y-85662500D03*
D13*
X196662500Y-44162500D03*
X196662500Y-55162500D03*
D12*
X196662500Y-49662500D03*
D14*
X200462500Y-44662500D03*
X202562500Y-49662500D03*
X202562500Y-49662500D03*
D13*
X196662500Y-73162500D03*
D12*
X196662500Y-67662500D03*
D13*
X196662500Y-62162500D03*
D12*
X186662500Y-139662500D03*
D13*
X186662500Y-145162500D03*
X186662500Y-134162500D03*
X127162500Y-109162500D03*
X127162500Y-98162500D03*
D12*
X127162500Y-103662500D03*
D14*
X123362500Y-108662500D03*
X121262500Y-103662500D03*
X121262500Y-103662500D03*
D13*
X213662500Y-73162500D03*
X213662500Y-62162500D03*
D12*
X213662500Y-67662500D03*
X103162500Y-113662500D03*
D13*
X103162500Y-108162500D03*
X103162500Y-119162500D03*
D14*
X99362500Y-118662500D03*
X97262500Y-113662500D03*
X97262500Y-113662500D03*
D13*
X120662500Y-91162500D03*
X120662500Y-80162500D03*
D12*
X120662500Y-85662500D03*
D14*
X116862500Y-90662500D03*
X114762500Y-85662500D03*
X114762500Y-85662500D03*
D12*
X218662500Y-85662500D03*
D13*
X218662500Y-91162500D03*
X218662500Y-80162500D03*
D14*
X222462500Y-80662500D03*
X224562500Y-85662500D03*
X224562500Y-85662500D03*
D13*
X120662500Y-80162500D03*
D12*
X120662500Y-85662500D03*
D13*
X120662500Y-91162500D03*
D12*
X186662500Y-139662500D03*
D13*
X186662500Y-134162500D03*
X186662500Y-145162500D03*
D14*
X182862500Y-144662500D03*
X180762500Y-139662500D03*
X180762500Y-139662500D03*
D12*
X201662500Y-121662500D03*
D13*
X201662500Y-127162500D03*
X201662500Y-116162500D03*
X108662500Y-55162500D03*
D12*
X108662500Y-49662500D03*
D13*
X108662500Y-44162500D03*
D19*
X223826869Y-77204322D03*
X222129813Y-73107266D03*
X220432757Y-77204322D03*
X222129813Y-77907266D03*
X224529813Y-75507266D03*
D18*
X222129813Y-75507266D03*
D19*
X219729813Y-75507266D03*
X220432757Y-73810210D03*
X223826869Y-73810210D03*
X242115444Y-144259556D03*
X245509556Y-144259556D03*
X241412500Y-142562500D03*
X243812500Y-140162500D03*
X246212500Y-142562500D03*
X242115444Y-140865444D03*
D18*
X243812500Y-142562500D03*
D19*
X245509556Y-140865444D03*
X243812500Y-144962500D03*
D12*
X218662500Y-85662500D03*
D13*
X218662500Y-80162500D03*
X218662500Y-91162500D03*
D12*
X127162500Y-103662500D03*
D13*
X127162500Y-98162500D03*
X127162500Y-109162500D03*
D12*
X238782500Y-133542500D03*
D13*
X237358995Y-128229908D03*
X240206005Y-138855092D03*
D14*
X241158923Y-127729358D03*
X244481462Y-132015468D03*
X244481462Y-132015468D03*
D13*
X178162500Y-109162500D03*
X178162500Y-98162500D03*
D12*
X178162500Y-103662500D03*
D14*
X181962500Y-98662500D03*
X184062500Y-103662500D03*
X184062500Y-103662500D03*
D12*
X213662500Y-49662500D03*
D13*
X213662500Y-44162500D03*
X213662500Y-55162500D03*
X125662500Y-62162500D03*
D12*
X125662500Y-67662500D03*
D13*
X125662500Y-73162500D03*
X196662500Y-73162500D03*
X196662500Y-62162500D03*
D12*
X196662500Y-67662500D03*
D14*
X200462500Y-62662500D03*
X202562500Y-67662500D03*
X202562500Y-67662500D03*
D12*
X242008271Y-154361284D03*
D13*
X246771411Y-151611284D03*
X237245131Y-157111284D03*
D14*
X248238398Y-155152181D03*
X244958271Y-159470834D03*
X244958271Y-159470834D03*
D12*
X184662500Y-85662500D03*
D13*
X184662500Y-91162500D03*
X184662500Y-80162500D03*
D12*
X137662500Y-121662500D03*
D13*
X137662500Y-127162500D03*
X137662500Y-116162500D03*
D14*
X133862500Y-126662500D03*
X131762500Y-121662500D03*
X131762500Y-121662500D03*
M02*
